{"glyphs":{"0":{"ha":789,"x_min":71,"x_max":718,"o":"m 718 576 l 718 415 q 678 166 718 260 q 566 29 638 72 q 395 -14 493 -14 q 225 29 298 -14 q 111 166 152 72 q 71 415 71 260 l 71 576 q 111 824 71 731 q 224 959 151 918 q 394 1001 297 1001 q 565 959 492 1001 q 678 824 637 918 q 718 576 718 731 m 555 392 l 555 601 q 513 810 555 749 q 394 871 472 871 q 276 810 318 871 q 235 601 235 749 l 235 392 q 277 180 235 243 q 395 117 319 117 q 514 180 473 117 q 555 392 555 243 z "},"1":{"ha":789,"x_min":115,"x_max":521,"o":"m 521 991 l 521 0 l 357 0 l 357 797 l 115 715 l 115 850 l 501 991 l 521 991 z "},"2":{"ha":789,"x_min":56,"x_max":736,"o":"m 736 130 l 736 0 l 75 0 l 75 112 l 396 463 q 505 607 475 552 q 535 712 535 662 q 496 827 535 782 q 387 871 458 871 q 262 820 304 871 q 219 687 219 768 l 56 687 q 95 844 56 773 q 209 958 134 916 q 389 1001 283 1001 q 618 927 537 1001 q 699 729 699 854 q 641 547 699 636 q 494 366 583 458 l 281 130 l 736 130 z "},"3":{"ha":789,"x_min":53,"x_max":712,"o":"m 267 440 l 267 568 l 364 568 q 491 611 450 568 q 533 721 533 654 q 496 831 533 791 q 381 871 458 871 q 271 833 315 871 q 227 730 227 795 l 63 730 q 104 870 63 809 q 217 966 146 931 q 378 1001 288 1001 q 609 930 521 1001 q 697 721 697 859 q 658 601 697 661 q 543 507 619 541 q 672 414 632 477 q 712 276 712 351 q 668 119 712 184 q 549 20 625 54 q 379 -14 474 -14 q 220 18 295 -14 q 99 111 146 49 q 53 266 53 174 l 216 266 q 262 158 216 199 q 382 117 308 117 q 504 158 460 117 q 548 276 548 199 q 498 401 548 362 q 364 440 449 440 l 267 440 z "},"4":{"ha":789,"x_min":37,"x_max":755,"o":"m 755 352 l 755 222 l 631 222 l 631 0 l 468 0 l 468 222 l 43 222 l 37 320 l 463 987 l 631 987 l 631 352 l 755 352 m 208 352 l 468 352 l 468 771 l 452 745 l 208 352 z "},"5":{"ha":789,"x_min":86,"x_max":733,"o":"m 246 459 l 116 491 l 170 987 l 702 987 l 702 849 l 305 849 l 278 607 q 342 634 302 621 q 435 647 383 647 q 654 558 574 647 q 733 316 733 470 q 698 150 733 225 q 591 31 663 75 q 409 -14 519 -14 q 255 19 326 -14 q 137 113 183 51 q 86 267 92 176 l 246 267 q 297 156 255 195 q 408 117 340 117 q 529 174 490 117 q 569 321 569 231 q 525 462 569 406 q 393 518 480 518 q 303 501 334 518 q 246 459 272 484 z "},"6":{"ha":789,"x_min":78,"x_max":733,"o":"m 568 994 l 589 994 l 589 860 l 577 860 q 402 822 473 860 q 293 718 332 783 q 245 570 254 652 q 451 654 323 654 q 609 608 547 654 q 703 486 672 561 q 733 324 733 410 q 695 153 733 229 q 585 31 656 76 q 412 -14 513 -14 q 232 40 307 -14 q 117 181 157 93 q 78 372 78 269 l 78 440 q 106 653 78 553 q 195 829 135 753 q 347 950 254 906 q 568 994 439 994 m 241 357 q 291 178 241 239 q 410 117 340 117 q 528 174 485 117 q 570 320 570 232 q 529 464 570 404 q 409 524 488 524 q 305 491 350 524 q 241 412 260 458 l 241 357 z "},"7":{"ha":789,"x_min":46,"x_max":730,"o":"m 730 987 l 730 898 l 336 0 l 163 0 l 557 857 l 46 857 l 46 987 l 730 987 z "},"8":{"ha":789,"x_min":70,"x_max":720,"o":"m 720 269 q 677 115 720 178 q 561 19 635 52 q 395 -14 488 -14 q 229 19 303 -14 q 113 115 155 52 q 70 269 70 178 q 114 414 70 351 q 231 509 157 476 q 129 599 167 542 q 92 728 92 656 q 131 877 92 816 q 239 969 170 937 q 395 1001 307 1001 q 551 969 483 1001 q 659 877 620 937 q 698 728 698 816 q 660 599 698 656 q 558 509 623 542 q 676 414 632 476 q 720 269 720 351 m 534 722 q 497 830 534 788 q 395 871 459 871 q 293 831 331 871 q 256 722 256 791 q 293 613 256 654 q 395 572 331 572 q 497 613 460 572 q 534 722 534 654 m 556 277 q 511 397 556 352 q 394 442 467 442 q 277 397 321 442 q 233 277 233 352 q 277 159 233 201 q 395 117 321 117 q 513 159 470 117 q 556 277 556 201 z "},"9":{"ha":789,"x_min":63,"x_max":709,"o":"m 206 129 l 220 129 q 404 166 335 129 q 506 268 473 203 q 545 415 539 332 q 457 350 507 375 q 348 325 406 325 q 190 371 253 325 q 95 493 126 417 q 63 656 63 568 q 101 829 63 751 q 211 954 139 907 q 383 1001 283 1001 q 562 947 490 1001 q 671 802 634 893 q 709 600 709 711 l 709 543 q 684 335 709 433 q 602 159 659 236 q 452 38 546 82 q 221 -6 359 -6 l 206 -6 l 206 129 m 225 660 q 242 558 225 606 q 295 481 260 510 q 384 452 330 452 q 483 483 440 452 q 546 561 526 515 l 546 626 q 498 809 546 747 q 382 871 450 871 q 297 842 332 871 q 243 765 262 813 q 225 660 225 718 z "},"\u0000":{"ha":0,"x_min":0,"x_max":0,"o":""},"A":{"ha":921,"x_min":12,"x_max":911,"o":"m 732 0 l 652 231 l 270 231 l 190 0 l 12 0 l 383 987 l 538 987 l 911 0 l 732 0 m 316 366 l 605 366 l 460 785 l 316 366 z "},"Æ":{"ha":1301,"x_min":-3,"x_max":1268,"o":"m 1268 131 l 1268 0 l 665 0 l 656 233 l 317 233 l 192 0 l -3 0 l 559 987 l 1226 987 l 1226 857 l 793 857 l 804 576 l 1171 576 l 1171 445 l 810 445 l 823 131 l 1268 131 m 394 376 l 650 376 l 631 817 l 394 376 z "},"Ǽ":{"ha":1301,"x_min":-3,"x_max":1268,"o":"m 1268 131 l 1268 0 l 665 0 l 656 233 l 317 233 l 192 0 l -3 0 l 559 987 l 1226 987 l 1226 857 l 793 857 l 804 576 l 1171 576 l 1171 445 l 810 445 l 823 131 l 1268 131 m 394 376 l 650 376 l 631 817 l 394 376 m 553 1056 l 686 1260 l 870 1260 l 686 1056 l 553 1056 z "},"Á":{"ha":921,"x_min":12,"x_max":911,"o":"m 732 0 l 652 231 l 270 231 l 190 0 l 12 0 l 383 987 l 538 987 l 911 0 l 732 0 m 316 366 l 605 366 l 460 785 l 316 366 m 380 1048 l 513 1253 l 697 1253 l 513 1048 l 380 1048 z "},"Ă":{"ha":921,"x_min":12,"x_max":911,"o":"m 732 0 l 652 231 l 270 231 l 190 0 l 12 0 l 383 987 l 538 987 l 911 0 l 732 0 m 316 366 l 605 366 l 460 785 l 316 366 m 562 1236 l 683 1236 q 624 1098 683 1152 q 463 1044 564 1044 q 301 1098 361 1044 q 242 1236 242 1152 l 363 1236 q 386 1169 363 1198 q 463 1140 408 1140 q 539 1169 516 1140 q 562 1236 562 1198 z "},"Â":{"ha":921,"x_min":12,"x_max":911,"o":"m 732 0 l 652 231 l 270 231 l 190 0 l 12 0 l 383 987 l 538 987 l 911 0 l 732 0 m 316 366 l 605 366 l 460 785 l 316 366 m 511 1253 l 699 1065 l 699 1058 l 566 1058 l 463 1164 l 359 1058 l 229 1058 l 229 1067 l 414 1253 l 511 1253 z "},"Ä":{"ha":921,"x_min":12,"x_max":911,"o":"m 732 0 l 652 231 l 270 231 l 190 0 l 12 0 l 383 987 l 538 987 l 911 0 l 732 0 m 316 366 l 605 366 l 460 785 l 316 366 m 222 1139 q 245 1195 222 1173 q 306 1218 268 1218 q 368 1195 345 1218 q 391 1139 391 1173 q 368 1084 391 1107 q 306 1061 345 1061 q 245 1084 268 1061 q 222 1139 222 1107 m 536 1139 q 559 1195 536 1172 q 621 1217 582 1217 q 682 1195 659 1217 q 705 1139 705 1172 q 682 1083 705 1105 q 621 1061 659 1061 q 559 1083 582 1061 q 536 1139 536 1105 z "},"À":{"ha":921,"x_min":12,"x_max":911,"o":"m 732 0 l 652 231 l 270 231 l 190 0 l 12 0 l 383 987 l 538 987 l 911 0 l 732 0 m 316 366 l 605 366 l 460 785 l 316 366 m 415 1253 l 547 1048 l 411 1048 l 230 1253 l 415 1253 z "},"Ā":{"ha":921,"x_min":12,"x_max":911,"o":"m 732 0 l 652 231 l 270 231 l 190 0 l 12 0 l 383 987 l 538 987 l 911 0 l 732 0 m 316 366 l 605 366 l 460 785 l 316 366 m 695 1196 l 695 1091 l 235 1091 l 235 1196 l 695 1196 z "},"Ą":{"ha":921,"x_min":12,"x_max":911,"o":"m 12 0 l 383 987 l 538 987 l 911 0 l 867 0 q 789 -63 820 -31 q 758 -136 758 -95 q 769 -169 758 -156 q 806 -182 779 -182 q 842 -177 827 -182 q 867 -166 857 -171 l 882 -260 q 839 -280 865 -271 q 772 -290 812 -290 q 670 -256 712 -290 q 629 -155 629 -221 q 652 -71 629 -113 q 730 7 675 -30 l 652 231 l 270 231 l 190 0 l 12 0 m 316 366 l 605 366 l 460 785 l 316 366 z "},"Å":{"ha":921,"x_min":12,"x_max":911,"o":"m 732 0 l 652 231 l 270 231 l 190 0 l 12 0 l 383 987 l 538 987 l 911 0 l 732 0 m 316 366 l 605 366 l 460 785 l 316 366 m 315 1174 q 357 1273 315 1232 q 463 1314 399 1314 q 569 1273 526 1314 q 611 1174 611 1232 q 569 1076 611 1116 q 463 1037 526 1037 q 357 1076 399 1037 q 315 1174 315 1116 m 387 1174 q 408 1121 387 1144 q 463 1099 429 1099 q 518 1121 497 1099 q 538 1174 538 1143 q 518 1227 538 1204 q 463 1251 497 1251 q 408 1227 429 1251 q 387 1174 387 1204 z "},"Ǻ":{"ha":921,"x_min":12,"x_max":911,"o":"m 732 0 l 652 231 l 270 231 l 190 0 l 12 0 l 383 987 l 538 987 l 911 0 l 732 0 m 316 366 l 605 366 l 460 785 l 316 366 m 424 1203 l 539 1335 l 693 1335 l 526 1203 l 424 1203 m 336 1053 q 374 1139 336 1105 q 464 1173 411 1173 q 552 1139 516 1173 q 589 1053 589 1105 q 552 969 589 1002 q 464 936 516 936 q 374 969 411 936 q 336 1053 336 1002 m 404 1053 q 421 1011 404 1028 q 464 995 439 995 q 505 1011 489 995 q 522 1053 522 1028 q 505 1097 522 1080 q 464 1114 489 1114 q 421 1097 439 1114 q 404 1053 404 1080 z "},"Ã":{"ha":921,"x_min":12,"x_max":911,"o":"m 732 0 l 652 231 l 270 231 l 190 0 l 12 0 l 383 987 l 538 987 l 911 0 l 732 0 m 316 366 l 605 366 l 460 785 l 316 366 m 611 1244 l 711 1236 q 668 1113 711 1162 q 561 1064 625 1064 q 489 1080 516 1064 q 437 1111 462 1095 q 376 1126 413 1126 q 333 1107 351 1126 q 315 1056 315 1088 l 214 1061 q 257 1185 214 1135 q 364 1235 300 1235 q 430 1220 401 1235 q 486 1189 458 1204 q 549 1173 514 1173 q 593 1193 574 1173 q 611 1244 611 1213 z "},"B":{"ha":877,"x_min":100,"x_max":806,"o":"m 463 0 l 100 0 l 100 987 l 435 987 q 690 923 598 987 q 782 721 782 859 q 746 597 782 652 q 638 514 709 543 q 765 428 724 491 q 806 288 806 365 q 715 73 806 146 q 463 0 625 0 m 435 852 l 271 852 l 271 570 l 437 570 q 567 607 522 570 q 612 711 612 644 q 569 819 612 786 q 435 852 526 852 m 637 288 q 598 404 637 361 q 471 446 559 446 l 271 446 l 271 135 l 463 135 q 593 177 549 135 q 637 288 637 220 z "},"C":{"ha":907,"x_min":69,"x_max":854,"o":"m 684 321 l 853 321 q 799 149 845 224 q 670 30 753 73 q 467 -14 587 -14 q 255 44 345 -14 q 118 206 166 101 q 69 452 69 311 l 69 534 q 119 782 69 677 q 259 944 168 886 q 473 1001 349 1001 q 672 958 591 1001 q 799 838 753 914 q 854 662 844 761 l 684 662 q 627 811 674 758 q 473 865 580 865 q 299 779 357 865 q 240 536 240 693 l 240 452 q 294 213 240 303 q 467 122 348 122 q 624 174 576 122 q 684 321 672 225 z "},"\r":{"ha":345,"x_min":0,"x_max":0,"o":""},"Ć":{"ha":907,"x_min":69,"x_max":854,"o":"m 684 321 l 853 321 q 799 149 845 224 q 670 30 753 73 q 467 -14 587 -14 q 255 44 345 -14 q 118 206 166 101 q 69 452 69 311 l 69 534 q 119 782 69 677 q 259 944 168 886 q 473 1001 349 1001 q 672 958 591 1001 q 799 838 753 914 q 854 662 844 761 l 684 662 q 627 811 674 758 q 473 865 580 865 q 299 779 357 865 q 240 536 240 693 l 240 452 q 294 213 240 303 q 467 122 348 122 q 624 174 576 122 q 684 321 672 225 m 382 1062 l 514 1266 l 699 1266 l 514 1062 l 382 1062 z "},"Č":{"ha":907,"x_min":69,"x_max":854,"o":"m 684 321 l 853 321 q 799 149 845 224 q 670 30 753 73 q 467 -14 587 -14 q 255 44 345 -14 q 118 206 166 101 q 69 452 69 311 l 69 534 q 119 782 69 677 q 259 944 168 886 q 473 1001 349 1001 q 672 958 591 1001 q 799 838 753 914 q 854 662 844 761 l 684 662 q 627 811 674 758 q 473 865 580 865 q 299 779 357 865 q 240 536 240 693 l 240 452 q 294 213 240 303 q 467 122 348 122 q 624 174 576 122 q 684 321 672 225 m 362 1266 l 464 1160 l 565 1266 l 705 1266 l 705 1259 l 515 1071 l 412 1071 l 223 1259 l 223 1266 l 362 1266 z "},"Ç":{"ha":907,"x_min":69,"x_max":854,"o":"m 684 321 l 853 321 q 799 149 845 224 q 670 30 753 73 q 467 -14 587 -14 q 255 44 345 -14 q 118 206 166 101 q 69 452 69 311 l 69 534 q 119 782 69 677 q 259 944 168 886 q 473 1001 349 1001 q 672 958 591 1001 q 799 838 753 914 q 854 662 844 761 l 684 662 q 627 811 674 758 q 473 865 580 865 q 299 779 357 865 q 240 536 240 693 l 240 452 q 294 213 240 303 q 467 122 348 122 q 624 174 576 122 q 684 321 672 225 m 406 -1 l 527 -1 l 519 -39 q 590 -72 557 -46 q 622 -157 622 -98 q 565 -267 622 -224 q 399 -309 509 -309 l 394 -216 q 460 -202 433 -216 q 488 -155 488 -188 q 463 -112 488 -123 q 385 -96 439 -100 l 406 -1 z "},"Ĉ":{"ha":907,"x_min":69,"x_max":854,"o":"m 684 321 l 853 321 q 799 149 845 224 q 670 30 753 73 q 467 -14 587 -14 q 255 44 345 -14 q 118 206 166 101 q 69 452 69 311 l 69 534 q 119 782 69 677 q 259 944 168 886 q 473 1001 349 1001 q 672 958 591 1001 q 799 838 753 914 q 854 662 844 761 l 684 662 q 627 811 674 758 q 473 865 580 865 q 299 779 357 865 q 240 536 240 693 l 240 452 q 294 213 240 303 q 467 122 348 122 q 624 174 576 122 q 684 321 672 225 m 513 1266 l 701 1079 l 701 1072 l 568 1072 l 465 1178 l 361 1072 l 231 1072 l 231 1080 l 416 1266 l 513 1266 z "},"D":{"ha":907,"x_min":100,"x_max":837,"o":"m 387 0 l 100 0 l 100 987 l 393 987 q 625 929 525 987 q 781 766 724 871 q 837 519 837 661 l 837 467 q 781 220 837 326 q 624 58 725 115 q 387 0 523 0 m 393 852 l 271 852 l 271 135 l 387 135 q 595 223 525 135 q 666 467 666 312 l 666 521 q 595 766 666 681 q 393 852 525 852 z "},"Ď":{"ha":907,"x_min":100,"x_max":837,"o":"m 387 0 l 100 0 l 100 987 l 393 987 q 625 929 525 987 q 781 766 724 871 q 837 519 837 661 l 837 467 q 781 220 837 326 q 624 58 725 115 q 387 0 523 0 m 393 852 l 271 852 l 271 135 l 387 135 q 595 223 525 135 q 666 467 666 312 l 666 521 q 595 766 666 681 q 393 852 525 852 m 279 1257 l 381 1151 l 482 1257 l 623 1257 l 623 1250 l 433 1062 l 330 1062 l 140 1251 l 140 1257 l 279 1257 z "},"Đ":{"ha":927,"x_min":16,"x_max":857,"o":"m 408 0 l 121 0 l 121 444 l 16 444 l 16 556 l 121 556 l 121 987 l 414 987 q 645 929 545 987 q 801 766 745 871 q 857 519 857 661 l 857 467 q 801 220 857 326 q 644 58 745 115 q 408 0 543 0 m 471 556 l 471 444 l 291 444 l 291 135 l 408 135 q 616 223 545 135 q 686 467 686 312 l 686 521 q 616 766 686 681 q 414 852 545 852 l 291 852 l 291 556 l 471 556 z "},"∆":{"ha":1000,"x_min":18,"x_max":981,"o":"m 18 0 l 421 987 l 589 987 l 981 0 l 18 0 m 248 135 l 752 135 l 505 789 l 248 135 z "},"E":{"ha":785,"x_min":100,"x_max":747,"o":"m 747 135 l 747 0 l 100 0 l 100 987 l 743 987 l 743 852 l 271 852 l 271 575 l 678 575 l 678 442 l 271 442 l 271 135 l 747 135 z "},"É":{"ha":785,"x_min":100,"x_max":747,"o":"m 747 135 l 747 0 l 100 0 l 100 987 l 743 987 l 743 852 l 271 852 l 271 575 l 678 575 l 678 442 l 271 442 l 271 135 l 747 135 m 344 1053 l 476 1257 l 661 1257 l 476 1053 l 344 1053 z "},"Ĕ":{"ha":785,"x_min":100,"x_max":747,"o":"m 747 135 l 747 0 l 100 0 l 100 987 l 743 987 l 743 852 l 271 852 l 271 575 l 678 575 l 678 442 l 271 442 l 271 135 l 747 135 m 525 1240 l 646 1240 q 587 1103 646 1156 q 427 1049 528 1049 q 265 1103 324 1049 q 205 1240 205 1156 l 327 1240 q 349 1174 327 1203 q 427 1145 372 1145 q 502 1174 479 1145 q 525 1240 525 1203 z "},"Ě":{"ha":785,"x_min":100,"x_max":747,"o":"m 747 135 l 747 0 l 100 0 l 100 987 l 743 987 l 743 852 l 271 852 l 271 575 l 678 575 l 678 442 l 271 442 l 271 135 l 747 135 m 324 1257 l 426 1151 l 527 1257 l 667 1257 l 667 1250 l 477 1062 l 374 1062 l 185 1251 l 185 1257 l 324 1257 z "},"Ê":{"ha":785,"x_min":100,"x_max":747,"o":"m 747 135 l 747 0 l 100 0 l 100 987 l 743 987 l 743 852 l 271 852 l 271 575 l 678 575 l 678 442 l 271 442 l 271 135 l 747 135 m 475 1257 l 663 1070 l 663 1063 l 530 1063 l 427 1169 l 323 1063 l 193 1063 l 193 1072 l 378 1257 l 475 1257 z "},"Ë":{"ha":785,"x_min":100,"x_max":747,"o":"m 747 135 l 747 0 l 100 0 l 100 987 l 743 987 l 743 852 l 271 852 l 271 575 l 678 575 l 678 442 l 271 442 l 271 135 l 747 135 m 185 1144 q 208 1200 185 1177 q 269 1223 231 1223 q 331 1200 308 1223 q 354 1144 354 1177 q 331 1089 354 1112 q 269 1066 308 1066 q 208 1089 231 1066 q 185 1144 185 1112 m 499 1143 q 522 1199 499 1177 q 584 1222 545 1222 q 645 1199 622 1222 q 669 1143 669 1177 q 645 1088 669 1110 q 584 1065 622 1065 q 522 1088 545 1065 q 499 1143 499 1110 z "},"Ė":{"ha":785,"x_min":100,"x_max":747,"o":"m 747 135 l 747 0 l 100 0 l 100 987 l 743 987 l 743 852 l 271 852 l 271 575 l 678 575 l 678 442 l 271 442 l 271 135 l 747 135 m 338 1152 q 361 1210 338 1187 q 426 1234 385 1234 q 491 1210 467 1234 q 515 1152 515 1187 q 491 1093 515 1116 q 426 1070 467 1070 q 361 1093 385 1070 q 338 1152 338 1116 z "},"È":{"ha":785,"x_min":100,"x_max":747,"o":"m 747 135 l 747 0 l 100 0 l 100 987 l 743 987 l 743 852 l 271 852 l 271 575 l 678 575 l 678 442 l 271 442 l 271 135 l 747 135 m 378 1257 l 511 1053 l 374 1053 l 193 1257 l 378 1257 z "},"Ē":{"ha":785,"x_min":100,"x_max":747,"o":"m 747 135 l 747 0 l 100 0 l 100 987 l 743 987 l 743 852 l 271 852 l 271 575 l 678 575 l 678 442 l 271 442 l 271 135 l 747 135 m 659 1200 l 659 1096 l 198 1096 l 198 1200 l 659 1200 z "},"Ŋ":{"ha":970,"x_min":98,"x_max":876,"o":"m 98 987 l 268 987 l 706 275 l 706 987 l 876 987 l 876 -38 q 811 -230 876 -163 q 631 -296 746 -296 q 586 -294 608 -296 q 541 -285 565 -292 l 551 -153 q 583 -159 564 -157 q 618 -161 602 -161 q 683 -129 660 -161 q 706 -38 706 -97 l 706 0 l 268 713 l 268 0 l 98 0 l 98 987 z "},"Ę":{"ha":785,"x_min":100,"x_max":747,"o":"m 747 135 l 747 0 l 667 0 q 589 -63 620 -31 q 557 -136 557 -95 q 568 -169 557 -156 q 606 -182 579 -182 q 642 -177 627 -182 q 666 -166 656 -171 l 682 -260 q 638 -280 665 -271 q 572 -290 612 -290 q 470 -256 512 -290 q 429 -155 429 -221 q 450 -75 429 -114 q 520 0 471 -35 l 100 0 l 100 987 l 743 987 l 743 852 l 271 852 l 271 575 l 678 575 l 678 442 l 271 442 l 271 135 l 747 135 z "},"Ð":{"ha":927,"x_min":16,"x_max":857,"o":"m 408 0 l 121 0 l 121 444 l 16 444 l 16 556 l 121 556 l 121 987 l 414 987 q 645 929 545 987 q 801 766 745 871 q 857 519 857 661 l 857 467 q 801 220 857 326 q 644 58 745 115 q 408 0 543 0 m 471 556 l 471 444 l 291 444 l 291 135 l 408 135 q 616 223 545 135 q 686 467 686 312 l 686 521 q 616 766 686 681 q 414 852 545 852 l 291 852 l 291 556 l 471 556 z "},"€":{"ha":789,"x_min":62,"x_max":729,"o":"m 572 121 q 709 142 646 121 l 729 7 q 647 -8 690 -3 q 560 -14 604 -14 q 366 28 451 -14 q 232 153 281 70 q 180 359 182 235 l 62 359 l 62 452 l 180 452 l 180 541 l 62 541 l 62 634 l 180 634 q 237 837 186 755 q 373 960 288 919 q 568 1001 458 1001 q 649 995 610 1001 q 729 980 688 989 l 709 844 q 645 860 680 853 q 574 866 610 866 q 416 810 475 866 q 351 634 357 755 l 593 634 l 593 541 l 350 541 l 350 452 l 593 452 l 593 359 l 350 359 q 414 176 353 231 q 572 121 474 121 z "},"F":{"ha":765,"x_min":100,"x_max":730,"o":"m 673 555 l 673 420 l 271 420 l 271 0 l 100 0 l 100 987 l 730 987 l 730 852 l 271 852 l 271 555 l 673 555 z "},"G":{"ha":946,"x_min":73,"x_max":859,"o":"m 859 505 l 859 127 q 793 67 838 100 q 676 10 749 34 q 493 -14 602 -14 q 274 42 369 -14 q 126 204 180 98 q 73 460 73 310 l 73 528 q 122 784 73 678 q 262 945 171 889 q 479 1001 354 1001 q 681 961 601 1001 q 804 849 761 920 q 859 686 847 778 l 692 686 q 632 815 679 764 q 482 866 585 866 q 304 778 363 866 q 245 530 245 690 l 245 460 q 312 209 245 297 q 500 121 380 121 q 629 142 587 121 q 689 182 671 163 l 689 378 l 484 378 l 484 505 l 859 505 z "},"Ğ":{"ha":946,"x_min":73,"x_max":859,"o":"m 859 505 l 859 127 q 793 67 838 100 q 676 10 749 34 q 493 -14 602 -14 q 274 42 369 -14 q 126 204 180 98 q 73 460 73 310 l 73 528 q 122 784 73 678 q 262 945 171 889 q 479 1001 354 1001 q 681 961 601 1001 q 804 849 761 920 q 859 686 847 778 l 692 686 q 632 815 679 764 q 482 866 585 866 q 304 778 363 866 q 245 530 245 690 l 245 460 q 312 209 245 297 q 500 121 380 121 q 629 142 587 121 q 689 182 671 163 l 689 378 l 484 378 l 484 505 l 859 505 m 564 1249 l 686 1249 q 626 1112 686 1165 q 466 1058 567 1058 q 304 1112 363 1058 q 245 1249 245 1165 l 366 1249 q 389 1183 366 1212 q 466 1154 411 1154 q 542 1183 519 1154 q 564 1249 564 1212 z "},"Ĝ":{"ha":946,"x_min":73,"x_max":859,"o":"m 859 505 l 859 127 q 793 67 838 100 q 676 10 749 34 q 493 -14 602 -14 q 274 42 369 -14 q 126 204 180 98 q 73 460 73 310 l 73 528 q 122 784 73 678 q 262 945 171 889 q 479 1001 354 1001 q 681 961 601 1001 q 804 849 761 920 q 859 686 847 778 l 692 686 q 632 815 679 764 q 482 866 585 866 q 304 778 363 866 q 245 530 245 690 l 245 460 q 312 209 245 297 q 500 121 380 121 q 629 142 587 121 q 689 182 671 163 l 689 378 l 484 378 l 484 505 l 859 505 m 513 1266 l 701 1079 l 701 1072 l 569 1072 l 465 1178 l 361 1072 l 232 1072 l 232 1080 l 417 1266 l 513 1266 z "},"Ģ":{"ha":946,"x_min":73,"x_max":859,"o":"m 859 505 l 859 127 q 793 67 838 100 q 676 10 749 34 q 493 -14 602 -14 q 274 42 369 -14 q 126 204 180 98 q 73 460 73 310 l 73 528 q 122 784 73 678 q 262 945 171 889 q 479 1001 354 1001 q 681 961 601 1001 q 804 849 761 920 q 859 686 847 778 l 692 686 q 632 815 679 764 q 482 866 585 866 q 304 778 363 866 q 245 530 245 690 l 245 460 q 312 209 245 297 q 500 121 380 121 q 629 142 587 121 q 689 182 671 163 l 689 378 l 484 378 l 484 505 l 859 505 m 560 -75 l 560 -125 q 534 -248 560 -184 q 463 -354 508 -312 l 378 -303 q 415 -224 401 -265 q 429 -132 429 -184 l 429 -75 l 560 -75 z "},"H":{"ha":985,"x_min":100,"x_max":884,"o":"m 271 987 l 271 575 l 714 575 l 714 987 l 884 987 l 884 0 l 714 0 l 714 440 l 271 440 l 271 0 l 100 0 l 100 987 l 271 987 z "},"Ħ":{"ha":987,"x_min":21,"x_max":974,"o":"m 274 987 l 274 810 l 718 810 l 718 987 l 888 987 l 888 810 l 974 810 l 974 703 l 888 703 l 888 0 l 718 0 l 718 440 l 274 440 l 274 0 l 104 0 l 104 703 l 21 703 l 21 810 l 104 810 l 104 987 l 274 987 m 274 575 l 718 575 l 718 703 l 274 703 l 274 575 z "},"Ĥ":{"ha":985,"x_min":100,"x_max":884,"o":"m 271 987 l 271 575 l 714 575 l 714 987 l 884 987 l 884 0 l 714 0 l 714 440 l 271 440 l 271 0 l 100 0 l 100 987 l 271 987 m 535 1257 l 723 1070 l 723 1063 l 591 1063 l 487 1169 l 383 1063 l 254 1063 l 254 1072 l 439 1257 l 535 1257 z "},"I":{"ha":393,"x_min":112,"x_max":282,"o":"m 282 987 l 282 0 l 112 0 l 112 987 l 282 987 z "},"Ĳ":{"ha":1164,"x_min":112,"x_max":1069,"o":"m 282 987 l 282 0 l 112 0 l 112 987 l 282 987 m 900 296 l 900 987 l 1069 987 l 1069 296 q 1027 129 1069 198 q 913 23 985 60 q 748 -14 840 -14 q 581 18 654 -14 q 467 116 508 50 q 425 283 425 182 l 596 283 q 637 159 596 196 q 748 121 679 121 q 857 166 814 121 q 900 296 900 211 z "},"Í":{"ha":393,"x_min":112,"x_max":431,"o":"m 282 987 l 282 0 l 112 0 l 112 987 l 282 987 m 115 1053 l 247 1257 l 431 1257 l 247 1053 l 115 1053 z "},"Ĭ":{"ha":393,"x_min":-24,"x_max":417,"o":"m 282 987 l 282 0 l 112 0 l 112 987 l 282 987 m 296 1240 l 417 1240 q 358 1103 417 1156 q 197 1049 298 1049 q 36 1103 95 1049 q -24 1240 -24 1156 l 98 1240 q 120 1174 98 1203 q 197 1145 142 1145 q 273 1174 250 1145 q 296 1240 296 1203 z "},"Î":{"ha":393,"x_min":-37,"x_max":433,"o":"m 282 987 l 282 0 l 112 0 l 112 987 l 282 987 m 245 1257 l 433 1070 l 433 1063 l 300 1063 l 197 1169 l 93 1063 l -37 1063 l -37 1072 l 149 1257 l 245 1257 z "},"Ï":{"ha":393,"x_min":-45,"x_max":439,"o":"m 282 987 l 282 0 l 112 0 l 112 987 l 282 987 m -45 1144 q -22 1200 -45 1177 q 39 1223 1 1223 q 101 1200 78 1223 q 124 1144 124 1177 q 101 1089 124 1112 q 39 1066 78 1066 q -22 1089 1 1066 q -45 1144 -45 1112 m 269 1143 q 292 1199 269 1177 q 354 1222 315 1222 q 415 1199 392 1222 q 439 1143 439 1177 q 415 1088 439 1110 q 354 1065 392 1065 q 292 1088 315 1065 q 269 1143 269 1110 z "},"İ":{"ha":393,"x_min":108,"x_max":285,"o":"m 282 987 l 282 0 l 112 0 l 112 987 l 282 987 m 108 1152 q 131 1210 108 1187 q 196 1234 155 1234 q 261 1210 237 1234 q 285 1152 285 1187 q 261 1093 285 1116 q 196 1070 237 1070 q 131 1093 155 1070 q 108 1152 108 1116 z "},"Ì":{"ha":393,"x_min":-36,"x_max":282,"o":"m 282 987 l 282 0 l 112 0 l 112 987 l 282 987 m 149 1257 l 281 1053 l 145 1053 l -36 1257 l 149 1257 z "},"Ī":{"ha":393,"x_min":-32,"x_max":429,"o":"m 282 987 l 282 0 l 112 0 l 112 987 l 282 987 m 429 1200 l 429 1096 l -32 1096 l -32 1200 l 429 1200 z "},"Į":{"ha":393,"x_min":16,"x_max":282,"o":"m 282 987 l 282 0 l 112 0 l 112 987 l 282 987 m 177 43 l 255 4 q 177 -59 208 -26 q 146 -132 146 -91 q 156 -165 146 -152 q 194 -178 167 -178 q 230 -173 214 -178 q 254 -162 245 -167 l 270 -256 q 227 -276 253 -267 q 159 -286 200 -286 q 58 -252 100 -286 q 16 -151 16 -217 q 53 -48 16 -98 q 177 43 89 3 z "},"Ĩ":{"ha":393,"x_min":-52,"x_max":445,"o":"m 282 987 l 282 0 l 112 0 l 112 987 l 282 987 m 345 1249 l 445 1241 q 402 1118 445 1167 q 295 1069 359 1069 q 223 1084 250 1069 q 172 1115 196 1100 q 111 1131 147 1131 q 67 1112 85 1131 q 49 1061 49 1093 l -52 1066 q -9 1190 -52 1139 q 98 1240 34 1240 q 164 1224 136 1240 q 220 1194 193 1209 q 283 1178 248 1178 q 327 1198 309 1178 q 345 1249 345 1217 z "},"J":{"ha":772,"x_min":32,"x_max":676,"o":"m 507 296 l 507 987 l 676 987 l 676 296 q 634 129 676 198 q 519 23 592 60 q 355 -14 447 -14 q 188 18 260 -14 q 73 116 115 50 q 32 283 32 182 l 203 283 q 244 159 203 196 q 355 121 286 121 q 464 166 421 121 q 507 296 507 211 z "},"Ĵ":{"ha":772,"x_min":32,"x_max":816,"o":"m 507 296 l 507 987 l 676 987 l 676 296 q 634 129 676 198 q 519 23 592 60 q 355 -14 447 -14 q 188 18 260 -14 q 73 116 115 50 q 32 283 32 182 l 203 283 q 244 159 203 196 q 355 121 286 121 q 464 166 421 121 q 507 296 507 211 m 628 1251 l 816 1064 l 816 1057 l 684 1057 l 580 1163 l 476 1057 l 347 1057 l 347 1065 l 532 1251 l 628 1251 z "},"K":{"ha":878,"x_min":100,"x_max":883,"o":"m 681 0 l 384 427 l 271 307 l 271 0 l 100 0 l 100 987 l 271 987 l 271 519 l 369 640 l 656 987 l 864 987 l 496 551 l 883 0 l 681 0 z "},"Ķ":{"ha":878,"x_min":100,"x_max":883,"o":"m 681 0 l 384 427 l 271 307 l 271 0 l 100 0 l 100 987 l 271 987 l 271 519 l 369 640 l 656 987 l 864 987 l 496 551 l 883 0 l 681 0 m 510 -18 l 510 -69 q 484 -192 510 -128 q 412 -298 458 -256 l 328 -247 q 365 -168 351 -209 q 378 -75 378 -127 l 378 -18 l 510 -18 z "},"L":{"ha":750,"x_min":100,"x_max":719,"o":"m 719 135 l 719 0 l 100 0 l 100 987 l 271 987 l 271 135 l 719 135 z "},"Ĺ":{"ha":750,"x_min":100,"x_max":719,"o":"m 719 135 l 719 0 l 100 0 l 100 987 l 271 987 l 271 135 l 719 135 m 105 1046 l 237 1250 l 422 1250 l 237 1046 l 105 1046 z "},"Ľ":{"ha":750,"x_min":100,"x_max":719,"o":"m 719 135 l 719 0 l 100 0 l 100 987 l 271 987 l 271 135 l 719 135 m 585 988 l 585 937 q 559 814 585 878 q 488 709 533 751 l 403 760 q 440 838 427 798 q 454 931 454 879 l 454 988 l 585 988 z "},"Ļ":{"ha":750,"x_min":100,"x_max":719,"o":"m 719 135 l 719 0 l 100 0 l 100 987 l 271 987 l 271 135 l 719 135 m 479 -64 l 479 -115 q 453 -237 479 -174 q 382 -343 427 -301 l 297 -292 q 334 -214 321 -254 q 348 -121 348 -173 l 348 -64 l 479 -64 z "},"Ŀ":{"ha":750,"x_min":100,"x_max":719,"o":"m 719 135 l 719 0 l 100 0 l 100 987 l 271 987 l 271 135 l 719 135 m 400 551 q 424 609 400 586 q 488 633 447 633 q 553 609 530 633 q 577 551 577 586 q 553 492 577 515 q 488 469 530 469 q 424 492 447 469 q 400 551 400 515 z "},"Ł":{"ha":762,"x_min":22,"x_max":731,"o":"m 731 135 l 731 0 l 113 0 l 113 441 l 22 414 l 22 512 l 113 539 l 113 987 l 282 987 l 282 590 l 444 639 l 444 541 l 282 492 l 282 135 l 731 135 z "},"M":{"ha":1215,"x_min":100,"x_max":1114,"o":"m 100 987 l 321 987 l 607 226 l 892 987 l 1114 987 l 1114 0 l 943 0 l 943 328 l 960 768 l 667 0 l 546 0 l 253 768 l 270 328 l 270 0 l 100 0 l 100 987 z "},"N":{"ha":985,"x_min":100,"x_max":884,"o":"m 884 987 l 884 0 l 713 0 l 271 707 l 271 0 l 100 0 l 100 987 l 271 987 l 715 279 l 715 987 l 884 987 z "},"Ń":{"ha":985,"x_min":100,"x_max":884,"o":"m 884 987 l 884 0 l 713 0 l 271 707 l 271 0 l 100 0 l 100 987 l 271 987 l 715 279 l 715 987 l 884 987 m 410 1048 l 543 1253 l 727 1253 l 543 1048 l 410 1048 z "},"Ň":{"ha":985,"x_min":100,"x_max":884,"o":"m 884 987 l 884 0 l 713 0 l 271 707 l 271 0 l 100 0 l 100 987 l 271 987 l 715 279 l 715 987 l 884 987 m 391 1253 l 492 1146 l 593 1253 l 734 1253 l 734 1245 l 544 1057 l 441 1057 l 252 1246 l 252 1253 l 391 1253 z "},"Ņ":{"ha":985,"x_min":100,"x_max":884,"o":"m 884 987 l 884 0 l 713 0 l 271 707 l 271 0 l 100 0 l 100 987 l 271 987 l 715 279 l 715 987 l 884 987 m 556 -66 l 556 -117 q 530 -240 556 -176 q 458 -346 504 -304 l 374 -295 q 411 -216 397 -257 q 425 -123 425 -176 l 425 -66 l 556 -66 z "},"Ñ":{"ha":985,"x_min":100,"x_max":884,"o":"m 884 987 l 884 0 l 713 0 l 271 707 l 271 0 l 100 0 l 100 987 l 271 987 l 715 279 l 715 987 l 884 987 m 641 1244 l 741 1236 q 698 1113 741 1162 q 591 1064 655 1064 q 519 1080 546 1064 q 467 1111 492 1095 q 406 1126 443 1126 q 362 1107 380 1126 q 345 1056 345 1088 l 244 1061 q 287 1185 244 1135 q 394 1235 330 1235 q 460 1220 431 1235 q 516 1189 488 1204 q 578 1173 544 1173 q 623 1193 604 1173 q 641 1244 641 1213 z "},"O":{"ha":957,"x_min":68,"x_max":888,"o":"m 888 521 l 888 467 q 837 210 888 317 q 693 44 785 102 q 479 -14 602 -14 q 266 44 359 -14 q 121 210 174 102 q 68 467 68 317 l 68 521 q 121 778 68 670 q 265 943 173 885 q 478 1001 357 1001 q 692 943 600 1001 q 836 778 785 885 q 888 521 888 670 m 718 467 l 718 522 q 654 774 718 687 q 478 862 591 862 q 303 774 366 862 q 239 522 239 687 l 239 467 q 303 213 239 301 q 479 125 368 125 q 655 213 593 125 q 718 467 718 301 z "},"Œ":{"ha":1335,"x_min":68,"x_max":1251,"o":"m 463 1002 q 565 997 515 1002 q 661 987 616 993 l 1247 987 l 1247 852 l 774 852 l 774 575 l 1182 575 l 1182 442 l 774 442 l 774 135 l 1251 135 l 1251 0 l 661 0 q 566 -9 616 -5 q 464 -14 516 -14 q 257 37 347 -14 q 118 180 168 88 q 68 391 68 271 l 68 597 q 118 808 68 717 q 256 950 168 899 q 463 1002 345 1002 m 231 391 q 294 186 231 256 q 464 116 357 116 q 536 118 500 116 q 604 125 571 121 l 604 862 q 535 869 571 867 q 463 871 500 871 q 294 803 356 871 q 231 598 231 734 l 231 391 z "},"Ó":{"ha":957,"x_min":68,"x_max":888,"o":"m 888 521 l 888 467 q 837 210 888 317 q 693 44 785 102 q 479 -14 602 -14 q 266 44 359 -14 q 121 210 174 102 q 68 467 68 317 l 68 521 q 121 778 68 670 q 265 943 173 885 q 478 1001 357 1001 q 692 943 600 1001 q 836 778 785 885 q 888 521 888 670 m 718 467 l 718 522 q 654 774 718 687 q 478 862 591 862 q 303 774 366 862 q 239 522 239 687 l 239 467 q 303 213 239 301 q 479 125 368 125 q 655 213 593 125 q 718 467 718 301 m 397 1049 l 529 1253 l 713 1253 l 529 1049 l 397 1049 z "},"Ŏ":{"ha":957,"x_min":68,"x_max":888,"o":"m 888 521 l 888 467 q 837 210 888 317 q 693 44 785 102 q 479 -14 602 -14 q 266 44 359 -14 q 121 210 174 102 q 68 467 68 317 l 68 521 q 121 778 68 670 q 265 943 173 885 q 478 1001 357 1001 q 692 943 600 1001 q 836 778 785 885 q 888 521 888 670 m 718 467 l 718 522 q 654 774 718 687 q 478 862 591 862 q 303 774 366 862 q 239 522 239 687 l 239 467 q 303 213 239 301 q 479 125 368 125 q 655 213 593 125 q 718 467 718 301 m 578 1236 l 699 1236 q 640 1099 699 1152 q 479 1045 581 1045 q 318 1099 377 1045 q 258 1236 258 1152 l 380 1236 q 402 1170 380 1199 q 479 1141 425 1141 q 555 1170 532 1141 q 578 1236 578 1199 z "},"Ô":{"ha":957,"x_min":68,"x_max":888,"o":"m 888 521 l 888 467 q 837 210 888 317 q 693 44 785 102 q 479 -14 602 -14 q 266 44 359 -14 q 121 210 174 102 q 68 467 68 317 l 68 521 q 121 778 68 670 q 265 943 173 885 q 478 1001 357 1001 q 692 943 600 1001 q 836 778 785 885 q 888 521 888 670 m 718 467 l 718 522 q 654 774 718 687 q 478 862 591 862 q 303 774 366 862 q 239 522 239 687 l 239 467 q 303 213 239 301 q 479 125 368 125 q 655 213 593 125 q 718 467 718 301 m 527 1253 l 715 1066 l 715 1059 l 583 1059 l 479 1165 l 375 1059 l 245 1059 l 245 1067 l 431 1253 l 527 1253 z "},"Ö":{"ha":957,"x_min":68,"x_max":888,"o":"m 888 521 l 888 467 q 837 210 888 317 q 693 44 785 102 q 479 -14 602 -14 q 266 44 359 -14 q 121 210 174 102 q 68 467 68 317 l 68 521 q 121 778 68 670 q 265 943 173 885 q 478 1001 357 1001 q 692 943 600 1001 q 836 778 785 885 q 888 521 888 670 m 718 467 l 718 522 q 654 774 718 687 q 478 862 591 862 q 303 774 366 862 q 239 522 239 687 l 239 467 q 303 213 239 301 q 479 125 368 125 q 655 213 593 125 q 718 467 718 301 m 238 1140 q 261 1196 238 1173 q 322 1219 284 1219 q 384 1196 361 1219 q 407 1140 407 1173 q 384 1085 407 1107 q 322 1062 361 1062 q 261 1085 284 1062 q 238 1140 238 1107 m 552 1139 q 575 1195 552 1173 q 637 1218 598 1218 q 698 1195 675 1218 q 722 1139 722 1173 q 698 1084 722 1106 q 637 1061 675 1061 q 575 1084 598 1061 q 552 1139 552 1106 z "},"Ò":{"ha":957,"x_min":68,"x_max":888,"o":"m 888 521 l 888 467 q 837 210 888 317 q 693 44 785 102 q 479 -14 602 -14 q 266 44 359 -14 q 121 210 174 102 q 68 467 68 317 l 68 521 q 121 778 68 670 q 265 943 173 885 q 478 1001 357 1001 q 692 943 600 1001 q 836 778 785 885 q 888 521 888 670 m 718 467 l 718 522 q 654 774 718 687 q 478 862 591 862 q 303 774 366 862 q 239 522 239 687 l 239 467 q 303 213 239 301 q 479 125 368 125 q 655 213 593 125 q 718 467 718 301 m 431 1253 l 564 1049 l 427 1049 l 246 1253 l 431 1253 z "},"Ơ":{"ha":966,"x_min":62,"x_max":987,"o":"m 882 521 l 882 467 q 830 210 882 317 q 687 44 779 102 q 473 -14 595 -14 q 259 44 352 -14 q 114 210 167 102 q 62 467 62 317 l 62 521 q 114 778 62 670 q 258 943 166 885 q 471 1001 351 1001 q 758 884 648 1001 q 841 941 819 892 q 864 1071 864 990 l 987 1071 q 946 889 987 960 q 821 795 905 818 q 866 670 850 739 q 882 521 882 602 m 711 467 l 711 522 q 648 774 711 687 q 471 862 585 862 q 296 774 360 862 q 233 522 233 687 l 233 467 q 297 213 233 301 q 473 125 361 125 q 649 213 587 125 q 711 467 711 301 z "},"Ő":{"ha":957,"x_min":68,"x_max":888,"o":"m 888 521 l 888 467 q 837 210 888 317 q 693 44 785 102 q 479 -14 602 -14 q 266 44 359 -14 q 121 210 174 102 q 68 467 68 317 l 68 521 q 121 778 68 670 q 265 943 173 885 q 478 1001 357 1001 q 692 943 600 1001 q 836 778 785 885 q 888 521 888 670 m 718 467 l 718 522 q 654 774 718 687 q 478 862 591 862 q 303 774 366 862 q 239 522 239 687 l 239 467 q 303 213 239 301 q 479 125 368 125 q 655 213 593 125 q 718 467 718 301 m 507 1048 l 661 1253 l 819 1253 l 638 1048 l 507 1048 m 290 1048 l 412 1253 l 566 1253 l 414 1048 l 290 1048 z "},"Ō":{"ha":957,"x_min":68,"x_max":888,"o":"m 888 521 l 888 467 q 837 210 888 317 q 693 44 785 102 q 479 -14 602 -14 q 266 44 359 -14 q 121 210 174 102 q 68 467 68 317 l 68 521 q 121 778 68 670 q 265 943 173 885 q 478 1001 357 1001 q 692 943 600 1001 q 836 778 785 885 q 888 521 888 670 m 718 467 l 718 522 q 654 774 718 687 q 478 862 591 862 q 303 774 366 862 q 239 522 239 687 l 239 467 q 303 213 239 301 q 479 125 368 125 q 655 213 593 125 q 718 467 718 301 m 711 1197 l 711 1093 l 251 1093 l 251 1197 l 711 1197 z "},"Ω":{"ha":928,"x_min":73,"x_max":843,"o":"m 81 0 l 81 136 l 233 136 q 118 299 162 201 q 73 509 73 397 l 73 577 q 122 798 73 703 q 257 947 170 893 q 457 1001 343 1001 q 659 947 572 1001 q 794 798 745 893 q 843 577 843 703 l 843 509 q 799 299 843 397 q 685 136 755 201 l 835 136 l 835 0 l 500 0 l 500 139 q 615 250 570 161 q 660 509 660 340 l 660 578 q 606 792 660 719 q 457 865 551 865 q 311 792 365 865 q 257 578 257 719 l 257 509 q 303 249 257 338 q 421 139 349 160 l 421 0 l 81 0 z "},"Ø":{"ha":956,"x_min":71,"x_max":891,"o":"m 891 521 l 891 467 q 840 210 891 317 q 696 44 788 102 q 482 -14 604 -14 q 280 38 369 -14 l 218 -64 l 105 -64 l 203 97 q 106 253 140 159 q 71 467 71 347 l 71 521 q 123 778 71 670 q 268 943 176 885 q 481 1001 360 1001 q 709 934 612 1001 l 767 1029 l 879 1029 l 781 868 q 862 718 833 806 q 891 521 891 631 m 242 467 q 289 240 242 327 l 631 805 q 481 862 572 862 q 306 774 369 862 q 242 522 242 687 l 242 467 m 720 467 l 720 522 q 689 715 720 636 l 355 163 q 482 125 409 125 q 658 213 596 125 q 720 467 720 301 z "},"Ǿ":{"ha":956,"x_min":71,"x_max":891,"o":"m 891 521 l 891 467 q 840 210 891 317 q 696 44 788 102 q 482 -14 604 -14 q 280 38 369 -14 l 218 -64 l 105 -64 l 203 97 q 106 253 140 159 q 71 467 71 347 l 71 521 q 123 778 71 670 q 268 943 176 885 q 481 1001 360 1001 q 709 934 612 1001 l 767 1029 l 879 1029 l 781 868 q 862 718 833 806 q 891 521 891 631 m 242 467 q 289 240 242 327 l 631 805 q 481 862 572 862 q 306 774 369 862 q 242 522 242 687 l 242 467 m 720 467 l 720 522 q 689 715 720 636 l 355 163 q 482 125 409 125 q 658 213 596 125 q 720 467 720 301 m 403 1098 l 535 1302 l 720 1302 l 535 1098 l 403 1098 z "},"Õ":{"ha":957,"x_min":68,"x_max":888,"o":"m 888 521 l 888 467 q 837 210 888 317 q 693 44 785 102 q 479 -14 602 -14 q 266 44 359 -14 q 121 210 174 102 q 68 467 68 317 l 68 521 q 121 778 68 670 q 265 943 173 885 q 478 1001 357 1001 q 692 943 600 1001 q 836 778 785 885 q 888 521 888 670 m 718 467 l 718 522 q 654 774 718 687 q 478 862 591 862 q 303 774 366 862 q 239 522 239 687 l 239 467 q 303 213 239 301 q 479 125 368 125 q 655 213 593 125 q 718 467 718 301 m 627 1245 l 727 1238 q 684 1115 727 1164 q 577 1065 642 1065 q 505 1081 532 1065 q 454 1112 478 1097 q 393 1127 429 1127 q 349 1108 367 1127 q 331 1057 331 1089 l 231 1063 q 273 1186 231 1136 q 380 1236 316 1236 q 446 1221 418 1236 q 503 1190 475 1206 q 565 1175 530 1175 q 609 1194 591 1175 q 627 1245 627 1214 z "},"P":{"ha":886,"x_min":100,"x_max":835,"o":"m 475 368 l 271 368 l 271 0 l 100 0 l 100 987 l 475 987 q 670 947 590 987 q 792 836 750 907 q 835 674 835 765 q 741 450 835 531 q 475 368 647 368 m 475 852 l 271 852 l 271 503 l 475 503 q 620 551 576 503 q 664 673 664 599 q 645 761 664 720 q 584 827 625 802 q 475 852 543 852 z "},"Q":{"ha":957,"x_min":65,"x_max":885,"o":"m 885 521 l 885 467 q 840 223 885 327 q 713 60 794 119 l 883 -75 l 772 -172 l 564 -5 q 476 -14 522 -14 q 263 44 355 -14 q 118 210 170 102 q 65 467 65 317 l 65 521 q 117 778 65 670 q 262 943 170 885 q 475 1001 354 1001 q 690 943 597 1001 q 833 778 782 885 q 885 521 885 670 m 714 467 l 714 522 q 651 774 714 687 q 475 862 589 862 q 300 774 363 862 q 236 522 236 687 l 236 467 q 300 213 236 301 q 476 125 365 125 q 652 213 590 125 q 714 467 714 301 z "},"R":{"ha":874,"x_min":100,"x_max":846,"o":"m 664 0 l 465 381 l 271 381 l 271 0 l 100 0 l 100 987 l 450 987 q 712 911 618 987 q 806 690 806 836 q 757 523 806 590 q 623 420 708 455 l 846 9 l 846 0 l 664 0 m 450 852 l 271 852 l 271 516 l 452 516 q 590 563 544 516 q 636 682 636 610 q 591 806 636 760 q 450 852 545 852 z "},"Ŕ":{"ha":874,"x_min":100,"x_max":846,"o":"m 664 0 l 465 381 l 271 381 l 271 0 l 100 0 l 100 987 l 450 987 q 712 911 618 987 q 806 690 806 836 q 757 523 806 590 q 623 420 708 455 l 846 9 l 846 0 l 664 0 m 450 852 l 271 852 l 271 516 l 452 516 q 590 563 544 516 q 636 682 636 610 q 591 806 636 760 q 450 852 545 852 m 327 1048 l 459 1253 l 644 1253 l 459 1048 l 327 1048 z "},"Ř":{"ha":874,"x_min":100,"x_max":846,"o":"m 664 0 l 465 381 l 271 381 l 271 0 l 100 0 l 100 987 l 450 987 q 712 911 618 987 q 806 690 806 836 q 757 523 806 590 q 623 420 708 455 l 846 9 l 846 0 l 664 0 m 450 852 l 271 852 l 271 516 l 452 516 q 590 563 544 516 q 636 682 636 610 q 591 806 636 760 q 450 852 545 852 m 307 1253 l 409 1146 l 510 1253 l 650 1253 l 650 1245 l 460 1057 l 357 1057 l 168 1246 l 168 1253 l 307 1253 z "},"Ŗ":{"ha":874,"x_min":100,"x_max":846,"o":"m 664 0 l 465 381 l 271 381 l 271 0 l 100 0 l 100 987 l 450 987 q 712 911 618 987 q 806 690 806 836 q 757 523 806 590 q 623 420 708 455 l 846 9 l 846 0 l 664 0 m 450 852 l 271 852 l 271 516 l 452 516 q 590 563 544 516 q 636 682 636 610 q 591 806 636 760 q 450 852 545 852 m 481 -64 l 481 -115 q 455 -237 481 -174 q 383 -343 429 -301 l 298 -292 q 336 -214 322 -254 q 349 -121 349 -173 l 349 -64 l 481 -64 z "},"S":{"ha":841,"x_min":51,"x_max":791,"o":"m 620 254 q 603 324 620 295 q 539 378 585 353 q 408 429 494 402 q 240 496 314 457 q 124 592 167 535 q 81 729 81 648 q 126 870 81 809 q 250 966 170 931 q 433 1001 329 1001 q 623 960 544 1001 q 746 851 703 920 q 789 700 789 783 l 620 700 q 573 820 620 772 q 431 867 526 867 q 296 827 340 867 q 252 729 252 787 q 304 636 252 673 q 465 568 356 600 q 710 447 629 519 q 791 256 791 374 q 747 112 791 172 q 624 19 703 52 q 439 -14 545 -14 q 299 6 368 -14 q 174 64 230 25 q 84 161 117 102 q 51 298 51 220 l 221 298 q 250 195 221 235 q 329 138 279 156 q 439 119 378 119 q 574 157 528 119 q 620 254 620 194 z "},"Ś":{"ha":841,"x_min":51,"x_max":791,"o":"m 620 254 q 603 324 620 295 q 539 378 585 353 q 408 429 494 402 q 240 496 314 457 q 124 592 167 535 q 81 729 81 648 q 126 870 81 809 q 250 966 170 931 q 433 1001 329 1001 q 623 960 544 1001 q 746 851 703 920 q 789 700 789 783 l 620 700 q 573 820 620 772 q 431 867 526 867 q 296 827 340 867 q 252 729 252 787 q 304 636 252 673 q 465 568 356 600 q 710 447 629 519 q 791 256 791 374 q 747 112 791 172 q 624 19 703 52 q 439 -14 545 -14 q 299 6 368 -14 q 174 64 230 25 q 84 161 117 102 q 51 298 51 220 l 221 298 q 250 195 221 235 q 329 138 279 156 q 439 119 378 119 q 574 157 528 119 q 620 254 620 194 m 350 1049 l 482 1253 l 667 1253 l 482 1049 l 350 1049 z "},"Š":{"ha":841,"x_min":51,"x_max":791,"o":"m 620 254 q 603 324 620 295 q 539 378 585 353 q 408 429 494 402 q 240 496 314 457 q 124 592 167 535 q 81 729 81 648 q 126 870 81 809 q 250 966 170 931 q 433 1001 329 1001 q 623 960 544 1001 q 746 851 703 920 q 789 700 789 783 l 620 700 q 573 820 620 772 q 431 867 526 867 q 296 827 340 867 q 252 729 252 787 q 304 636 252 673 q 465 568 356 600 q 710 447 629 519 q 791 256 791 374 q 747 112 791 172 q 624 19 703 52 q 439 -14 545 -14 q 299 6 368 -14 q 174 64 230 25 q 84 161 117 102 q 51 298 51 220 l 221 298 q 250 195 221 235 q 329 138 279 156 q 439 119 378 119 q 574 157 528 119 q 620 254 620 194 m 330 1253 l 432 1147 l 533 1253 l 673 1253 l 673 1246 l 484 1058 l 380 1058 l 191 1246 l 191 1253 l 330 1253 z "},"Ş":{"ha":841,"x_min":51,"x_max":791,"o":"m 620 254 q 603 324 620 295 q 539 378 585 353 q 408 429 494 402 q 240 496 314 457 q 124 592 167 535 q 81 729 81 648 q 126 870 81 809 q 250 966 170 931 q 433 1001 329 1001 q 623 960 544 1001 q 746 851 703 920 q 789 700 789 783 l 620 700 q 573 820 620 772 q 431 867 526 867 q 296 827 340 867 q 252 729 252 787 q 304 636 252 673 q 465 568 356 600 q 710 447 629 519 q 791 256 791 374 q 747 112 791 172 q 624 19 703 52 q 439 -14 545 -14 q 299 6 368 -14 q 174 64 230 25 q 84 161 117 102 q 51 298 51 220 l 221 298 q 250 195 221 235 q 329 138 279 156 q 439 119 378 119 q 574 157 528 119 q 620 254 620 194 m 376 2 l 498 2 l 490 -36 q 561 -69 528 -43 q 593 -153 593 -95 q 536 -263 593 -221 q 370 -305 479 -305 l 365 -213 q 431 -199 404 -213 q 458 -151 458 -184 q 434 -108 458 -120 q 355 -92 410 -96 l 376 2 z "},"Ə":{"ha":964,"x_min":58,"x_max":892,"o":"m 475 -14 q 245 42 338 -14 q 105 201 153 98 q 58 443 58 303 l 58 540 l 722 540 q 692 701 722 628 q 598 816 663 773 q 428 859 534 859 q 274 842 338 859 q 171 808 211 825 l 138 940 q 196 964 155 949 q 298 989 237 978 q 434 1001 359 1001 q 685 941 583 1001 q 839 777 787 882 q 892 534 892 671 l 892 451 q 836 209 892 314 q 686 45 781 104 q 475 -14 592 -14 m 475 128 q 601 165 549 128 q 684 266 654 202 q 720 408 714 329 l 227 408 l 227 385 q 251 256 227 314 q 330 163 275 197 q 475 128 385 128 z "},"Ŝ":{"ha":841,"x_min":51,"x_max":791,"o":"m 620 254 q 603 324 620 295 q 539 378 585 353 q 408 429 494 402 q 240 496 314 457 q 124 592 167 535 q 81 729 81 648 q 126 870 81 809 q 250 966 170 931 q 433 1001 329 1001 q 623 960 544 1001 q 746 851 703 920 q 789 700 789 783 l 620 700 q 573 820 620 772 q 431 867 526 867 q 296 827 340 867 q 252 729 252 787 q 304 636 252 673 q 465 568 356 600 q 710 447 629 519 q 791 256 791 374 q 747 112 791 172 q 624 19 703 52 q 439 -14 545 -14 q 299 6 368 -14 q 174 64 230 25 q 84 161 117 102 q 51 298 51 220 l 221 298 q 250 195 221 235 q 329 138 279 156 q 439 119 378 119 q 574 157 528 119 q 620 254 620 194 m 481 1253 l 669 1066 l 669 1059 l 536 1059 l 433 1165 l 329 1059 l 199 1059 l 199 1067 l 385 1253 l 481 1253 z "},"T":{"ha":846,"x_min":31,"x_max":817,"o":"m 817 987 l 817 852 l 507 852 l 507 0 l 338 0 l 338 852 l 31 852 l 31 987 l 817 987 z "},"Ŧ":{"ha":846,"x_min":31,"x_max":817,"o":"m 646 646 l 646 533 l 507 533 l 507 0 l 338 0 l 338 533 l 191 533 l 191 646 l 338 646 l 338 852 l 31 852 l 31 987 l 817 987 l 817 852 l 507 852 l 507 646 l 646 646 z "},"Ť":{"ha":846,"x_min":31,"x_max":817,"o":"m 817 987 l 817 852 l 507 852 l 507 0 l 338 0 l 338 852 l 31 852 l 31 987 l 817 987 m 319 1252 l 421 1145 l 522 1252 l 663 1252 l 663 1244 l 473 1057 l 370 1057 l 180 1245 l 180 1252 l 319 1252 z "},"Þ":{"ha":835,"x_min":101,"x_max":782,"o":"m 101 987 l 264 987 l 264 798 l 433 798 q 624 759 546 798 q 742 654 701 721 q 782 500 782 587 q 742 348 782 415 q 624 242 701 281 q 433 204 546 204 l 264 204 l 264 0 l 101 0 l 101 987 m 433 668 l 264 668 l 264 334 l 433 334 q 540 357 499 334 q 599 419 581 381 q 618 499 618 457 q 599 581 618 543 q 540 644 581 620 q 433 668 499 668 z "},"U":{"ha":909,"x_min":87,"x_max":824,"o":"m 654 987 l 824 987 l 824 328 q 775 139 824 215 q 643 25 726 63 q 456 -14 559 -14 q 266 25 349 -14 q 135 139 182 63 q 87 328 87 215 l 87 987 l 256 987 l 256 328 q 310 171 256 221 q 456 121 364 121 q 601 171 547 121 q 654 328 654 221 l 654 987 z "},"Ú":{"ha":909,"x_min":87,"x_max":824,"o":"m 654 987 l 824 987 l 824 328 q 775 139 824 215 q 643 25 726 63 q 456 -14 559 -14 q 266 25 349 -14 q 135 139 182 63 q 87 328 87 215 l 87 987 l 256 987 l 256 328 q 310 171 256 221 q 456 121 364 121 q 601 171 547 121 q 654 328 654 221 l 654 987 m 372 1048 l 505 1253 l 689 1253 l 505 1048 l 372 1048 z "},"Ŭ":{"ha":909,"x_min":87,"x_max":824,"o":"m 654 987 l 824 987 l 824 328 q 775 139 824 215 q 643 25 726 63 q 456 -14 559 -14 q 266 25 349 -14 q 135 139 182 63 q 87 328 87 215 l 87 987 l 256 987 l 256 328 q 310 171 256 221 q 456 121 364 121 q 601 171 547 121 q 654 328 654 221 l 654 987 m 553 1236 l 675 1236 q 615 1098 675 1152 q 455 1044 556 1044 q 293 1098 353 1044 q 234 1236 234 1152 l 355 1236 q 378 1169 355 1198 q 455 1140 400 1140 q 531 1169 508 1140 q 553 1236 553 1198 z "},"Û":{"ha":909,"x_min":87,"x_max":824,"o":"m 654 987 l 824 987 l 824 328 q 775 139 824 215 q 643 25 726 63 q 456 -14 559 -14 q 266 25 349 -14 q 135 139 182 63 q 87 328 87 215 l 87 987 l 256 987 l 256 328 q 310 171 256 221 q 456 121 364 121 q 601 171 547 121 q 654 328 654 221 l 654 987 m 503 1253 l 690 1065 l 690 1058 l 558 1058 l 454 1164 l 351 1058 l 221 1058 l 221 1067 l 406 1253 l 503 1253 z "},"Ü":{"ha":909,"x_min":87,"x_max":824,"o":"m 654 987 l 824 987 l 824 328 q 775 139 824 215 q 643 25 726 63 q 456 -14 559 -14 q 266 25 349 -14 q 135 139 182 63 q 87 328 87 215 l 87 987 l 256 987 l 256 328 q 310 171 256 221 q 456 121 364 121 q 601 171 547 121 q 654 328 654 221 l 654 987 m 213 1139 q 236 1195 213 1173 q 297 1218 259 1218 q 359 1195 336 1218 q 382 1139 382 1173 q 359 1084 382 1107 q 297 1061 336 1061 q 236 1084 259 1061 q 213 1139 213 1107 m 527 1139 q 550 1195 527 1172 q 612 1217 573 1217 q 673 1195 650 1217 q 696 1139 696 1172 q 673 1083 696 1105 q 612 1061 650 1061 q 550 1083 573 1061 q 527 1139 527 1105 z "},"Ù":{"ha":909,"x_min":87,"x_max":824,"o":"m 654 987 l 824 987 l 824 328 q 775 139 824 215 q 643 25 726 63 q 456 -14 559 -14 q 266 25 349 -14 q 135 139 182 63 q 87 328 87 215 l 87 987 l 256 987 l 256 328 q 310 171 256 221 q 456 121 364 121 q 601 171 547 121 q 654 328 654 221 l 654 987 m 407 1253 l 539 1048 l 403 1048 l 222 1253 l 407 1253 z "},"Ư":{"ha":979,"x_min":87,"x_max":1081,"o":"m 654 987 l 824 987 l 824 839 q 937 899 911 846 q 962 1043 962 951 l 1081 1043 q 1025 824 1081 902 q 824 739 968 746 l 824 328 q 775 139 824 215 q 643 25 726 63 q 456 -14 559 -14 q 266 25 349 -14 q 135 139 182 63 q 87 328 87 215 l 87 987 l 256 987 l 256 328 q 310 171 256 221 q 456 121 364 121 q 601 171 547 121 q 654 328 654 221 l 654 987 z "},"Ű":{"ha":909,"x_min":87,"x_max":824,"o":"m 654 987 l 824 987 l 824 328 q 775 139 824 215 q 643 25 726 63 q 456 -14 559 -14 q 266 25 349 -14 q 135 139 182 63 q 87 328 87 215 l 87 987 l 256 987 l 256 328 q 310 171 256 221 q 456 121 364 121 q 601 171 547 121 q 654 328 654 221 l 654 987 m 481 1047 l 636 1252 l 794 1252 l 613 1047 l 481 1047 m 264 1047 l 387 1252 l 541 1252 l 389 1047 l 264 1047 z "},"Ū":{"ha":909,"x_min":87,"x_max":824,"o":"m 654 987 l 824 987 l 824 328 q 775 139 824 215 q 643 25 726 63 q 456 -14 559 -14 q 266 25 349 -14 q 135 139 182 63 q 87 328 87 215 l 87 987 l 256 987 l 256 328 q 310 171 256 221 q 456 121 364 121 q 601 171 547 121 q 654 328 654 221 l 654 987 m 686 1196 l 686 1091 l 226 1091 l 226 1196 l 686 1196 z "},"Ų":{"ha":909,"x_min":87,"x_max":824,"o":"m 654 987 l 824 987 l 824 328 q 777 143 824 218 q 652 29 730 68 q 583 -30 610 1 q 556 -98 556 -60 q 567 -132 556 -119 q 604 -144 577 -144 q 640 -139 625 -144 q 665 -128 655 -133 l 680 -222 q 637 -242 663 -233 q 570 -252 610 -252 q 468 -218 510 -252 q 427 -117 427 -183 q 435 -65 427 -91 q 463 -14 444 -39 q 456 -14 459 -14 q 266 25 349 -14 q 135 139 182 63 q 87 328 87 215 l 87 987 l 256 987 l 256 328 q 310 171 256 221 q 456 121 364 121 q 601 171 547 121 q 654 328 654 221 l 654 987 z "},"Ů":{"ha":909,"x_min":87,"x_max":824,"o":"m 654 987 l 824 987 l 824 328 q 775 139 824 215 q 643 25 726 63 q 456 -14 559 -14 q 266 25 349 -14 q 135 139 182 63 q 87 328 87 215 l 87 987 l 256 987 l 256 328 q 310 171 256 221 q 456 121 364 121 q 601 171 547 121 q 654 328 654 221 l 654 987 m 307 1174 q 349 1273 307 1232 q 455 1314 391 1314 q 561 1273 518 1314 q 603 1174 603 1232 q 561 1076 603 1116 q 455 1037 518 1037 q 349 1076 391 1037 q 307 1174 307 1116 m 379 1174 q 400 1121 379 1144 q 455 1099 421 1099 q 510 1121 489 1099 q 530 1174 530 1143 q 510 1227 530 1204 q 455 1251 489 1251 q 400 1227 421 1251 q 379 1174 379 1204 z "},"Ũ":{"ha":909,"x_min":87,"x_max":824,"o":"m 654 987 l 824 987 l 824 328 q 775 139 824 215 q 643 25 726 63 q 456 -14 559 -14 q 266 25 349 -14 q 135 139 182 63 q 87 328 87 215 l 87 987 l 256 987 l 256 328 q 310 171 256 221 q 456 121 364 121 q 601 171 547 121 q 654 328 654 221 l 654 987 m 603 1244 l 703 1236 q 660 1113 703 1162 q 553 1064 617 1064 q 481 1080 508 1064 q 429 1111 454 1095 q 368 1126 405 1126 q 325 1107 342 1126 q 307 1056 307 1088 l 206 1061 q 249 1185 206 1135 q 356 1235 292 1235 q 422 1220 393 1235 q 478 1189 450 1204 q 541 1173 506 1173 q 585 1193 566 1173 q 603 1244 603 1213 z "},"V":{"ha":897,"x_min":12,"x_max":886,"o":"m 199 987 l 448 208 l 699 987 l 886 987 l 532 0 l 364 0 l 12 987 l 199 987 z "},"W":{"ha":1223,"x_min":32,"x_max":1198,"o":"m 201 987 l 355 251 l 545 987 l 688 987 l 875 250 l 1028 987 l 1198 987 l 969 0 l 804 0 l 616 715 l 426 0 l 260 0 l 32 987 l 201 987 z "},"Ŵ":{"ha":1223,"x_min":32,"x_max":1198,"o":"m 201 987 l 355 251 l 545 987 l 688 987 l 875 250 l 1028 987 l 1198 987 l 969 0 l 804 0 l 616 715 l 426 0 l 260 0 l 32 987 l 201 987 m 667 1253 l 855 1065 l 855 1058 l 723 1058 l 619 1164 l 515 1058 l 386 1058 l 386 1067 l 571 1253 l 667 1253 z "},"X":{"ha":877,"x_min":26,"x_max":852,"o":"m 230 987 l 439 627 l 649 987 l 845 987 l 547 498 l 852 0 l 654 0 l 439 367 l 224 0 l 26 0 l 332 498 l 33 987 l 230 987 z "},"Y":{"ha":848,"x_min":5,"x_max":842,"o":"m 195 987 l 424 516 l 653 987 l 842 987 l 509 363 l 509 0 l 338 0 l 338 363 l 5 987 l 195 987 z "},"Ý":{"ha":848,"x_min":5,"x_max":842,"o":"m 195 987 l 424 516 l 653 987 l 842 987 l 509 363 l 509 0 l 338 0 l 338 363 l 5 987 l 195 987 m 344 1048 l 476 1252 l 661 1252 l 476 1048 l 344 1048 z "},"Ŷ":{"ha":848,"x_min":5,"x_max":842,"o":"m 195 987 l 424 516 l 653 987 l 842 987 l 509 363 l 509 0 l 338 0 l 338 363 l 5 987 l 195 987 m 474 1252 l 662 1065 l 662 1057 l 530 1057 l 426 1164 l 322 1057 l 193 1057 l 193 1066 l 378 1252 l 474 1252 z "},"Ÿ":{"ha":848,"x_min":5,"x_max":842,"o":"m 195 987 l 424 516 l 653 987 l 842 987 l 509 363 l 509 0 l 338 0 l 338 363 l 5 987 l 195 987 m 184 1139 q 208 1195 184 1172 q 269 1217 231 1217 q 330 1195 307 1217 q 353 1139 353 1172 q 330 1083 353 1106 q 269 1061 307 1061 q 208 1083 231 1061 q 184 1139 184 1106 m 498 1138 q 522 1194 498 1171 q 583 1217 545 1217 q 645 1194 621 1217 q 668 1138 668 1171 q 645 1082 668 1105 q 583 1060 621 1060 q 522 1082 545 1060 q 498 1138 498 1105 z "},"Z":{"ha":838,"x_min":54,"x_max":791,"o":"m 791 135 l 791 0 l 54 0 l 54 108 l 570 852 l 58 852 l 58 987 l 775 987 l 775 882 l 261 135 l 791 135 z "},"Ź":{"ha":838,"x_min":54,"x_max":791,"o":"m 791 135 l 791 0 l 54 0 l 54 108 l 570 852 l 58 852 l 58 987 l 775 987 l 775 882 l 261 135 l 791 135 m 340 1048 l 473 1253 l 657 1253 l 473 1048 l 340 1048 z "},"Ž":{"ha":838,"x_min":54,"x_max":791,"o":"m 791 135 l 791 0 l 54 0 l 54 108 l 570 852 l 58 852 l 58 987 l 775 987 l 775 882 l 261 135 l 791 135 m 321 1253 l 422 1146 l 524 1253 l 664 1253 l 664 1245 l 474 1057 l 371 1057 l 182 1246 l 182 1253 l 321 1253 z "},"Ż":{"ha":838,"x_min":54,"x_max":791,"o":"m 791 135 l 791 0 l 54 0 l 54 108 l 570 852 l 58 852 l 58 987 l 775 987 l 775 882 l 261 135 l 791 135 m 334 1147 q 358 1205 334 1182 q 422 1229 381 1229 q 488 1205 464 1229 q 511 1147 511 1182 q 488 1088 511 1112 q 422 1065 464 1065 q 358 1088 381 1065 q 334 1147 334 1112 z "},"a":{"ha":749,"x_min":58,"x_max":690,"o":"m 522 0 q 503 73 510 27 q 422 12 471 37 q 307 -14 374 -14 q 178 15 235 -14 q 90 93 122 43 q 58 205 58 142 q 145 384 58 321 q 393 446 233 446 l 498 446 l 498 497 q 466 590 498 555 q 368 625 434 625 q 273 595 309 625 q 237 522 237 566 l 75 522 q 112 632 75 581 q 217 715 149 684 q 377 747 285 747 q 524 720 460 747 q 625 636 588 692 q 662 496 662 580 l 662 170 q 690 11 662 70 l 690 0 l 522 0 m 338 116 q 438 144 397 116 q 498 206 480 172 l 498 345 l 406 345 q 268 312 314 345 q 222 220 222 279 q 252 146 222 176 q 338 116 283 116 z "},"á":{"ha":749,"x_min":58,"x_max":690,"o":"m 522 0 q 503 73 510 27 q 422 12 471 37 q 307 -14 374 -14 q 178 15 235 -14 q 90 93 122 43 q 58 205 58 142 q 145 384 58 321 q 393 446 233 446 l 498 446 l 498 497 q 466 590 498 555 q 368 625 434 625 q 273 595 309 625 q 237 522 237 566 l 75 522 q 112 632 75 581 q 217 715 149 684 q 377 747 285 747 q 524 720 460 747 q 625 636 588 692 q 662 496 662 580 l 662 170 q 690 11 662 70 l 690 0 l 522 0 m 338 116 q 438 144 397 116 q 498 206 480 172 l 498 345 l 406 345 q 268 312 314 345 q 222 220 222 279 q 252 146 222 176 q 338 116 283 116 m 301 838 l 433 1042 l 618 1042 l 433 838 l 301 838 z "},"ă":{"ha":749,"x_min":58,"x_max":690,"o":"m 522 0 q 503 73 510 27 q 422 12 471 37 q 307 -14 374 -14 q 178 15 235 -14 q 90 93 122 43 q 58 205 58 142 q 145 384 58 321 q 393 446 233 446 l 498 446 l 498 497 q 466 590 498 555 q 368 625 434 625 q 273 595 309 625 q 237 522 237 566 l 75 522 q 112 632 75 581 q 217 715 149 684 q 377 747 285 747 q 524 720 460 747 q 625 636 588 692 q 662 496 662 580 l 662 170 q 690 11 662 70 l 690 0 l 522 0 m 338 116 q 438 144 397 116 q 498 206 480 172 l 498 345 l 406 345 q 268 312 314 345 q 222 220 222 279 q 252 146 222 176 q 338 116 283 116 m 482 1025 l 604 1025 q 544 887 604 941 q 384 833 485 833 q 222 887 281 833 q 163 1025 163 941 l 284 1025 q 307 958 284 987 q 384 929 329 929 q 459 958 437 929 q 482 1025 482 987 z "},"â":{"ha":749,"x_min":58,"x_max":690,"o":"m 522 0 q 503 73 510 27 q 422 12 471 37 q 307 -14 374 -14 q 178 15 235 -14 q 90 93 122 43 q 58 205 58 142 q 145 384 58 321 q 393 446 233 446 l 498 446 l 498 497 q 466 590 498 555 q 368 625 434 625 q 273 595 309 625 q 237 522 237 566 l 75 522 q 112 632 75 581 q 217 715 149 684 q 377 747 285 747 q 524 720 460 747 q 625 636 588 692 q 662 496 662 580 l 662 170 q 690 11 662 70 l 690 0 l 522 0 m 338 116 q 438 144 397 116 q 498 206 480 172 l 498 345 l 406 345 q 268 312 314 345 q 222 220 222 279 q 252 146 222 176 q 338 116 283 116 m 431 1042 l 619 854 l 619 847 l 487 847 l 383 954 l 279 847 l 150 847 l 150 856 l 335 1042 l 431 1042 z "},"´":{"ha":448,"x_min":75,"x_max":392,"o":"m 75 838 l 208 1042 l 392 1042 l 208 838 l 75 838 z "},"́":{"ha":0,"x_min":-454,"x_max":-138,"o":"m -454 838 l -322 1042 l -138 1042 l -322 838 l -454 838 z "},"ä":{"ha":749,"x_min":58,"x_max":690,"o":"m 522 0 q 503 73 510 27 q 422 12 471 37 q 307 -14 374 -14 q 178 15 235 -14 q 90 93 122 43 q 58 205 58 142 q 145 384 58 321 q 393 446 233 446 l 498 446 l 498 497 q 466 590 498 555 q 368 625 434 625 q 273 595 309 625 q 237 522 237 566 l 75 522 q 112 632 75 581 q 217 715 149 684 q 377 747 285 747 q 524 720 460 747 q 625 636 588 692 q 662 496 662 580 l 662 170 q 690 11 662 70 l 690 0 l 522 0 m 338 116 q 438 144 397 116 q 498 206 480 172 l 498 345 l 406 345 q 268 312 314 345 q 222 220 222 279 q 252 146 222 176 q 338 116 283 116 m 142 928 q 165 984 142 962 q 227 1007 189 1007 q 288 984 265 1007 q 311 928 311 962 q 288 873 311 896 q 227 850 265 850 q 165 873 189 850 q 142 928 142 896 m 456 928 q 479 984 456 961 q 541 1006 503 1006 q 603 984 579 1006 q 626 928 626 961 q 603 872 626 895 q 541 850 579 850 q 479 872 503 850 q 456 928 456 895 z "},"æ":{"ha":1173,"x_min":49,"x_max":1133,"o":"m 850 -14 q 695 15 762 -14 q 585 96 629 44 q 480 20 549 54 q 307 -14 412 -14 q 116 47 182 -14 q 49 211 49 109 q 131 377 49 318 q 371 436 213 436 l 500 436 l 500 484 q 468 582 500 546 q 375 617 435 617 q 272 586 309 617 q 234 511 234 555 l 71 523 q 109 638 71 588 q 216 718 147 689 q 376 747 285 747 q 508 725 450 747 q 603 658 566 703 q 702 724 645 701 q 829 747 759 748 q 1053 658 974 747 q 1133 417 1133 569 l 1133 322 l 661 322 q 714 175 666 235 q 862 116 762 116 q 984 137 937 116 q 1068 178 1031 157 l 1116 69 q 1019 16 1087 46 q 850 -14 951 -14 m 829 617 q 714 566 755 617 q 664 435 673 515 l 970 435 l 970 455 q 938 570 970 524 q 829 617 905 617 m 338 109 q 427 130 382 109 q 500 178 471 151 l 500 325 l 372 325 q 253 290 294 325 q 213 208 213 254 q 244 137 213 165 q 338 109 275 109 z "},"ǽ":{"ha":1173,"x_min":49,"x_max":1133,"o":"m 850 -14 q 695 15 762 -14 q 585 96 629 44 q 480 20 549 54 q 307 -14 412 -14 q 116 47 182 -14 q 49 211 49 109 q 131 377 49 318 q 371 436 213 436 l 500 436 l 500 484 q 468 582 500 546 q 375 617 435 617 q 272 586 309 617 q 234 511 234 555 l 71 523 q 109 638 71 588 q 216 718 147 689 q 376 747 285 747 q 508 725 450 747 q 603 658 566 703 q 702 724 645 701 q 829 747 759 748 q 1053 658 974 747 q 1133 417 1133 569 l 1133 322 l 661 322 q 714 175 666 235 q 862 116 762 116 q 984 137 937 116 q 1068 178 1031 157 l 1116 69 q 1019 16 1087 46 q 850 -14 951 -14 m 829 617 q 714 566 755 617 q 664 435 673 515 l 970 435 l 970 455 q 938 570 970 524 q 829 617 905 617 m 338 109 q 427 130 382 109 q 500 178 471 151 l 500 325 l 372 325 q 253 290 294 325 q 213 208 213 254 q 244 137 213 165 q 338 109 275 109 m 502 838 l 634 1042 l 819 1042 l 634 838 l 502 838 z "},"‏":{"ha":0,"x_min":0,"x_max":0,"o":""},"‎":{"ha":0,"x_min":0,"x_max":0,"o":""},"‍":{"ha":0,"x_min":0,"x_max":0,"o":""},"₪":{"ha":1147,"x_min":85,"x_max":1063,"o":"m 85 734 l 534 734 q 722 670 662 734 q 782 458 782 606 l 782 242 l 618 242 l 618 458 q 582 574 618 545 q 482 604 546 604 l 248 604 l 248 0 l 85 0 l 85 734 m 743 0 l 366 0 l 366 493 l 529 493 l 529 130 l 764 130 q 863 160 827 130 q 899 275 899 189 l 899 734 l 1063 734 l 1063 276 q 1018 117 1063 178 q 900 28 973 56 q 743 0 827 0 z "},"‌":{"ha":0,"x_min":0,"x_max":0,"o":""},"à":{"ha":749,"x_min":58,"x_max":690,"o":"m 522 0 q 503 73 510 27 q 422 12 471 37 q 307 -14 374 -14 q 178 15 235 -14 q 90 93 122 43 q 58 205 58 142 q 145 384 58 321 q 393 446 233 446 l 498 446 l 498 497 q 466 590 498 555 q 368 625 434 625 q 273 595 309 625 q 237 522 237 566 l 75 522 q 112 632 75 581 q 217 715 149 684 q 377 747 285 747 q 524 720 460 747 q 625 636 588 692 q 662 496 662 580 l 662 170 q 690 11 662 70 l 690 0 l 522 0 m 338 116 q 438 144 397 116 q 498 206 480 172 l 498 345 l 406 345 q 268 312 314 345 q 222 220 222 279 q 252 146 222 176 q 338 116 283 116 m 336 1042 l 468 838 l 332 838 l 151 1042 l 336 1042 z "},"ā":{"ha":749,"x_min":58,"x_max":690,"o":"m 522 0 q 503 73 510 27 q 422 12 471 37 q 307 -14 374 -14 q 178 15 235 -14 q 90 93 122 43 q 58 205 58 142 q 145 384 58 321 q 393 446 233 446 l 498 446 l 498 497 q 466 590 498 555 q 368 625 434 625 q 273 595 309 625 q 237 522 237 566 l 75 522 q 112 632 75 581 q 217 715 149 684 q 377 747 285 747 q 524 720 460 747 q 625 636 588 692 q 662 496 662 580 l 662 170 q 690 11 662 70 l 690 0 l 522 0 m 338 116 q 438 144 397 116 q 498 206 480 172 l 498 345 l 406 345 q 268 312 314 345 q 222 220 222 279 q 252 146 222 176 q 338 116 283 116 m 616 985 l 616 881 l 155 881 l 155 985 l 616 985 z "},"&":{"ha":890,"x_min":58,"x_max":879,"o":"m 690 0 l 632 68 q 513 6 578 26 q 378 -14 449 -14 q 208 22 279 -14 q 97 121 136 58 q 58 266 58 184 q 109 412 58 353 q 242 530 161 471 q 169 642 196 589 q 141 752 141 694 q 212 935 141 868 q 399 1001 282 1001 q 529 971 475 1001 q 613 891 584 941 q 643 783 643 842 q 606 661 643 713 q 510 566 568 609 l 441 516 l 637 286 q 668 371 657 325 q 680 470 680 418 l 821 470 q 800 307 821 383 q 734 171 779 231 l 879 0 l 690 0 m 293 755 q 312 686 293 722 q 362 611 331 650 l 423 652 q 484 708 466 680 q 503 777 503 735 q 475 842 503 812 q 399 871 448 871 q 320 837 347 871 q 293 755 293 802 m 222 271 q 264 161 222 206 q 384 116 306 116 q 543 172 469 116 l 323 431 l 303 416 q 235 334 249 372 q 222 271 222 296 z "},"ą":{"ha":749,"x_min":58,"x_max":690,"o":"m 676 -260 q 633 -280 659 -271 q 566 -290 606 -290 q 465 -256 506 -290 q 423 -155 423 -221 q 446 -73 423 -113 q 520 4 468 -32 q 503 73 509 31 q 422 12 471 37 q 307 -14 374 -14 q 178 15 235 -14 q 90 93 122 43 q 58 205 58 142 q 145 384 58 321 q 393 446 233 446 l 498 446 l 498 497 q 466 590 498 555 q 368 625 434 625 q 273 595 309 625 q 237 522 237 566 l 75 522 q 112 632 75 581 q 217 715 149 684 q 377 747 285 747 q 524 720 460 747 q 625 636 588 692 q 662 496 662 580 l 662 170 q 690 11 662 70 l 690 0 l 662 0 q 583 -63 614 -31 q 552 -136 552 -95 q 563 -169 552 -156 q 600 -182 574 -182 q 636 -177 621 -182 q 661 -166 651 -171 l 676 -260 m 338 116 q 438 144 397 116 q 498 206 480 172 l 498 345 l 406 345 q 268 312 314 345 q 222 220 222 279 q 252 146 222 176 q 338 116 283 116 z "},"≈":{"ha":793,"x_min":68,"x_max":711,"o":"m 69 471 l 69 615 q 146 669 101 649 q 235 688 191 688 q 323 675 290 690 q 399 639 357 661 q 471 605 439 618 q 553 592 503 592 q 638 615 597 592 q 710 678 678 637 l 711 535 q 640 481 679 500 q 556 462 600 462 q 474 475 506 462 q 403 509 443 488 q 326 545 360 530 q 238 558 292 559 q 148 535 194 558 q 69 471 101 512 m 69 188 l 68 332 q 144 385 100 366 q 232 405 188 405 q 320 392 286 406 q 396 355 353 377 q 468 322 436 335 q 550 309 500 309 q 636 331 594 309 q 710 395 678 354 l 710 251 q 638 197 678 217 q 553 178 597 178 q 471 191 503 178 q 399 224 439 204 q 323 261 357 246 q 235 275 289 276 q 146 252 191 275 q 69 188 101 229 z "},"å":{"ha":749,"x_min":58,"x_max":690,"o":"m 522 0 q 503 73 510 27 q 422 12 471 37 q 307 -14 374 -14 q 178 15 235 -14 q 90 93 122 43 q 58 205 58 142 q 145 384 58 321 q 393 446 233 446 l 498 446 l 498 497 q 466 590 498 555 q 368 625 434 625 q 273 595 309 625 q 237 522 237 566 l 75 522 q 112 632 75 581 q 217 715 149 684 q 377 747 285 747 q 524 720 460 747 q 625 636 588 692 q 662 496 662 580 l 662 170 q 690 11 662 70 l 690 0 l 522 0 m 338 116 q 438 144 397 116 q 498 206 480 172 l 498 345 l 406 345 q 268 312 314 345 q 222 220 222 279 q 252 146 222 176 q 338 116 283 116 m 235 963 q 278 1062 235 1021 q 384 1103 320 1103 q 489 1062 447 1103 q 532 963 532 1021 q 489 865 532 905 q 384 826 447 826 q 278 865 320 826 q 235 963 235 905 m 308 963 q 329 910 308 933 q 384 888 350 888 q 438 910 418 888 q 459 963 459 932 q 438 1017 459 994 q 384 1040 418 1040 q 329 1017 350 1040 q 308 963 308 994 z "},"ǻ":{"ha":749,"x_min":58,"x_max":690,"o":"m 522 0 q 503 73 510 27 q 422 12 471 37 q 307 -14 374 -14 q 178 15 235 -14 q 90 93 122 43 q 58 205 58 142 q 145 384 58 321 q 393 446 233 446 l 498 446 l 498 497 q 466 590 498 555 q 368 625 434 625 q 273 595 309 625 q 237 522 237 566 l 75 522 q 112 632 75 581 q 217 715 149 684 q 377 747 285 747 q 524 720 460 747 q 625 636 588 692 q 662 496 662 580 l 662 170 q 690 11 662 70 l 690 0 l 522 0 m 338 116 q 438 144 397 116 q 498 206 480 172 l 498 345 l 406 345 q 268 312 314 345 q 222 220 222 279 q 252 146 222 176 q 338 116 283 116 m 344 992 l 459 1124 l 613 1124 l 446 992 l 344 992 m 256 842 q 294 928 256 895 q 384 962 331 962 q 472 928 436 962 q 509 842 509 895 q 472 758 509 791 q 384 725 436 725 q 294 758 331 725 q 256 842 256 791 m 323 842 q 341 801 323 817 q 384 784 359 784 q 425 801 409 784 q 441 842 441 817 q 425 886 441 869 q 384 903 409 903 q 341 886 359 903 q 323 842 323 869 z "},"^":{"ha":595,"x_min":37,"x_max":559,"o":"m 422 494 l 298 814 l 174 494 l 37 494 l 239 987 l 357 987 l 559 494 l 422 494 z "},"~":{"ha":920,"x_min":79,"x_max":840,"o":"m 715 532 l 840 533 q 812 395 840 456 q 733 299 783 334 q 618 264 684 264 q 517 287 561 264 q 423 356 473 310 q 365 402 392 386 q 307 418 338 418 q 235 382 261 418 q 208 289 208 347 l 79 289 q 107 427 79 368 q 186 519 136 486 q 301 553 236 553 q 404 529 358 553 q 497 461 450 505 q 556 414 530 430 q 612 399 583 399 q 687 437 659 399 q 715 532 715 475 z "},"*":{"ha":616,"x_min":19,"x_max":603,"o":"m 87 474 l 229 661 l 19 722 l 55 833 l 264 753 l 254 988 l 372 988 l 361 748 l 567 828 l 603 715 l 389 653 l 528 471 l 432 401 l 307 598 l 183 407 l 87 474 z "},"@":{"ha":1246,"x_min":59,"x_max":1190,"o":"m 1182 353 q 1162 222 1179 287 q 1111 103 1145 157 q 1023 18 1077 50 q 895 -14 970 -14 q 792 14 834 -14 q 730 92 750 42 q 649 13 696 40 q 551 -14 602 -14 q 400 70 451 -14 q 361 288 349 153 q 417 491 373 406 q 527 624 461 577 q 667 671 592 671 q 787 650 744 671 q 869 599 830 628 l 836 214 q 842 130 830 159 q 873 91 853 101 q 914 81 894 81 q 998 117 963 81 q 1054 214 1034 153 q 1076 351 1074 275 q 1041 625 1084 509 q 902 803 998 741 q 653 866 806 866 q 410 796 513 866 q 249 603 307 726 q 184 319 191 479 q 283 -68 172 69 q 608 -206 395 -206 q 729 -192 667 -206 q 832 -157 790 -178 l 858 -247 q 739 -292 810 -277 q 605 -307 668 -307 q 306 -233 429 -307 q 121 -19 182 -159 q 66 319 59 121 q 116 576 73 458 q 237 782 160 694 q 419 917 313 869 q 656 965 526 965 q 951 889 831 965 q 1131 676 1072 813 q 1182 353 1190 538 m 492 288 q 509 145 484 195 q 589 96 534 96 q 656 123 620 96 q 717 222 692 151 l 747 555 q 715 565 732 561 q 680 568 699 568 q 554 497 603 568 q 492 288 506 426 z "},"ã":{"ha":749,"x_min":58,"x_max":690,"o":"m 522 0 q 503 73 510 27 q 422 12 471 37 q 307 -14 374 -14 q 178 15 235 -14 q 90 93 122 43 q 58 205 58 142 q 145 384 58 321 q 393 446 233 446 l 498 446 l 498 497 q 466 590 498 555 q 368 625 434 625 q 273 595 309 625 q 237 522 237 566 l 75 522 q 112 632 75 581 q 217 715 149 684 q 377 747 285 747 q 524 720 460 747 q 625 636 588 692 q 662 496 662 580 l 662 170 q 690 11 662 70 l 690 0 l 522 0 m 338 116 q 438 144 397 116 q 498 206 480 172 l 498 345 l 406 345 q 268 312 314 345 q 222 220 222 279 q 252 146 222 176 q 338 116 283 116 m 532 1034 l 631 1026 q 589 903 631 952 q 481 854 546 854 q 410 869 437 854 q 358 900 382 885 q 297 916 334 916 q 253 897 271 916 q 235 846 235 878 l 135 851 q 178 975 135 924 q 285 1025 220 1025 q 351 1009 322 1025 q 407 979 379 994 q 469 963 435 963 q 513 983 495 963 q 532 1034 532 1002 z "},"b":{"ha":781,"x_min":85,"x_max":727,"o":"m 727 374 l 727 359 q 695 167 727 251 q 599 35 663 83 q 442 -14 536 -14 q 325 12 375 -14 q 241 81 275 37 l 233 0 l 85 0 l 85 1042 l 248 1042 l 248 661 q 330 725 282 703 q 441 747 378 747 q 599 700 535 747 q 695 568 663 652 q 727 374 727 484 m 564 359 l 564 374 q 549 494 564 439 q 498 583 534 549 q 400 616 463 616 q 304 589 341 616 q 248 519 268 562 l 248 215 q 305 145 268 172 q 401 118 342 118 q 498 150 463 118 q 549 237 534 182 q 564 359 564 292 z "},"\\":{"ha":578,"x_min":12,"x_max":588,"o":"m 425 -85 l 12 987 l 176 987 l 588 -85 l 425 -85 z "},"|":{"ha":345,"x_min":119,"x_max":228,"o":"m 228 987 l 228 -183 l 119 -183 l 119 987 l 228 987 z "},"{":{"ha":463,"x_min":38,"x_max":444,"o":"m 444 -153 l 411 -247 q 266 -173 319 -220 q 191 -64 213 -126 q 169 69 169 -2 l 169 208 q 138 318 169 277 q 38 359 107 359 l 38 477 q 138 518 107 477 q 169 628 169 559 l 169 768 q 191 901 169 839 q 266 1010 213 963 q 411 1083 319 1057 l 444 990 q 348 907 374 967 q 321 768 321 846 l 321 628 q 293 506 321 561 q 204 418 265 450 q 293 331 265 387 q 321 208 321 275 l 321 69 q 348 -69 321 -9 q 444 -153 374 -130 z "},"}":{"ha":463,"x_min":19,"x_max":425,"o":"m 52 -247 l 19 -153 q 115 -69 90 -130 q 141 69 141 -9 l 141 208 q 171 333 141 277 q 266 418 201 388 q 171 504 201 448 q 141 628 141 559 l 141 768 q 115 907 141 846 q 19 990 90 967 l 52 1083 q 197 1010 144 1057 q 272 901 250 963 q 294 768 294 839 l 294 628 q 325 518 294 559 q 425 477 355 477 l 425 359 q 325 318 355 359 q 294 208 294 277 l 294 69 q 272 -64 294 -2 q 197 -173 250 -126 q 52 -247 144 -220 z "},"[":{"ha":376,"x_min":101,"x_max":365,"o":"m 365 1013 l 254 1013 l 254 -94 l 365 -94 l 365 -221 l 101 -221 l 101 1139 l 365 1139 l 365 1013 z "},"]":{"ha":376,"x_min":7,"x_max":271,"o":"m 7 1139 l 271 1139 l 271 -221 l 7 -221 l 7 -94 l 120 -94 l 120 1013 l 7 1013 l 7 1139 z "},"˘":{"ha":606,"x_min":79,"x_max":520,"o":"m 399 1025 l 520 1025 q 461 887 520 941 q 300 833 401 833 q 139 887 198 833 q 79 1025 79 941 l 201 1025 q 223 958 201 987 q 300 929 245 929 q 376 958 353 929 q 399 1025 399 987 z "},"¦":{"ha":342,"x_min":93,"x_max":245,"o":"m 245 987 l 245 473 l 93 473 l 93 987 l 245 987 m 245 -183 l 93 -183 l 93 355 l 245 355 l 245 -183 z "},"•":{"ha":486,"x_min":94,"x_max":395,"o":"m 94 495 l 94 522 q 134 626 94 585 q 243 667 174 667 q 354 626 314 667 q 395 522 395 585 l 395 495 q 354 392 395 432 q 244 351 314 351 q 134 392 174 351 q 94 495 94 432 z "},"c":{"ha":725,"x_min":53,"x_max":684,"o":"m 384 117 q 486 152 444 117 q 530 243 528 186 l 684 243 q 642 113 682 171 q 534 21 602 55 q 386 -14 467 -14 q 200 36 274 -14 q 90 170 126 86 q 53 355 53 254 l 53 378 q 90 564 53 480 q 200 697 126 648 q 385 747 274 747 q 540 712 473 747 q 644 615 606 677 q 684 471 682 553 l 530 471 q 489 574 528 532 q 383 617 450 617 q 281 583 317 617 q 231 493 245 548 q 216 378 216 439 l 216 355 q 230 240 216 294 q 281 151 244 185 q 384 117 317 117 z "},"ć":{"ha":725,"x_min":53,"x_max":684,"o":"m 384 117 q 486 152 444 117 q 530 243 528 186 l 684 243 q 642 113 682 171 q 534 21 602 55 q 386 -14 467 -14 q 200 36 274 -14 q 90 170 126 86 q 53 355 53 254 l 53 378 q 90 564 53 480 q 200 697 126 648 q 385 747 274 747 q 540 712 473 747 q 644 615 606 677 q 684 471 682 553 l 530 471 q 489 574 528 532 q 383 617 450 617 q 281 583 317 617 q 231 493 245 548 q 216 378 216 439 l 216 355 q 230 240 216 294 q 281 151 244 185 q 384 117 317 117 m 280 838 l 412 1042 l 597 1042 l 412 838 l 280 838 z "},"ˇ":{"ha":636,"x_min":75,"x_max":557,"o":"m 214 1042 l 315 935 l 416 1042 l 557 1042 l 557 1034 l 367 846 l 264 846 l 75 1035 l 75 1042 l 214 1042 z "},"č":{"ha":725,"x_min":53,"x_max":684,"o":"m 384 117 q 486 152 444 117 q 530 243 528 186 l 684 243 q 642 113 682 171 q 534 21 602 55 q 386 -14 467 -14 q 200 36 274 -14 q 90 170 126 86 q 53 355 53 254 l 53 378 q 90 564 53 480 q 200 697 126 648 q 385 747 274 747 q 540 712 473 747 q 644 615 606 677 q 684 471 682 553 l 530 471 q 489 574 528 532 q 383 617 450 617 q 281 583 317 617 q 231 493 245 548 q 216 378 216 439 l 216 355 q 230 240 216 294 q 281 151 244 185 q 384 117 317 117 m 260 1042 l 362 935 l 463 1042 l 604 1042 l 604 1034 l 414 846 l 311 846 l 121 1035 l 121 1042 l 260 1042 z "},"ç":{"ha":725,"x_min":53,"x_max":684,"o":"m 384 117 q 486 152 444 117 q 530 243 528 186 l 684 243 q 642 113 682 171 q 534 21 602 55 q 386 -14 467 -14 q 200 36 274 -14 q 90 170 126 86 q 53 355 53 254 l 53 378 q 90 564 53 480 q 200 697 126 648 q 385 747 274 747 q 540 712 473 747 q 644 615 606 677 q 684 471 682 553 l 530 471 q 489 574 528 532 q 383 617 450 617 q 281 583 317 617 q 231 493 245 548 q 216 378 216 439 l 216 355 q 230 240 216 294 q 281 151 244 185 q 384 117 317 117 m 312 -1 l 433 -1 l 425 -39 q 496 -72 464 -46 q 528 -157 528 -98 q 472 -267 528 -224 q 305 -309 415 -309 l 300 -216 q 367 -202 340 -216 q 394 -155 394 -188 q 370 -112 394 -123 q 291 -96 345 -100 l 312 -1 z "},"ĉ":{"ha":725,"x_min":53,"x_max":684,"o":"m 384 117 q 486 152 444 117 q 530 243 528 186 l 684 243 q 642 113 682 171 q 534 21 602 55 q 386 -14 467 -14 q 200 36 274 -14 q 90 170 126 86 q 53 355 53 254 l 53 378 q 90 564 53 480 q 200 697 126 648 q 385 747 274 747 q 540 712 473 747 q 644 615 606 677 q 684 471 682 553 l 530 471 q 489 574 528 532 q 383 617 450 617 q 281 583 317 617 q 231 493 245 548 q 216 378 216 439 l 216 355 q 230 240 216 294 q 281 151 244 185 q 384 117 317 117 m 411 1042 l 599 854 l 599 847 l 467 847 l 363 954 l 259 847 l 130 847 l 130 856 l 315 1042 l 411 1042 z "},"¸":{"ha":360,"x_min":73,"x_max":311,"o":"m 94 3 l 216 3 l 208 -35 q 278 -68 246 -42 q 311 -153 311 -94 q 254 -262 311 -220 q 87 -304 197 -304 l 83 -212 q 149 -198 122 -212 q 176 -151 176 -184 q 152 -107 176 -119 q 73 -92 127 -96 l 94 3 z "},"¢":{"ha":783,"x_min":70,"x_max":702,"o":"m 401 117 q 503 152 461 117 q 547 243 545 186 l 702 243 q 668 128 700 180 q 584 40 637 75 q 465 -8 531 4 l 465 -166 l 335 -166 l 335 -8 q 187 59 246 7 q 99 188 128 111 q 70 355 70 264 l 70 378 q 99 546 70 469 q 187 675 128 623 q 335 742 246 727 l 335 894 l 465 894 l 465 743 q 635 652 570 725 q 702 471 699 579 l 547 471 q 506 574 545 532 q 400 617 467 617 q 298 583 334 617 q 248 493 262 548 q 233 378 233 439 l 233 355 q 247 240 233 294 q 298 151 261 185 q 401 117 334 117 z "},"ˆ":{"ha":671,"x_min":98,"x_max":567,"o":"m 379 1042 l 567 854 l 567 847 l 435 847 l 331 954 l 227 847 l 98 847 l 98 856 l 283 1042 l 379 1042 z "},":":{"ha":397,"x_min":94,"x_max":304,"o":"m 94 503 q 124 576 94 547 q 199 606 155 606 q 273 576 243 606 q 304 503 304 547 q 273 430 304 459 q 199 400 242 400 q 124 429 155 400 q 94 503 94 458 m 94 104 q 124 177 94 147 q 199 207 155 207 q 273 177 243 207 q 304 104 304 147 q 273 31 304 60 q 199 1 242 1 q 124 30 155 1 q 94 104 94 60 z "},",":{"ha":311,"x_min":23,"x_max":237,"o":"m 237 157 l 237 41 q 202 -101 237 -28 q 111 -222 168 -174 l 23 -172 q 72 -77 51 -125 q 92 35 92 -29 l 92 157 l 237 157 z "},"©":{"ha":1091,"x_min":61,"x_max":1023,"o":"m 61 494 q 98 694 61 602 q 202 856 136 787 q 356 963 269 924 q 543 1001 443 1001 q 729 963 642 1001 q 883 856 817 924 q 986 694 949 787 q 1023 494 1023 602 q 986 294 1023 387 q 883 133 949 202 q 729 24 817 63 q 543 -14 642 -14 q 356 24 443 -14 q 202 133 269 63 q 98 294 136 202 q 61 494 61 387 m 140 494 q 172 327 140 404 q 258 191 203 249 q 386 101 313 133 q 543 68 459 68 q 698 101 625 68 q 826 191 770 133 q 912 327 881 249 q 943 494 943 404 q 912 662 943 585 q 826 797 881 739 q 698 887 770 854 q 543 919 625 919 q 386 887 459 919 q 258 797 313 854 q 172 662 203 739 q 140 494 140 585 m 657 405 l 759 405 q 698 245 759 298 q 533 192 637 192 q 361 265 425 192 q 298 454 298 338 l 298 534 q 361 723 298 650 q 533 796 425 796 q 699 743 637 796 q 760 583 760 690 l 658 583 q 626 679 658 650 q 533 707 594 707 q 432 659 467 707 q 398 534 398 610 l 398 454 q 432 329 398 378 q 533 281 467 281 q 626 309 594 281 q 657 405 657 338 z "},"¤":{"ha":975,"x_min":62,"x_max":921,"o":"m 86 412 q 106 547 86 484 q 161 662 126 610 l 62 763 l 153 857 l 252 757 q 362 816 302 795 q 490 837 423 837 q 618 815 557 837 q 729 756 679 794 l 829 858 l 921 763 l 820 660 q 874 545 854 608 q 893 412 893 482 q 875 285 893 345 q 825 174 857 224 l 921 77 l 829 -18 l 738 75 q 623 10 686 33 q 490 -14 559 -14 q 357 9 420 -14 q 243 74 294 33 l 153 -18 l 62 77 l 156 172 q 104 283 123 222 q 86 412 86 345 m 206 412 q 244 259 206 328 q 347 149 282 190 q 490 109 411 109 q 632 149 568 109 q 734 259 696 190 q 772 412 772 328 q 734 566 772 497 q 632 675 696 635 q 490 715 568 715 q 347 675 411 715 q 244 566 282 635 q 206 412 206 497 z "},"d":{"ha":783,"x_min":54,"x_max":696,"o":"m 54 359 l 54 373 q 89 569 54 485 q 188 700 123 653 q 342 747 253 747 q 450 726 404 747 q 532 664 497 704 l 532 1042 l 696 1042 l 696 0 l 547 0 l 539 79 q 455 11 504 35 q 341 -14 406 -14 q 188 35 252 -14 q 89 168 123 83 q 54 359 54 252 m 218 373 l 218 359 q 234 238 218 292 q 287 151 251 183 q 382 119 323 119 q 475 144 438 119 q 532 211 511 170 l 532 524 q 475 591 511 566 q 384 616 439 616 q 288 583 325 616 q 235 495 252 550 q 218 373 218 440 z "},"†":{"ha":756,"x_min":43,"x_max":714,"o":"m 714 734 l 714 601 l 458 601 l 458 0 l 295 0 l 295 601 l 43 601 l 43 734 l 295 734 l 295 987 l 458 987 l 458 734 l 714 734 z "},"‡":{"ha":799,"x_min":63,"x_max":734,"o":"m 734 130 l 734 0 l 478 0 l 478 -282 l 314 -282 l 314 0 l 63 0 l 63 130 l 314 130 l 314 604 l 63 604 l 63 734 l 314 734 l 314 987 l 478 987 l 478 734 l 734 734 l 734 604 l 478 604 l 478 130 l 734 130 z "},"ď":{"ha":884,"x_min":54,"x_max":928,"o":"m 54 359 l 54 373 q 89 569 54 485 q 188 700 123 653 q 342 747 253 747 q 450 726 404 747 q 532 664 497 704 l 532 1042 l 696 1042 l 696 0 l 547 0 l 539 79 q 455 11 504 35 q 341 -14 406 -14 q 188 35 252 -14 q 89 168 123 83 q 54 359 54 252 m 218 373 l 218 359 q 234 238 218 292 q 287 151 251 183 q 382 119 323 119 q 475 144 438 119 q 532 211 511 170 l 532 524 q 475 591 511 566 q 384 616 439 616 q 288 583 325 616 q 235 495 252 550 q 218 373 218 440 m 928 1043 l 928 992 q 902 869 928 933 q 830 764 876 806 l 745 814 q 783 893 769 852 q 796 986 796 934 l 796 1043 l 928 1043 z "},"đ":{"ha":854,"x_min":54,"x_max":812,"o":"m 54 359 l 54 373 q 89 569 54 485 q 188 700 123 653 q 342 747 253 747 q 450 726 404 747 q 532 664 497 704 l 532 831 l 356 831 l 356 945 l 532 945 l 532 1042 l 696 1042 l 696 945 l 812 945 l 812 831 l 696 831 l 696 0 l 547 0 l 539 79 q 455 11 504 35 q 341 -14 406 -14 q 188 35 252 -14 q 89 168 123 83 q 54 359 54 252 m 218 373 l 218 359 q 234 238 218 292 q 287 151 251 183 q 382 119 323 119 q 475 144 438 119 q 532 211 511 170 l 532 524 q 475 591 511 566 q 384 616 439 616 q 288 583 325 616 q 235 495 252 550 q 218 373 218 440 z "},"°":{"ha":531,"x_min":87,"x_max":444,"o":"m 87 820 q 112 911 87 869 q 177 977 136 952 q 267 1002 218 1002 q 355 977 315 1002 q 419 911 395 952 q 444 820 444 869 q 419 730 444 770 q 355 665 395 689 q 267 641 315 641 q 177 665 218 641 q 112 730 136 689 q 87 820 87 770 m 179 820 q 205 758 179 783 q 267 734 231 734 q 327 758 302 734 q 351 820 351 783 q 327 883 351 858 q 267 908 302 908 q 205 883 231 908 q 179 820 179 858 z "},"¨":{"ha":620,"x_min":67,"x_max":551,"o":"m 67 928 q 90 984 67 962 q 151 1007 113 1007 q 213 984 190 1007 q 236 928 236 962 q 213 873 236 896 q 151 850 190 850 q 90 873 113 850 q 67 928 67 896 m 381 928 q 404 984 381 961 q 466 1006 427 1006 q 527 984 504 1006 q 551 928 551 961 q 527 872 551 895 q 466 850 504 850 q 404 872 427 850 q 381 928 381 895 z "},"÷":{"ha":800,"x_min":87,"x_max":712,"o":"m 311 589 q 338 654 311 627 q 402 682 365 682 q 467 654 440 682 q 494 589 494 627 q 467 525 494 552 q 402 498 440 498 q 338 525 365 498 q 311 589 311 551 m 87 291 l 87 418 l 712 418 l 712 291 l 87 291 m 311 116 q 338 180 311 153 q 402 208 365 208 q 467 180 440 208 q 494 116 494 153 q 467 52 494 79 q 402 24 440 24 q 338 51 365 24 q 311 116 311 77 z "},"$":{"ha":789,"x_min":68,"x_max":721,"o":"m 557 257 q 520 354 557 315 q 393 425 484 393 q 241 493 305 455 q 141 588 176 532 q 105 730 105 645 q 175 915 105 844 q 363 999 245 987 l 363 1145 l 467 1145 l 467 998 q 650 901 583 982 q 717 683 717 820 l 554 683 q 516 819 554 770 q 409 869 477 869 q 303 830 336 869 q 269 730 269 791 q 304 635 269 672 q 435 563 340 598 q 587 493 523 532 q 686 399 651 455 q 721 258 721 343 q 648 71 721 140 q 454 -12 576 1 l 454 -144 l 351 -144 l 351 -12 q 213 29 278 -4 q 108 129 149 62 q 68 300 68 195 l 232 300 q 257 190 232 230 q 321 135 282 151 q 400 119 359 119 q 517 157 477 119 q 557 257 557 195 z "},"˙":{"ha":354,"x_min":87,"x_max":264,"o":"m 87 930 q 111 989 87 966 q 176 1013 134 1013 q 241 989 217 1013 q 264 930 264 966 q 241 872 264 895 q 176 849 217 849 q 111 872 134 849 q 87 930 87 895 z "},"̣":{"ha":0,"x_min":-500,"x_max":-314,"o":"m -500 -163 q -476 -104 -500 -127 q -408 -80 -451 -80 q -339 -104 -363 -80 q -314 -163 -314 -127 q -339 -221 -314 -197 q -408 -245 -363 -245 q -476 -221 -451 -245 q -500 -163 -500 -197 z "},"ı":{"ha":363,"x_min":98,"x_max":261,"o":"m 261 734 l 261 0 l 98 0 l 98 734 l 261 734 z "},"e":{"ha":744,"x_min":55,"x_max":701,"o":"m 408 -14 q 220 33 299 -14 q 98 160 140 80 q 55 342 55 241 l 55 369 q 98 569 55 484 q 217 701 142 654 q 388 747 293 747 q 563 702 493 747 q 667 575 632 656 q 701 388 701 494 l 701 318 l 220 318 q 278 173 227 231 q 417 116 330 116 q 522 140 476 116 q 602 207 568 163 l 688 123 q 584 29 653 71 q 408 -14 515 -14 m 387 617 q 276 569 318 617 q 223 435 235 520 l 540 435 l 540 448 q 523 531 538 492 q 474 593 507 570 q 387 617 441 617 z "},"é":{"ha":744,"x_min":55,"x_max":701,"o":"m 408 -14 q 220 33 299 -14 q 98 160 140 80 q 55 342 55 241 l 55 369 q 98 569 55 484 q 217 701 142 654 q 388 747 293 747 q 563 702 493 747 q 667 575 632 656 q 701 388 701 494 l 701 318 l 220 318 q 278 173 227 231 q 417 116 330 116 q 522 140 476 116 q 602 207 568 163 l 688 123 q 584 29 653 71 q 408 -14 515 -14 m 387 617 q 276 569 318 617 q 223 435 235 520 l 540 435 l 540 448 q 523 531 538 492 q 474 593 507 570 q 387 617 441 617 m 294 838 l 426 1042 l 610 1042 l 426 838 l 294 838 z "},"ĕ":{"ha":744,"x_min":55,"x_max":701,"o":"m 408 -14 q 220 33 299 -14 q 98 160 140 80 q 55 342 55 241 l 55 369 q 98 569 55 484 q 217 701 142 654 q 388 747 293 747 q 563 702 493 747 q 667 575 632 656 q 701 388 701 494 l 701 318 l 220 318 q 278 173 227 231 q 417 116 330 116 q 522 140 476 116 q 602 207 568 163 l 688 123 q 584 29 653 71 q 408 -14 515 -14 m 387 617 q 276 569 318 617 q 223 435 235 520 l 540 435 l 540 448 q 523 531 538 492 q 474 593 507 570 q 387 617 441 617 m 475 1025 l 596 1025 q 537 887 596 941 q 376 833 477 833 q 215 887 274 833 q 155 1025 155 941 l 277 1025 q 299 958 277 987 q 376 929 321 929 q 452 958 429 929 q 475 1025 475 987 z "},"ě":{"ha":744,"x_min":55,"x_max":701,"o":"m 408 -14 q 220 33 299 -14 q 98 160 140 80 q 55 342 55 241 l 55 369 q 98 569 55 484 q 217 701 142 654 q 388 747 293 747 q 563 702 493 747 q 667 575 632 656 q 701 388 701 494 l 701 318 l 220 318 q 278 173 227 231 q 417 116 330 116 q 522 140 476 116 q 602 207 568 163 l 688 123 q 584 29 653 71 q 408 -14 515 -14 m 387 617 q 276 569 318 617 q 223 435 235 520 l 540 435 l 540 448 q 523 531 538 492 q 474 593 507 570 q 387 617 441 617 m 273 1042 l 375 935 l 476 1042 l 616 1042 l 616 1034 l 427 846 l 323 846 l 134 1035 l 134 1042 l 273 1042 z "},"ê":{"ha":744,"x_min":55,"x_max":701,"o":"m 408 -14 q 220 33 299 -14 q 98 160 140 80 q 55 342 55 241 l 55 369 q 98 569 55 484 q 217 701 142 654 q 388 747 293 747 q 563 702 493 747 q 667 575 632 656 q 701 388 701 494 l 701 318 l 220 318 q 278 173 227 231 q 417 116 330 116 q 522 140 476 116 q 602 207 568 163 l 688 123 q 584 29 653 71 q 408 -14 515 -14 m 387 617 q 276 569 318 617 q 223 435 235 520 l 540 435 l 540 448 q 523 531 538 492 q 474 593 507 570 q 387 617 441 617 m 424 1042 l 612 854 l 612 847 l 479 847 l 376 954 l 272 847 l 142 847 l 142 856 l 328 1042 l 424 1042 z "},"ë":{"ha":744,"x_min":55,"x_max":701,"o":"m 408 -14 q 220 33 299 -14 q 98 160 140 80 q 55 342 55 241 l 55 369 q 98 569 55 484 q 217 701 142 654 q 388 747 293 747 q 563 702 493 747 q 667 575 632 656 q 701 388 701 494 l 701 318 l 220 318 q 278 173 227 231 q 417 116 330 116 q 522 140 476 116 q 602 207 568 163 l 688 123 q 584 29 653 71 q 408 -14 515 -14 m 387 617 q 276 569 318 617 q 223 435 235 520 l 540 435 l 540 448 q 523 531 538 492 q 474 593 507 570 q 387 617 441 617 m 134 928 q 157 984 134 962 q 218 1007 180 1007 q 280 984 257 1007 q 303 928 303 962 q 280 873 303 896 q 218 850 257 850 q 157 873 180 850 q 134 928 134 896 m 448 928 q 471 984 448 961 q 533 1006 494 1006 q 594 984 571 1006 q 618 928 618 961 q 594 872 618 895 q 533 850 571 850 q 471 872 494 850 q 448 928 448 895 z "},"ė":{"ha":744,"x_min":55,"x_max":701,"o":"m 408 -14 q 220 33 299 -14 q 98 160 140 80 q 55 342 55 241 l 55 369 q 98 569 55 484 q 217 701 142 654 q 388 747 293 747 q 563 702 493 747 q 667 575 632 656 q 701 388 701 494 l 701 318 l 220 318 q 278 173 227 231 q 417 116 330 116 q 522 140 476 116 q 602 207 568 163 l 688 123 q 584 29 653 71 q 408 -14 515 -14 m 387 617 q 276 569 318 617 q 223 435 235 520 l 540 435 l 540 448 q 523 531 538 492 q 474 593 507 570 q 387 617 441 617 m 287 937 q 310 995 287 972 q 375 1019 334 1019 q 440 995 416 1019 q 464 937 464 972 q 440 878 464 901 q 375 855 416 855 q 310 878 334 855 q 287 937 287 901 z "},"è":{"ha":744,"x_min":55,"x_max":701,"o":"m 408 -14 q 220 33 299 -14 q 98 160 140 80 q 55 342 55 241 l 55 369 q 98 569 55 484 q 217 701 142 654 q 388 747 293 747 q 563 702 493 747 q 667 575 632 656 q 701 388 701 494 l 701 318 l 220 318 q 278 173 227 231 q 417 116 330 116 q 522 140 476 116 q 602 207 568 163 l 688 123 q 584 29 653 71 q 408 -14 515 -14 m 387 617 q 276 569 318 617 q 223 435 235 520 l 540 435 l 540 448 q 523 531 538 492 q 474 593 507 570 q 387 617 441 617 m 328 1042 l 460 838 l 324 838 l 143 1042 l 328 1042 z "},"…":{"ha":983,"x_min":98,"x_max":917,"o":"m 98 103 q 129 176 98 146 q 203 206 160 206 q 278 176 248 206 q 309 103 309 146 q 278 30 309 60 q 203 0 247 0 q 129 30 159 0 q 98 103 98 59 m 408 103 q 438 176 408 146 q 513 206 469 206 q 587 176 557 206 q 618 103 618 146 q 587 30 618 60 q 513 0 556 0 q 438 30 469 0 q 408 103 408 59 m 707 103 q 738 176 707 146 q 812 206 768 206 q 886 176 856 206 q 917 103 917 146 q 886 30 917 60 q 812 0 855 0 q 737 30 768 0 q 707 103 707 59 z "},"ē":{"ha":744,"x_min":55,"x_max":701,"o":"m 408 -14 q 220 33 299 -14 q 98 160 140 80 q 55 342 55 241 l 55 369 q 98 569 55 484 q 217 701 142 654 q 388 747 293 747 q 563 702 493 747 q 667 575 632 656 q 701 388 701 494 l 701 318 l 220 318 q 278 173 227 231 q 417 116 330 116 q 522 140 476 116 q 602 207 568 163 l 688 123 q 584 29 653 71 q 408 -14 515 -14 m 387 617 q 276 569 318 617 q 223 435 235 520 l 540 435 l 540 448 q 523 531 538 492 q 474 593 507 570 q 387 617 441 617 m 608 985 l 608 881 l 147 881 l 147 985 l 608 985 z "},"—":{"ha":1085,"x_min":89,"x_max":996,"o":"m 996 289 l 89 289 l 89 414 l 996 414 l 996 289 z "},"–":{"ha":912,"x_min":89,"x_max":823,"o":"m 823 289 l 89 289 l 89 414 l 823 414 l 823 289 z "},"ŋ":{"ha":785,"x_min":85,"x_max":699,"o":"m 699 -42 q 634 -231 699 -165 q 458 -296 570 -296 q 413 -294 434 -296 q 369 -285 393 -292 l 378 -154 q 412 -160 392 -158 q 446 -162 431 -162 q 534 -42 534 -162 l 534 454 q 500 581 534 545 q 401 616 465 616 q 309 595 347 616 q 248 541 271 575 l 248 0 l 85 0 l 85 734 l 235 734 l 244 630 q 334 716 279 685 q 457 747 388 747 q 632 680 566 747 q 699 455 699 612 l 699 -42 z "},"ę":{"ha":744,"x_min":55,"x_max":701,"o":"m 583 -240 q 539 -260 566 -250 q 472 -270 513 -270 q 371 -236 412 -270 q 329 -135 329 -201 q 341 -73 329 -104 q 382 -13 353 -41 q 208 41 281 -7 q 95 166 134 88 q 55 342 55 245 l 55 369 q 98 569 55 484 q 217 701 142 654 q 388 747 293 747 q 563 702 493 747 q 667 575 632 656 q 701 388 701 494 l 701 318 l 220 318 q 278 173 227 231 q 417 116 330 116 q 522 140 476 116 q 602 207 568 163 l 688 123 q 638 67 669 94 q 567 20 608 39 l 568 20 q 489 -43 520 -11 q 458 -115 458 -75 q 469 -149 458 -136 q 507 -162 479 -162 q 542 -157 527 -162 q 567 -146 557 -151 l 583 -240 m 387 617 q 276 569 318 617 q 223 435 235 520 l 540 435 l 540 448 q 523 531 538 492 q 474 593 507 570 q 387 617 441 617 z "},"=":{"ha":772,"x_min":98,"x_max":683,"o":"m 683 421 l 98 421 l 98 546 l 683 546 l 683 421 m 683 154 l 98 154 l 98 278 l 683 278 l 683 154 z "},"℮":{"ha":882,"x_min":102,"x_max":793,"o":"m 707 134 l 708 64 q 587 7 651 28 q 457 -14 524 -14 q 319 16 383 -14 q 205 98 254 46 q 129 220 157 151 q 102 367 102 289 q 132 514 102 446 q 213 635 162 583 q 327 718 264 688 q 457 747 391 747 q 626 700 550 747 q 748 569 703 652 q 793 380 793 486 l 793 349 l 272 349 l 272 126 q 357 72 309 92 q 457 52 404 52 q 584 72 520 52 q 707 134 647 92 m 457 684 q 358 661 406 684 q 272 601 311 639 l 272 413 l 638 413 l 638 607 q 556 663 603 642 q 457 684 509 684 z "},"ð":{"ha":806,"x_min":71,"x_max":739,"o":"m 166 942 l 217 1072 q 498 946 378 1037 l 620 1025 l 670 954 l 566 886 q 694 688 648 802 q 739 435 739 574 l 739 377 q 695 173 739 261 q 576 36 652 85 q 403 -14 500 -14 q 230 31 304 -14 q 113 150 155 75 q 71 317 71 225 q 108 497 71 420 q 214 617 146 574 q 375 659 283 659 q 473 642 427 659 q 554 596 518 625 q 506 709 536 659 q 435 798 475 759 l 296 707 l 245 780 l 363 857 q 268 907 318 886 q 166 942 218 928 m 234 317 q 254 220 234 266 q 312 145 274 174 q 406 117 351 117 q 531 188 486 117 q 575 368 575 260 l 575 436 q 574 462 575 449 q 515 512 555 490 q 412 534 474 534 q 280 475 326 534 q 234 317 234 417 z "},"!":{"ha":392,"x_min":91,"x_max":301,"o":"m 116 944 l 279 944 l 264 312 l 132 312 l 116 944 m 91 104 q 122 177 91 147 q 196 207 153 207 q 271 177 240 207 q 301 104 301 147 q 271 31 301 60 q 196 1 240 1 q 121 30 152 1 q 91 104 91 60 z "},"‼":{"ha":735,"x_min":91,"x_max":669,"o":"m 116 944 l 279 944 l 264 312 l 132 312 l 116 944 m 91 104 q 122 177 91 147 q 196 207 153 207 q 271 177 240 207 q 301 104 301 147 q 271 31 301 60 q 196 1 240 1 q 121 30 152 1 q 91 104 91 60 m 484 944 l 647 944 l 632 312 l 499 312 l 484 944 m 458 104 q 489 177 458 147 q 564 207 520 207 q 638 177 608 207 q 669 104 669 147 q 638 31 669 60 q 564 1 608 1 q 489 30 519 1 q 458 104 458 60 z "},"¡":{"ha":368,"x_min":90,"x_max":277,"o":"m 277 660 q 253 597 277 623 q 184 572 228 572 q 115 597 140 572 q 90 660 90 623 q 115 722 90 696 q 184 747 140 747 q 253 722 228 747 q 277 660 277 696 m 99 -248 l 116 449 l 256 449 l 273 -248 l 99 -248 z "},"f":{"ha":490,"x_min":29,"x_max":492,"o":"m 305 0 l 142 0 l 142 614 l 29 614 l 29 734 l 142 734 l 142 804 q 210 991 142 926 q 397 1056 279 1056 q 446 1053 422 1056 q 492 1044 469 1049 l 488 918 q 424 924 461 924 q 336 893 368 924 q 305 804 305 862 l 305 734 l 456 734 l 456 614 l 305 614 l 305 0 z "},"ﬃ":{"ha":1242,"x_min":29,"x_max":1146,"o":"m 305 0 l 142 0 l 142 614 l 29 614 l 29 734 l 142 734 l 142 804 q 210 991 142 926 q 397 1056 279 1056 q 446 1053 422 1056 q 492 1044 469 1049 l 488 918 q 424 924 461 924 q 336 893 368 924 q 305 804 305 862 l 305 734 l 562 734 l 562 781 q 641 985 562 915 q 859 1056 720 1056 q 964 1044 913 1056 q 1068 1015 1015 1033 l 1043 882 q 967 904 1009 894 q 870 915 924 915 q 726 781 726 915 l 726 734 l 873 734 l 873 614 l 726 614 l 726 0 l 562 0 l 562 614 l 305 614 l 305 0 m 1146 734 l 1146 0 l 982 0 l 982 734 l 1146 734 z "},"ﬄ":{"ha":1242,"x_min":29,"x_max":1146,"o":"m 305 0 l 142 0 l 142 614 l 29 614 l 29 734 l 142 734 l 142 804 q 210 991 142 926 q 397 1056 279 1056 q 446 1053 422 1056 q 492 1044 469 1049 l 488 918 q 424 924 461 924 q 336 893 368 924 q 305 804 305 862 l 305 734 l 562 734 l 562 800 q 635 990 562 924 q 841 1056 708 1056 q 929 1051 876 1056 q 1040 1039 983 1046 q 1146 1025 1098 1032 l 1146 0 l 982 0 l 982 914 q 918 921 948 919 q 860 924 887 924 q 760 892 795 924 q 726 800 726 860 l 726 734 l 877 734 l 877 614 l 726 614 l 726 0 l 562 0 l 562 614 l 305 614 l 305 0 z "},"ﬂ":{"ha":823,"x_min":29,"x_max":726,"o":"m 305 0 l 142 0 l 142 614 l 29 614 l 29 734 l 142 734 l 142 800 q 215 990 142 924 q 420 1056 288 1056 q 509 1051 456 1056 q 620 1039 562 1046 q 726 1025 677 1032 l 726 0 l 562 0 l 562 914 q 497 921 528 919 q 439 924 467 924 q 340 892 374 924 q 305 800 305 860 l 305 734 l 456 734 l 456 614 l 305 614 l 305 0 z "},"ﬁ":{"ha":812,"x_min":18,"x_max":714,"o":"m 294 0 l 130 0 l 130 614 l 18 614 l 18 734 l 130 734 l 130 781 q 209 985 130 915 q 427 1056 288 1056 q 532 1044 481 1056 q 637 1015 583 1033 l 612 882 q 535 904 577 894 q 438 915 493 915 q 294 781 294 915 l 294 734 l 441 734 l 441 614 l 294 614 l 294 0 m 714 734 l 714 0 l 551 0 l 551 734 l 714 734 z "},"‒":{"ha":695,"x_min":89,"x_max":606,"o":"m 606 289 l 89 289 l 89 414 l 606 414 l 606 289 z "},"⅝":{"ha":1183,"x_min":64,"x_max":1103,"o":"m 175 684 l 77 708 l 112 982 l 446 982 l 446 884 l 213 884 l 198 779 q 235 791 210 784 q 290 798 260 798 q 426 753 378 798 q 474 625 474 707 q 452 534 474 576 q 385 466 430 492 q 269 439 339 439 q 171 458 218 439 q 95 512 124 477 q 64 596 65 547 l 187 596 q 212 552 189 565 q 269 538 234 538 q 333 564 315 538 q 351 625 351 589 q 327 688 351 664 q 259 711 304 711 q 205 702 224 711 q 175 684 186 692 m 865 846 l 383 75 l 299 123 l 781 895 l 865 846 m 1103 147 q 1045 31 1103 70 q 898 -7 987 -7 q 751 31 810 -7 q 692 147 692 70 q 716 224 692 192 q 783 276 741 257 q 725 323 746 294 q 705 392 705 353 q 759 504 705 466 q 897 543 813 543 q 1036 504 982 543 q 1090 392 1090 466 q 1070 323 1090 353 q 1013 275 1049 294 q 1079 224 1055 257 q 1103 147 1103 192 m 966 384 q 948 428 966 412 q 897 444 930 444 q 828 384 828 444 q 846 340 828 357 q 898 323 865 323 q 949 340 931 323 q 966 384 966 357 m 981 158 q 957 207 981 190 q 897 224 934 224 q 838 207 861 224 q 816 158 816 190 q 838 109 816 127 q 898 92 861 92 q 958 109 935 92 q 981 158 981 127 z "},"ƒ":{"ha":488,"x_min":-23,"x_max":491,"o":"m 440 734 l 440 614 l 300 614 l 300 -47 q 237 -232 300 -168 q 65 -296 175 -296 q 21 -294 41 -296 q -23 -285 0 -292 l -13 -158 q 19 -164 -3 -161 q 51 -166 40 -166 q 116 -135 95 -166 q 136 -47 136 -104 l 136 614 l 24 614 l 24 734 l 136 734 l 136 804 q 203 991 136 926 q 388 1056 269 1056 q 439 1052 414 1056 q 491 1042 465 1048 l 475 917 q 446 922 462 920 q 408 924 429 924 q 300 804 300 924 l 300 734 l 440 734 z "},"⁄":{"ha":625,"x_min":29,"x_max":595,"o":"m 595 846 l 113 75 l 29 123 l 511 895 l 595 846 z "},"₣":{"ha":765,"x_min":1,"x_max":730,"o":"m 673 555 l 673 420 l 271 420 l 271 0 l 100 0 l 100 987 l 730 987 l 730 852 l 271 852 l 271 555 l 673 555 m 456 275 l 456 163 l 1 163 l 1 275 l 456 275 z "},"g":{"ha":787,"x_min":56,"x_max":703,"o":"m 56 359 l 56 373 q 91 569 56 485 q 193 700 127 653 q 349 747 258 747 q 465 724 416 747 q 547 659 513 701 l 554 734 l 703 734 l 703 20 q 661 -148 703 -79 q 543 -253 618 -217 q 369 -290 468 -290 q 276 -277 327 -290 q 177 -238 224 -265 q 97 -168 129 -212 l 174 -72 q 260 -140 213 -119 q 360 -162 308 -162 q 491 -116 444 -162 q 539 17 539 -70 l 539 69 q 457 8 505 30 q 348 -14 410 -14 q 193 35 258 -14 q 91 168 127 83 q 56 359 56 252 m 219 373 l 219 359 q 237 238 219 292 q 292 151 255 183 q 389 119 330 119 q 482 143 446 119 q 539 207 518 167 l 539 530 q 482 592 518 569 q 390 616 446 616 q 293 583 331 616 q 237 495 256 550 q 219 373 219 440 z "},"ğ":{"ha":787,"x_min":56,"x_max":703,"o":"m 56 359 l 56 373 q 91 569 56 485 q 193 700 127 653 q 349 747 258 747 q 465 724 416 747 q 547 659 513 701 l 554 734 l 703 734 l 703 20 q 661 -148 703 -79 q 543 -253 618 -217 q 369 -290 468 -290 q 276 -277 327 -290 q 177 -238 224 -265 q 97 -168 129 -212 l 174 -72 q 260 -140 213 -119 q 360 -162 308 -162 q 491 -116 444 -162 q 539 17 539 -70 l 539 69 q 457 8 505 30 q 348 -14 410 -14 q 193 35 258 -14 q 91 168 127 83 q 56 359 56 252 m 219 373 l 219 359 q 237 238 219 292 q 292 151 255 183 q 389 119 330 119 q 482 143 446 119 q 539 207 518 167 l 539 530 q 482 592 518 569 q 390 616 446 616 q 293 583 331 616 q 237 495 256 550 q 219 373 219 440 m 475 1025 l 597 1025 q 537 887 597 941 q 377 833 478 833 q 215 887 275 833 q 156 1025 156 941 l 277 1025 q 300 958 277 987 q 377 929 322 929 q 453 958 430 929 q 475 1025 475 987 z "},"ĝ":{"ha":787,"x_min":56,"x_max":703,"o":"m 56 359 l 56 373 q 91 569 56 485 q 193 700 127 653 q 349 747 258 747 q 465 724 416 747 q 547 659 513 701 l 554 734 l 703 734 l 703 20 q 661 -148 703 -79 q 543 -253 618 -217 q 369 -290 468 -290 q 276 -277 327 -290 q 177 -238 224 -265 q 97 -168 129 -212 l 174 -72 q 260 -140 213 -119 q 360 -162 308 -162 q 491 -116 444 -162 q 539 17 539 -70 l 539 69 q 457 8 505 30 q 348 -14 410 -14 q 193 35 258 -14 q 91 168 127 83 q 56 359 56 252 m 219 373 l 219 359 q 237 238 219 292 q 292 151 255 183 q 389 119 330 119 q 482 143 446 119 q 539 207 518 167 l 539 530 q 482 592 518 569 q 390 616 446 616 q 293 583 331 616 q 237 495 256 550 q 219 373 219 440 m 425 1042 l 613 854 l 613 847 l 481 847 l 377 954 l 273 847 l 144 847 l 144 856 l 329 1042 l 425 1042 z "},"ģ":{"ha":787,"x_min":56,"x_max":703,"o":"m 56 359 l 56 373 q 91 569 56 485 q 193 700 127 653 q 349 747 258 747 q 465 724 416 747 q 547 659 513 701 l 554 734 l 703 734 l 703 20 q 661 -148 703 -79 q 543 -253 618 -217 q 369 -290 468 -290 q 276 -277 327 -290 q 177 -238 224 -265 q 97 -168 129 -212 l 174 -72 q 260 -140 213 -119 q 360 -162 308 -162 q 491 -116 444 -162 q 539 17 539 -70 l 539 69 q 457 8 505 30 q 348 -14 410 -14 q 193 35 258 -14 q 91 168 127 83 q 56 359 56 252 m 219 373 l 219 359 q 237 238 219 292 q 292 151 255 183 q 389 119 330 119 q 482 143 446 119 q 539 207 518 167 l 539 530 q 482 592 518 569 q 390 616 446 616 q 293 583 331 616 q 237 495 256 550 q 219 373 219 440 m 304 852 l 304 943 q 333 1066 304 1008 q 399 1154 362 1124 l 487 1099 q 455 1023 467 1063 q 444 935 444 983 l 443 852 l 304 852 z "},"ß":{"ha":854,"x_min":94,"x_max":802,"o":"m 256 749 l 256 0 l 94 0 l 94 751 q 174 979 94 902 q 390 1056 255 1056 q 528 1029 467 1056 q 626 950 589 1003 q 662 817 662 897 q 650 731 662 764 q 623 673 638 698 q 595 623 607 649 q 583 560 583 597 q 605 500 583 528 q 660 446 627 473 q 725 388 692 419 q 780 318 758 357 q 802 228 802 279 q 725 48 802 109 q 517 -14 649 -14 q 407 -1 464 -14 q 322 30 349 12 l 355 159 q 420 131 378 146 q 510 116 462 116 q 607 146 575 116 q 639 223 639 177 q 617 287 639 259 q 562 340 595 315 q 497 396 530 366 q 442 464 464 425 q 420 556 420 503 q 432 630 420 600 q 461 685 445 660 q 490 739 477 711 q 503 806 503 767 q 469 895 503 863 q 385 926 435 926 q 291 885 326 926 q 256 749 256 844 z "},"`":{"ha":445,"x_min":38,"x_max":355,"o":"m 223 1042 l 355 838 l 219 838 l 38 1042 l 223 1042 z "},"̀":{"ha":0,"x_min":-595,"x_max":-277,"o":"m -410 1042 l -277 838 l -414 838 l -595 1042 l -410 1042 z "},">":{"ha":722,"x_min":85,"x_max":671,"o":"m 85 272 l 507 431 l 85 589 l 85 747 l 671 495 l 671 366 l 85 114 l 85 272 z "},"≥":{"ha":722,"x_min":85,"x_max":671,"o":"m 85 340 l 507 480 l 85 618 l 85 754 l 671 534 l 671 424 l 85 203 l 85 340 m 662 125 l 662 0 l 85 0 l 85 125 l 662 125 z "},"«":{"ha":640,"x_min":63,"x_max":570,"o":"m 318 56 l 239 -20 q 107 164 151 83 q 63 321 63 245 q 106 479 63 398 q 239 662 150 559 l 318 586 q 228 439 258 500 q 197 321 197 378 q 228 204 197 265 q 318 56 258 142 m 570 56 l 491 -20 q 358 164 402 83 q 313 321 313 245 q 358 479 313 398 q 491 662 402 559 l 570 586 q 479 439 510 500 q 449 321 449 378 q 479 204 449 265 q 570 56 510 142 z "},"»":{"ha":640,"x_min":70,"x_max":576,"o":"m 321 56 q 412 204 382 142 q 443 321 443 265 q 412 439 443 378 q 321 586 382 500 l 401 662 q 533 479 490 559 q 576 321 576 398 q 533 164 576 245 q 401 -20 490 83 l 321 56 m 70 56 q 160 204 130 142 q 191 321 191 265 q 160 439 191 378 q 70 586 130 500 l 149 662 q 282 479 238 559 q 327 321 327 398 q 282 164 327 245 q 149 -20 238 83 l 70 56 z "},"‹":{"ha":426,"x_min":73,"x_max":380,"o":"m 380 635 l 212 365 l 380 94 l 268 94 l 73 359 l 73 372 l 268 635 l 380 635 z "},"›":{"ha":418,"x_min":58,"x_max":365,"o":"m 58 94 l 226 365 l 58 635 l 170 635 l 365 371 l 365 358 l 170 94 l 58 94 z "},"h":{"ha":772,"x_min":83,"x_max":690,"o":"m 245 1042 l 245 649 q 335 721 283 695 q 452 747 388 747 q 625 684 560 747 q 690 471 690 621 l 690 0 l 526 0 l 526 473 q 492 584 526 552 q 395 616 458 616 q 304 590 342 616 q 245 524 267 565 l 245 0 l 83 0 l 83 1042 l 245 1042 z "},"ħ":{"ha":792,"x_min":-7,"x_max":711,"o":"m 448 943 l 448 831 l 266 831 l 266 649 q 356 721 303 695 q 472 747 408 747 q 646 684 581 747 q 711 471 711 621 l 711 0 l 547 0 l 547 473 q 513 584 547 552 q 416 616 479 616 q 325 590 362 616 q 266 524 288 565 l 266 0 l 103 0 l 103 831 l -7 831 l -7 943 l 103 943 l 103 1042 l 266 1042 l 266 943 l 448 943 z "},"ĥ":{"ha":772,"x_min":83,"x_max":690,"o":"m 245 1042 l 245 649 q 335 721 283 695 q 452 747 388 747 q 625 684 560 747 q 690 471 690 621 l 690 0 l 526 0 l 526 473 q 492 584 526 552 q 395 616 458 616 q 304 590 342 616 q 245 524 267 565 l 245 0 l 83 0 l 83 1042 l 245 1042 m 397 1280 l 585 1093 l 585 1085 l 452 1085 l 349 1192 l 245 1085 l 115 1085 l 115 1094 l 300 1280 l 397 1280 z "},"̉":{"ha":0,"x_min":-481,"x_max":-242,"o":"m -346 850 l -467 850 l -473 947 q -400 961 -422 950 q -377 996 -377 971 q -407 1034 -377 1023 q -481 1044 -437 1044 l -477 1126 q -302 1092 -361 1126 q -242 997 -242 1057 q -275 925 -242 947 q -346 897 -307 902 l -346 850 z "},"˝":{"ha":548,"x_min":51,"x_max":581,"o":"m 268 836 l 422 1041 l 581 1041 l 399 836 l 268 836 m 51 836 l 173 1041 l 328 1041 l 175 836 l 51 836 z "},"-":{"ha":658,"x_min":87,"x_max":570,"o":"m 570 288 l 87 288 l 87 415 l 570 415 l 570 288 z "},"‐":{"ha":471,"x_min":87,"x_max":570,"o":"m 570 288 l 87 288 l 87 415 l 570 415 l 570 288 z "},"‧":{"ha":314,"x_min":64,"x_max":251,"o":"m 64 422 q 89 485 64 460 q 157 509 113 509 q 226 485 201 509 q 251 422 251 460 q 226 361 251 385 q 157 336 201 336 q 89 361 113 336 q 64 422 64 385 z "},"‑":{"ha":471,"x_min":87,"x_max":570,"o":"m 570 288 l 87 288 l 87 415 l 570 415 l 570 288 z "},"i":{"ha":354,"x_min":84,"x_max":271,"o":"m 84 926 q 109 988 84 964 q 178 1013 134 1013 q 246 988 221 1013 q 271 926 271 964 q 246 865 271 890 q 178 841 221 841 q 109 865 134 841 q 84 926 84 890 m 259 734 l 259 0 l 95 0 l 95 734 l 259 734 z "},"í":{"ha":363,"x_min":98,"x_max":416,"o":"m 261 734 l 261 0 l 98 0 l 98 734 l 261 734 m 99 831 l 231 1036 l 416 1036 l 231 831 l 99 831 z "},"ĭ":{"ha":363,"x_min":-39,"x_max":401,"o":"m 261 734 l 261 0 l 98 0 l 98 734 l 261 734 m 280 1019 l 401 1019 q 342 881 401 935 q 182 827 283 827 q 20 881 79 827 q -39 1019 -39 935 l 82 1019 q 104 952 82 981 q 182 923 127 923 q 257 952 235 923 q 280 1019 280 981 z "},"î":{"ha":363,"x_min":-52,"x_max":418,"o":"m 261 734 l 261 0 l 98 0 l 98 734 l 261 734 m 230 1036 l 418 848 l 418 841 l 286 841 l 182 947 l 78 841 l -52 841 l -52 850 l 134 1036 l 230 1036 z "},"ï":{"ha":363,"x_min":-60,"x_max":424,"o":"m 261 734 l 261 0 l 98 0 l 98 734 l 261 734 m -60 922 q -37 978 -60 956 q 24 1001 -14 1001 q 86 978 63 1001 q 109 922 109 956 q 86 867 109 890 q 24 844 63 844 q -37 867 -14 844 q -60 922 -60 890 m 254 922 q 277 978 254 955 q 339 1000 300 1000 q 400 978 377 1000 q 424 922 424 955 q 400 866 424 888 q 339 844 377 844 q 277 866 300 844 q 254 922 254 888 z "},"ì":{"ha":363,"x_min":-52,"x_max":266,"o":"m 261 734 l 261 0 l 98 0 l 98 734 l 261 734 m 134 1036 l 266 831 l 130 831 l -52 1036 l 134 1036 z "},"ĳ":{"ha":702,"x_min":84,"x_max":619,"o":"m 84 926 q 109 988 84 964 q 178 1013 134 1013 q 246 988 221 1013 q 271 926 271 964 q 246 865 271 890 q 178 841 221 841 q 109 865 134 841 q 84 926 84 890 m 259 734 l 259 0 l 95 0 l 95 734 l 259 734 m 432 926 q 457 988 432 964 q 526 1013 482 1013 q 594 988 570 1013 q 619 926 619 964 q 594 865 619 890 q 526 841 570 841 q 457 865 482 841 q 432 926 432 890 m 446 734 l 610 734 l 610 -64 q 553 -236 610 -176 q 386 -296 495 -296 q 296 -285 339 -296 l 297 -157 q 357 -163 326 -163 q 424 -140 401 -163 q 446 -64 446 -117 l 446 734 z "},"ī":{"ha":363,"x_min":-47,"x_max":414,"o":"m 261 734 l 261 0 l 98 0 l 98 734 l 261 734 m 414 979 l 414 875 l -47 875 l -47 979 l 414 979 z "},"∞":{"ha":1444,"x_min":66,"x_max":1374,"o":"m 66 359 l 66 374 q 107 561 66 476 q 225 696 149 646 q 405 747 302 747 q 546 714 486 747 q 649 629 606 681 q 720 523 692 578 q 790 629 747 578 q 893 714 833 681 q 1035 747 954 747 q 1214 696 1138 747 q 1332 561 1290 646 q 1374 374 1374 476 l 1374 359 q 1332 172 1374 257 q 1214 37 1290 87 q 1034 -14 1137 -14 q 893 20 953 -14 q 790 106 833 54 q 720 214 747 159 q 649 106 692 159 q 547 20 607 54 q 406 -14 487 -14 q 226 37 302 -14 q 108 172 150 87 q 66 359 66 257 m 227 374 l 227 359 q 248 238 227 292 q 311 151 269 183 q 412 119 352 119 q 507 149 467 119 q 575 220 548 178 q 617 301 602 262 q 635 357 632 340 l 635 381 q 617 436 632 398 q 575 515 602 474 q 507 586 548 557 q 410 615 467 615 q 310 582 351 615 q 248 495 269 549 q 227 374 227 440 m 1213 359 l 1213 374 q 1192 495 1213 440 q 1129 582 1171 549 q 1029 615 1088 615 q 932 586 973 615 q 864 515 891 557 q 822 436 837 474 q 804 381 808 398 l 804 357 q 822 301 807 340 q 864 220 837 262 q 932 149 891 178 q 1028 119 972 119 q 1129 151 1088 119 q 1192 238 1170 183 q 1213 359 1213 292 z "},"∫":{"ha":381,"x_min":-60,"x_max":461,"o":"m 270 -52 q 206 -236 270 -176 q 30 -296 142 -296 q -60 -284 -18 -296 l -49 -158 q -22 -163 -37 -161 q 8 -166 -7 -166 q 81 -139 56 -166 q 106 -52 106 -112 l 106 806 q 173 992 106 928 q 358 1056 240 1056 q 409 1052 384 1056 q 461 1042 435 1048 l 445 919 q 417 924 432 922 q 381 926 402 926 q 298 895 327 926 q 270 806 270 863 l 270 -52 z "},"į":{"ha":354,"x_min":-1,"x_max":271,"o":"m 84 926 q 109 988 84 964 q 178 1013 134 1013 q 246 988 221 1013 q 271 926 271 964 q 246 865 271 890 q 178 841 221 841 q 109 865 134 841 q 84 926 84 890 m 259 734 l 259 0 l 95 0 l 95 734 l 259 734 m 160 39 l 238 0 q 160 -63 191 -31 q 129 -136 129 -95 q 139 -169 129 -156 q 177 -182 150 -182 q 213 -177 197 -182 q 237 -166 228 -171 l 253 -260 q 210 -280 236 -271 q 142 -290 183 -290 q 41 -256 83 -290 q -1 -155 -1 -221 q 36 -52 -1 -102 q 160 39 72 -1 z "},"ĩ":{"ha":363,"x_min":-67,"x_max":429,"o":"m 261 734 l 261 0 l 98 0 l 98 734 l 261 734 m 330 1027 l 429 1020 q 387 897 429 946 q 279 848 344 848 q 208 863 235 848 q 156 894 180 879 q 95 909 132 909 q 51 890 69 909 q 33 840 33 871 l -67 845 q -24 968 -67 918 q 83 1019 18 1019 q 149 1003 120 1019 q 205 972 177 988 q 267 957 233 957 q 311 977 293 957 q 330 1027 330 996 z "},"j":{"ha":349,"x_min":-58,"x_max":265,"o":"m 78 926 q 103 988 78 964 q 172 1013 128 1013 q 240 988 216 1013 q 265 926 265 964 q 240 865 265 890 q 172 841 216 841 q 103 865 128 841 q 78 926 78 890 m 92 734 l 256 734 l 256 -64 q 199 -236 256 -176 q 32 -296 141 -296 q -58 -285 -15 -296 l -57 -157 q 3 -163 -28 -163 q 70 -140 47 -163 q 92 -64 92 -117 l 92 734 z "},"ĵ":{"ha":372,"x_min":-56,"x_max":419,"o":"m 109 734 l 273 734 l 273 -42 q 209 -231 273 -165 q 33 -296 145 -296 q -12 -294 9 -296 q -56 -285 -33 -292 l -46 -158 q -14 -164 -33 -162 q 20 -166 6 -166 q 86 -134 62 -166 q 109 -42 109 -102 l 109 734 m 231 1019 l 419 831 l 419 824 l 287 824 l 183 930 l 79 824 l -50 824 l -50 833 l 135 1019 l 231 1019 z "},"k":{"ha":724,"x_min":85,"x_max":732,"o":"m 543 0 l 323 317 l 249 240 l 249 0 l 85 0 l 85 1042 l 249 1042 l 249 439 l 300 503 l 507 734 l 705 734 l 429 429 l 732 0 l 543 0 z "},"ķ":{"ha":724,"x_min":85,"x_max":732,"o":"m 543 0 l 323 317 l 249 240 l 249 0 l 85 0 l 85 1042 l 249 1042 l 249 439 l 300 503 l 507 734 l 705 734 l 429 429 l 732 0 l 543 0 m 438 -33 l 438 -83 q 412 -206 438 -142 q 340 -312 386 -270 l 256 -261 q 293 -182 279 -223 q 307 -90 307 -142 l 307 -33 l 438 -33 z "},"ĸ":{"ha":799,"x_min":96,"x_max":768,"o":"m 560 0 l 338 292 l 259 292 l 259 0 l 96 0 l 96 734 l 259 734 l 259 440 l 321 440 l 547 734 l 751 734 l 472 380 l 768 0 l 560 0 z "},"l":{"ha":354,"x_min":95,"x_max":259,"o":"m 259 1042 l 259 0 l 95 0 l 95 1042 l 259 1042 z "},"ĺ":{"ha":354,"x_min":95,"x_max":412,"o":"m 259 1042 l 259 0 l 95 0 l 95 1042 l 259 1042 m 95 1109 l 227 1313 l 412 1313 l 227 1109 l 95 1109 z "},"ľ":{"ha":456,"x_min":95,"x_max":499,"o":"m 259 1042 l 259 0 l 95 0 l 95 1042 l 259 1042 m 499 1043 l 499 992 q 473 869 499 933 q 401 764 447 806 l 317 814 q 354 893 340 852 q 368 986 368 934 l 368 1043 l 499 1043 z "},"ļ":{"ha":354,"x_min":60,"x_max":259,"o":"m 259 1042 l 259 0 l 95 0 l 95 1042 l 259 1042 m 243 -64 l 243 -115 q 217 -237 243 -174 q 145 -343 191 -301 l 60 -292 q 98 -214 84 -254 q 111 -121 111 -173 l 111 -64 l 243 -64 z "},"ŀ":{"ha":503,"x_min":95,"x_max":507,"o":"m 259 1042 l 259 0 l 95 0 l 95 1042 l 259 1042 m 330 527 q 353 586 330 562 q 418 609 376 609 q 483 586 459 609 q 507 527 507 562 q 483 469 507 492 q 418 446 459 446 q 353 469 376 446 q 330 527 330 492 z "},"<":{"ha":707,"x_min":42,"x_max":614,"o":"m 614 586 l 210 429 l 614 274 l 614 113 l 42 366 l 42 494 l 614 746 l 614 586 z "},"≤":{"ha":707,"x_min":41,"x_max":618,"o":"m 614 607 l 210 469 l 614 334 l 614 195 l 42 415 l 42 526 l 614 745 l 614 607 m 618 125 l 618 1 l 41 1 l 41 125 l 618 125 z "},"₤":{"ha":817,"x_min":66,"x_max":777,"o":"m 555 414 l 555 318 l 351 318 l 352 284 q 342 202 353 240 q 307 135 331 164 l 777 135 l 777 0 l 67 0 l 67 135 l 126 135 q 160 164 149 140 q 177 219 172 188 q 181 278 181 250 l 180 318 l 66 318 l 66 414 l 176 414 l 174 498 l 66 498 l 66 594 l 170 594 l 167 705 q 205 864 167 798 q 313 966 244 930 q 471 1001 382 1001 q 689 925 612 1001 q 766 728 766 850 l 602 728 q 561 835 602 804 q 466 866 519 866 q 373 825 410 866 q 336 705 336 783 l 340 594 l 555 594 l 555 498 l 344 498 l 347 414 l 555 414 z "},"¬":{"ha":767,"x_min":86,"x_max":650,"o":"m 650 544 l 650 254 l 522 254 l 522 432 l 86 432 l 86 544 l 650 544 z "},"ſ":{"ha":352,"x_min":93,"x_max":448,"o":"m 256 0 l 93 0 l 93 804 q 160 991 93 926 q 344 1056 227 1056 q 396 1052 370 1056 q 448 1042 421 1048 l 431 919 q 403 924 418 922 q 367 926 388 926 q 285 894 313 926 q 256 804 256 862 l 256 0 z "},"◊":{"ha":704,"x_min":25,"x_max":680,"o":"m 25 493 l 285 987 l 420 987 l 680 493 l 421 0 l 286 0 l 25 493 m 190 493 l 354 170 l 515 493 l 352 817 l 190 493 z "},"ł":{"ha":403,"x_min":22,"x_max":381,"o":"m 381 640 l 381 543 l 279 507 l 279 0 l 116 0 l 116 449 l 22 416 l 22 513 l 116 547 l 116 1042 l 279 1042 l 279 604 l 381 640 z "},"m":{"ha":1210,"x_min":84,"x_max":1126,"o":"m 391 616 q 302 592 337 616 q 248 528 267 568 l 248 0 l 84 0 l 84 734 l 238 734 l 243 651 q 334 722 280 696 q 458 747 387 747 q 579 720 526 747 q 660 632 631 692 q 752 716 695 684 q 886 747 809 747 q 1062 684 998 747 q 1126 475 1126 621 l 1126 0 l 962 0 l 962 475 q 926 587 962 559 q 831 616 891 616 q 737 585 774 616 q 686 507 701 555 q 686 489 686 498 l 686 0 l 523 0 l 523 475 q 487 585 523 555 q 391 616 452 616 z "},"¯":{"ha":669,"x_min":106,"x_max":567,"o":"m 567 983 l 567 879 l 106 879 l 106 983 l 567 983 z "},"−":{"ha":658,"x_min":87,"x_max":570,"o":"m 570 288 l 87 288 l 87 415 l 570 415 l 570 288 z "},"′":{"ha":233,"x_min":56,"x_max":180,"o":"m 180 1042 l 180 954 l 162 693 l 56 693 l 56 943 l 56 1042 l 180 1042 z "},"µ":{"ha":825,"x_min":100,"x_max":719,"o":"m 100 734 l 262 734 l 262 313 q 280 189 262 231 q 329 132 298 147 q 398 117 359 117 q 498 140 461 117 q 555 203 536 163 l 555 734 l 719 734 l 719 0 l 568 0 l 563 59 q 492 5 534 24 q 398 -14 451 -14 q 262 25 315 -14 l 262 -282 l 100 -282 l 100 734 z "},"×":{"ha":712,"x_min":85,"x_max":627,"o":"m 266 349 l 86 533 l 175 625 l 356 441 l 537 625 l 626 533 l 446 349 l 627 165 l 538 73 l 356 258 l 174 73 l 85 165 l 266 349 z "},"n":{"ha":773,"x_min":83,"x_max":690,"o":"m 395 616 q 306 590 344 616 q 246 522 268 564 l 246 0 l 83 0 l 83 734 l 237 734 l 242 646 q 335 721 281 694 q 457 747 390 747 q 627 686 564 747 q 690 474 690 624 l 690 0 l 526 0 l 526 475 q 493 585 526 553 q 395 616 459 616 z "},"ń":{"ha":773,"x_min":83,"x_max":690,"o":"m 395 616 q 306 590 344 616 q 246 522 268 564 l 246 0 l 83 0 l 83 734 l 237 734 l 242 646 q 335 721 281 694 q 457 747 390 747 q 627 686 564 747 q 690 474 690 624 l 690 0 l 526 0 l 526 475 q 493 585 526 553 q 395 616 459 616 m 308 838 l 440 1042 l 625 1042 l 440 838 l 308 838 z "},"₦":{"ha":1116,"x_min":24,"x_max":1093,"o":"m 1093 443 l 1093 338 l 947 338 l 947 0 l 778 0 l 566 338 l 335 338 l 335 0 l 165 0 l 165 338 l 24 338 l 24 443 l 165 443 l 165 549 l 24 549 l 24 654 l 165 654 l 165 987 l 335 987 l 544 654 l 779 654 l 779 987 l 947 987 l 947 654 l 1093 654 l 1093 549 l 947 549 l 947 443 l 1093 443 m 335 707 l 335 654 l 368 654 l 335 707 m 335 443 l 500 443 l 435 549 l 335 549 l 335 443 m 676 443 l 779 443 l 779 549 l 610 549 l 676 443 m 779 279 l 779 338 l 742 338 l 779 279 z "},"ŉ":{"ha":773,"x_min":-63,"x_max":690,"o":"m 395 616 q 306 590 344 616 q 246 522 268 564 l 246 0 l 83 0 l 83 734 l 237 734 l 242 646 q 335 721 281 694 q 457 747 390 747 q 627 686 564 747 q 690 474 690 624 l 690 0 l 526 0 l 526 475 q 493 585 526 553 q 395 616 459 616 m 119 1044 l 119 993 q 93 870 119 934 q 22 764 67 806 l -63 815 q -26 894 -39 853 q -12 987 -12 935 l -12 1044 l 119 1044 z "}," ":{"ha":361,"x_min":0,"x_max":0,"o":""},"ň":{"ha":773,"x_min":83,"x_max":690,"o":"m 395 616 q 306 590 344 616 q 246 522 268 564 l 246 0 l 83 0 l 83 734 l 237 734 l 242 646 q 335 721 281 694 q 457 747 390 747 q 627 686 564 747 q 690 474 690 624 l 690 0 l 526 0 l 526 475 q 493 585 526 553 q 395 616 459 616 m 288 1042 l 389 935 l 490 1042 l 631 1042 l 631 1034 l 441 846 l 338 846 l 149 1035 l 149 1042 l 288 1042 z "},"ņ":{"ha":773,"x_min":83,"x_max":690,"o":"m 395 616 q 306 590 344 616 q 246 522 268 564 l 246 0 l 83 0 l 83 734 l 237 734 l 242 646 q 335 721 281 694 q 457 747 390 747 q 627 686 564 747 q 690 474 690 624 l 690 0 l 526 0 l 526 475 q 493 585 526 553 q 395 616 459 616 m 452 -64 l 452 -115 q 426 -237 452 -174 q 354 -343 399 -301 l 269 -292 q 307 -214 293 -254 q 320 -121 320 -173 l 320 -64 l 452 -64 z "},"≠":{"ha":781,"x_min":97,"x_max":686,"o":"m 686 376 l 686 241 l 317 241 l 231 86 l 157 127 l 221 241 l 97 241 l 97 376 l 296 376 l 382 529 l 97 529 l 97 663 l 457 663 l 547 824 l 620 783 l 553 663 l 686 663 l 686 529 l 478 529 l 392 376 l 686 376 z "},"ⁿ":{"ha":583,"x_min":70,"x_max":521,"o":"m 298 884 q 236 867 260 884 q 199 820 212 849 l 199 442 l 70 442 l 70 985 l 171 985 l 191 902 q 254 969 216 945 q 342 994 292 994 q 473 945 425 994 q 521 786 521 896 l 521 442 l 391 442 l 391 753 q 366 855 391 826 q 298 884 341 884 z "},"ñ":{"ha":773,"x_min":83,"x_max":690,"o":"m 395 616 q 306 590 344 616 q 246 522 268 564 l 246 0 l 83 0 l 83 734 l 237 734 l 242 646 q 335 721 281 694 q 457 747 390 747 q 627 686 564 747 q 690 474 690 624 l 690 0 l 526 0 l 526 475 q 493 585 526 553 q 395 616 459 616 m 538 1034 l 638 1026 q 595 903 638 952 q 488 854 553 854 q 416 869 444 854 q 365 900 389 885 q 304 916 340 916 q 260 897 278 916 q 242 846 242 878 l 142 851 q 184 975 142 924 q 292 1025 227 1025 q 357 1009 329 1025 q 414 979 386 994 q 476 963 441 963 q 520 983 502 963 q 538 1034 538 1002 z "},"#":{"ha":838,"x_min":58,"x_max":815,"o":"m 165 0 l 216 278 l 58 278 l 58 383 l 236 383 l 276 600 l 110 600 l 110 705 l 295 705 l 347 987 l 458 987 l 406 705 l 559 705 l 612 987 l 723 987 l 671 705 l 815 705 l 815 600 l 652 600 l 612 383 l 764 383 l 764 278 l 592 278 l 541 0 l 430 0 l 481 278 l 328 278 l 277 0 l 165 0 m 347 383 l 500 383 l 541 600 l 387 600 l 347 383 z "},"o":{"ha":788,"x_min":53,"x_max":735,"o":"m 53 359 l 53 374 q 93 565 53 481 q 210 699 134 650 q 393 747 286 747 q 578 699 501 747 q 695 565 654 650 q 735 374 735 481 l 735 359 q 695 168 735 252 q 578 35 654 84 q 395 -14 502 -14 q 211 35 287 -14 q 94 168 134 84 q 53 359 53 252 m 216 374 l 216 359 q 235 237 216 292 q 293 150 254 182 q 395 117 332 117 q 495 150 456 117 q 553 237 534 182 q 572 359 572 292 l 572 374 q 553 495 572 439 q 495 584 534 550 q 393 617 456 617 q 293 584 332 617 q 235 495 254 550 q 216 374 216 439 z "},"ó":{"ha":788,"x_min":53,"x_max":735,"o":"m 53 359 l 53 374 q 93 565 53 481 q 210 699 134 650 q 393 747 286 747 q 578 699 501 747 q 695 565 654 650 q 735 374 735 481 l 735 359 q 695 168 735 252 q 578 35 654 84 q 395 -14 502 -14 q 211 35 287 -14 q 94 168 134 84 q 53 359 53 252 m 216 374 l 216 359 q 235 237 216 292 q 293 150 254 182 q 395 117 332 117 q 495 150 456 117 q 553 237 534 182 q 572 359 572 292 l 572 374 q 553 495 572 439 q 495 584 534 550 q 393 617 456 617 q 293 584 332 617 q 235 495 254 550 q 216 374 216 439 m 308 838 l 440 1042 l 625 1042 l 440 838 l 308 838 z "},"ŏ":{"ha":788,"x_min":53,"x_max":735,"o":"m 53 359 l 53 374 q 93 565 53 481 q 210 699 134 650 q 393 747 286 747 q 578 699 501 747 q 695 565 654 650 q 735 374 735 481 l 735 359 q 695 168 735 252 q 578 35 654 84 q 395 -14 502 -14 q 211 35 287 -14 q 94 168 134 84 q 53 359 53 252 m 216 374 l 216 359 q 235 237 216 292 q 293 150 254 182 q 395 117 332 117 q 495 150 456 117 q 553 237 534 182 q 572 359 572 292 l 572 374 q 553 495 572 439 q 495 584 534 550 q 393 617 456 617 q 293 584 332 617 q 235 495 254 550 q 216 374 216 439 m 490 1025 l 611 1025 q 552 887 611 941 q 391 833 492 833 q 230 887 289 833 q 170 1025 170 941 l 292 1025 q 314 958 292 987 q 391 929 336 929 q 467 958 444 929 q 490 1025 490 987 z "},"ô":{"ha":788,"x_min":53,"x_max":735,"o":"m 53 359 l 53 374 q 93 565 53 481 q 210 699 134 650 q 393 747 286 747 q 578 699 501 747 q 695 565 654 650 q 735 374 735 481 l 735 359 q 695 168 735 252 q 578 35 654 84 q 395 -14 502 -14 q 211 35 287 -14 q 94 168 134 84 q 53 359 53 252 m 216 374 l 216 359 q 235 237 216 292 q 293 150 254 182 q 395 117 332 117 q 495 150 456 117 q 553 237 534 182 q 572 359 572 292 l 572 374 q 553 495 572 439 q 495 584 534 550 q 393 617 456 617 q 293 584 332 617 q 235 495 254 550 q 216 374 216 439 m 439 1042 l 627 854 l 627 847 l 494 847 l 391 954 l 287 847 l 157 847 l 157 856 l 342 1042 l 439 1042 z "},"ö":{"ha":788,"x_min":53,"x_max":735,"o":"m 53 359 l 53 374 q 93 565 53 481 q 210 699 134 650 q 393 747 286 747 q 578 699 501 747 q 695 565 654 650 q 735 374 735 481 l 735 359 q 695 168 735 252 q 578 35 654 84 q 395 -14 502 -14 q 211 35 287 -14 q 94 168 134 84 q 53 359 53 252 m 216 374 l 216 359 q 235 237 216 292 q 293 150 254 182 q 395 117 332 117 q 495 150 456 117 q 553 237 534 182 q 572 359 572 292 l 572 374 q 553 495 572 439 q 495 584 534 550 q 393 617 456 617 q 293 584 332 617 q 235 495 254 550 q 216 374 216 439 m 149 928 q 172 984 149 962 q 233 1007 195 1007 q 295 984 272 1007 q 318 928 318 962 q 295 873 318 896 q 233 850 272 850 q 172 873 195 850 q 149 928 149 896 m 463 928 q 486 984 463 961 q 548 1006 509 1006 q 609 984 586 1006 q 633 928 633 961 q 609 872 633 895 q 548 850 586 850 q 486 872 509 850 q 463 928 463 895 z "},"œ":{"ha":1257,"x_min":60,"x_max":1208,"o":"m 60 359 l 60 374 q 100 565 60 481 q 215 699 140 650 q 397 747 291 747 q 549 715 484 747 q 658 628 615 684 q 764 716 701 684 q 902 747 827 748 q 1131 656 1053 747 q 1208 418 1208 566 l 1208 322 l 744 322 q 797 176 750 236 q 932 116 844 116 q 1053 134 1006 116 q 1139 179 1100 153 l 1190 74 q 1085 14 1153 41 q 920 -14 1018 -14 q 769 18 836 -14 q 658 104 703 50 q 550 18 615 50 q 399 -14 484 -14 q 216 35 292 -14 q 100 168 140 83 q 60 359 60 252 m 902 617 q 798 567 838 617 q 748 439 759 516 l 1047 439 l 1047 457 q 1013 570 1047 524 q 902 617 978 617 m 224 374 l 224 359 q 242 237 224 292 q 298 149 260 182 q 399 116 337 116 q 498 149 460 116 q 554 237 536 182 q 572 359 572 292 l 572 374 q 555 495 572 439 q 498 584 537 550 q 397 617 460 617 q 298 584 336 617 q 242 495 260 550 q 224 374 224 439 z "},"˛":{"ha":399,"x_min":28,"x_max":281,"o":"m 189 39 l 267 0 q 188 -63 219 -31 q 157 -136 157 -95 q 168 -169 157 -156 q 205 -182 178 -182 q 241 -177 226 -182 q 266 -166 256 -171 l 281 -260 q 238 -280 264 -271 q 171 -290 212 -290 q 70 -256 111 -290 q 28 -155 28 -221 q 64 -52 28 -102 q 189 39 100 -1 z "},"ò":{"ha":788,"x_min":53,"x_max":735,"o":"m 53 359 l 53 374 q 93 565 53 481 q 210 699 134 650 q 393 747 286 747 q 578 699 501 747 q 695 565 654 650 q 735 374 735 481 l 735 359 q 695 168 735 252 q 578 35 654 84 q 395 -14 502 -14 q 211 35 287 -14 q 94 168 134 84 q 53 359 53 252 m 216 374 l 216 359 q 235 237 216 292 q 293 150 254 182 q 395 117 332 117 q 495 150 456 117 q 553 237 534 182 q 572 359 572 292 l 572 374 q 553 495 572 439 q 495 584 534 550 q 393 617 456 617 q 293 584 332 617 q 235 495 254 550 q 216 374 216 439 m 343 1042 l 475 838 l 339 838 l 158 1042 l 343 1042 z "},"ơ":{"ha":801,"x_min":52,"x_max":819,"o":"m 52 359 l 52 374 q 93 565 52 481 q 210 699 134 650 q 393 747 286 747 q 533 721 471 747 q 640 646 595 694 q 696 704 682 661 q 709 808 709 746 l 819 808 q 789 659 819 719 q 690 574 759 598 q 734 374 734 487 l 734 359 q 694 168 734 252 q 577 35 654 84 q 394 -14 501 -14 q 210 35 287 -14 q 93 168 134 84 q 52 359 52 252 m 216 374 l 216 359 q 234 237 216 292 q 292 150 253 182 q 394 117 332 117 q 494 150 455 117 q 552 237 533 182 q 571 359 571 292 l 571 374 q 552 495 571 439 q 494 584 534 550 q 393 617 455 617 q 292 584 331 617 q 234 495 253 550 q 216 374 216 439 z "},"ő":{"ha":788,"x_min":53,"x_max":735,"o":"m 53 359 l 53 374 q 93 565 53 481 q 210 699 134 650 q 393 747 286 747 q 578 699 501 747 q 695 565 654 650 q 735 374 735 481 l 735 359 q 695 168 735 252 q 578 35 654 84 q 395 -14 502 -14 q 211 35 287 -14 q 94 168 134 84 q 53 359 53 252 m 216 374 l 216 359 q 235 237 216 292 q 293 150 254 182 q 395 117 332 117 q 495 150 456 117 q 553 237 534 182 q 572 359 572 292 l 572 374 q 553 495 572 439 q 495 584 534 550 q 393 617 456 617 q 293 584 332 617 q 235 495 254 550 q 216 374 216 439 m 418 836 l 572 1041 l 730 1041 l 549 836 l 418 836 m 201 836 l 323 1041 l 477 1041 l 325 836 l 201 836 z "},"ō":{"ha":788,"x_min":53,"x_max":735,"o":"m 53 359 l 53 374 q 93 565 53 481 q 210 699 134 650 q 393 747 286 747 q 578 699 501 747 q 695 565 654 650 q 735 374 735 481 l 735 359 q 695 168 735 252 q 578 35 654 84 q 395 -14 502 -14 q 211 35 287 -14 q 94 168 134 84 q 53 359 53 252 m 216 374 l 216 359 q 235 237 216 292 q 293 150 254 182 q 395 117 332 117 q 495 150 456 117 q 553 237 534 182 q 572 359 572 292 l 572 374 q 553 495 572 439 q 495 584 534 550 q 393 617 456 617 q 293 584 332 617 q 235 495 254 550 q 216 374 216 439 m 623 985 l 623 881 l 162 881 l 162 985 l 623 985 z "},"⅛":{"ha":1079,"x_min":62,"x_max":1006,"o":"m 321 972 l 321 438 l 199 438 l 199 829 l 62 795 l 62 892 l 309 972 l 321 972 m 768 846 l 286 75 l 202 123 l 684 895 l 768 846 m 1006 147 q 948 31 1006 70 q 801 -7 890 -7 q 654 31 713 -7 q 595 147 595 70 q 619 224 595 192 q 686 276 644 257 q 628 323 649 294 q 608 392 608 353 q 662 504 608 466 q 800 543 716 543 q 939 504 885 543 q 994 392 994 466 q 973 323 994 353 q 916 275 952 294 q 982 224 958 257 q 1006 147 1006 192 m 869 384 q 851 428 869 412 q 800 444 833 444 q 731 384 731 444 q 749 340 731 357 q 801 323 768 323 q 852 340 834 323 q 869 384 869 357 m 884 158 q 860 207 884 190 q 800 224 837 224 q 741 207 764 224 q 719 158 719 190 q 741 109 719 127 q 801 92 764 92 q 861 109 838 92 q 884 158 884 127 z "},"½":{"ha":1065,"x_min":56,"x_max":1002,"o":"m 759 852 l 277 80 l 193 128 l 675 900 l 759 852 m 316 987 l 316 452 l 193 452 l 193 843 l 56 810 l 56 907 l 303 987 l 316 987 m 1002 98 l 1002 0 l 589 0 l 589 83 l 783 262 q 843 330 825 300 q 860 378 860 359 q 841 426 860 408 q 786 444 822 444 q 721 420 743 444 q 700 361 700 395 l 576 361 q 631 489 576 436 q 781 543 686 543 q 931 499 878 543 q 984 378 984 456 q 948 278 984 321 q 844 178 912 235 l 749 98 l 1002 98 z "},"¼":{"ha":1005,"x_min":64,"x_max":953,"o":"m 324 985 l 324 450 l 201 450 l 201 841 l 64 808 l 64 905 l 311 985 l 324 985 m 788 852 l 306 80 l 222 128 l 704 900 l 788 852 m 953 212 l 953 112 l 886 112 l 886 0 l 763 0 l 763 112 l 519 112 l 513 192 l 762 535 l 886 535 l 886 212 l 953 212 m 633 212 l 763 212 l 763 382 l 752 366 l 633 212 z "},"¹":{"ha":513,"x_min":88,"x_max":348,"o":"m 348 987 l 348 452 l 225 452 l 225 843 l 88 810 l 88 907 l 335 987 l 348 987 z "},"ª":{"ha":618,"x_min":96,"x_max":530,"o":"m 415 479 q 404 527 408 502 q 348 486 382 503 q 265 469 314 469 q 140 511 184 469 q 96 623 96 553 q 154 738 96 697 q 327 779 211 779 l 399 779 l 399 815 q 317 904 399 904 q 245 886 271 904 q 219 834 219 868 l 107 844 q 164 957 107 912 q 317 1002 222 1002 q 459 955 405 1002 q 513 814 513 907 l 513 602 q 517 538 513 568 q 530 479 521 509 l 415 479 m 293 564 q 351 577 321 564 q 399 608 380 590 l 399 703 l 328 703 q 239 680 267 703 q 210 625 210 657 q 293 564 210 564 z "},"º":{"ha":634,"x_min":82,"x_max":548,"o":"m 82 707 l 82 762 q 145 934 82 867 q 315 1002 208 1002 q 486 934 424 1002 q 548 762 548 867 l 548 707 q 486 536 548 603 q 317 469 424 469 q 145 536 208 469 q 82 707 82 603 m 196 762 l 196 707 q 225 605 196 646 q 317 564 255 564 q 406 605 376 564 q 435 707 435 646 l 435 762 q 406 863 435 822 q 315 904 376 904 q 225 863 255 904 q 196 762 196 822 z "},"ø":{"ha":785,"x_min":53,"x_max":735,"o":"m 53 359 l 53 374 q 93 565 53 481 q 210 699 134 650 q 393 747 286 747 q 525 724 465 747 l 573 823 l 670 823 l 601 682 q 701 552 666 632 q 735 374 735 473 l 735 359 q 695 168 735 252 q 578 35 654 84 q 395 -14 502 -14 q 270 7 328 -14 l 220 -94 l 123 -94 l 193 47 q 89 177 125 96 q 53 359 53 258 m 216 374 l 216 359 q 227 263 216 308 q 260 185 238 218 l 465 602 q 393 617 433 617 q 293 584 332 617 q 235 495 254 550 q 216 374 216 439 m 572 374 q 562 465 572 422 q 532 541 552 507 l 330 128 q 395 117 359 117 q 495 150 456 117 q 553 237 534 182 q 572 359 572 292 l 572 374 z "},"ǿ":{"ha":785,"x_min":53,"x_max":735,"o":"m 53 359 l 53 374 q 93 565 53 481 q 210 699 134 650 q 393 747 286 747 q 525 724 465 747 l 573 823 l 670 823 l 601 682 q 701 552 666 632 q 735 374 735 473 l 735 359 q 695 168 735 252 q 578 35 654 84 q 395 -14 502 -14 q 270 7 328 -14 l 220 -94 l 123 -94 l 193 47 q 89 177 125 96 q 53 359 53 258 m 216 374 l 216 359 q 227 263 216 308 q 260 185 238 218 l 465 602 q 393 617 433 617 q 293 584 332 617 q 235 495 254 550 q 216 374 216 439 m 572 374 q 562 465 572 422 q 532 541 552 507 l 330 128 q 395 117 359 117 q 495 150 456 117 q 553 237 534 182 q 572 359 572 292 l 572 374 m 283 836 l 415 1040 l 600 1040 l 415 836 l 283 836 z "},"õ":{"ha":788,"x_min":53,"x_max":735,"o":"m 53 359 l 53 374 q 93 565 53 481 q 210 699 134 650 q 393 747 286 747 q 578 699 501 747 q 695 565 654 650 q 735 374 735 481 l 735 359 q 695 168 735 252 q 578 35 654 84 q 395 -14 502 -14 q 211 35 287 -14 q 94 168 134 84 q 53 359 53 252 m 216 374 l 216 359 q 235 237 216 292 q 293 150 254 182 q 395 117 332 117 q 495 150 456 117 q 553 237 534 182 q 572 359 572 292 l 572 374 q 553 495 572 439 q 495 584 534 550 q 393 617 456 617 q 293 584 332 617 q 235 495 254 550 q 216 374 216 439 m 539 1034 l 639 1026 q 596 903 639 952 q 489 854 553 854 q 417 869 444 854 q 366 900 390 885 q 304 916 341 916 q 261 897 279 916 q 243 846 243 878 l 142 851 q 185 975 142 924 q 292 1025 228 1025 q 358 1009 330 1025 q 414 979 387 994 q 477 963 442 963 q 521 983 503 963 q 539 1034 539 1002 z "},"p":{"ha":781,"x_min":85,"x_max":726,"o":"m 726 374 l 726 359 q 693 169 726 253 q 597 35 661 84 q 441 -14 533 -14 q 331 8 379 -14 q 248 68 283 29 l 248 -282 l 85 -282 l 85 734 l 235 734 l 242 657 q 327 724 277 701 q 440 747 376 747 q 597 701 533 747 q 693 570 661 654 q 726 374 726 486 m 563 359 l 563 374 q 546 496 563 441 q 492 583 529 551 q 396 616 455 616 q 304 592 340 616 q 248 528 269 568 l 248 205 q 304 141 269 165 q 397 117 340 117 q 493 150 456 117 q 546 238 529 183 q 563 359 563 294 z "},"¶":{"ha":680,"x_min":50,"x_max":578,"o":"m 578 0 l 441 0 l 441 353 l 383 353 q 201 394 275 353 q 88 507 127 435 q 50 670 50 578 q 88 833 50 761 q 201 946 127 905 q 383 987 275 987 l 578 987 l 578 0 z "},"(":{"ha":482,"x_min":90,"x_max":456,"o":"m 233 401 q 258 158 233 277 q 333 -57 283 39 q 456 -210 382 -153 l 424 -303 q 286 -195 348 -265 q 180 -30 224 -124 q 113 173 136 64 q 90 399 90 283 q 113 626 90 516 q 180 830 136 736 q 286 996 224 925 q 424 1105 348 1067 l 456 1011 q 333 859 382 956 q 258 644 283 763 q 233 401 233 525 z "},")":{"ha":482,"x_min":26,"x_max":393,"o":"m 249 401 q 224 644 249 525 q 149 859 199 763 q 26 1011 100 956 l 58 1105 q 196 996 135 1067 q 302 831 258 925 q 369 627 346 737 q 393 401 393 517 q 369 174 393 284 q 302 -30 346 64 q 196 -194 258 -123 q 58 -303 135 -265 l 26 -210 q 149 -57 100 -153 q 224 158 199 39 q 249 401 249 277 z "},"∂":{"ha":794,"x_min":66,"x_max":742,"o":"m 386 698 q 588 610 506 698 q 505 824 571 745 q 347 903 439 903 q 254 893 293 903 q 170 865 216 884 l 148 986 q 234 1020 185 1004 q 361 1036 282 1036 q 643 887 545 1036 q 742 475 742 739 l 742 435 q 702 206 742 308 q 587 45 663 104 q 404 -14 511 -14 q 221 33 296 -14 q 105 161 145 79 q 66 345 66 242 l 66 359 q 103 533 66 456 q 213 654 141 610 q 386 698 284 698 m 405 568 q 304 539 342 568 q 248 461 265 509 q 230 355 230 412 l 230 340 q 248 228 230 279 q 303 146 265 177 q 404 116 342 116 q 505 153 466 116 q 561 252 543 190 q 579 390 579 314 l 579 451 q 551 501 571 473 q 495 548 530 528 q 405 568 459 568 z "},"%":{"ha":1023,"x_min":68,"x_max":962,"o":"m 68 745 l 68 798 q 92 900 68 854 q 163 974 117 946 q 276 1002 210 1002 q 431 942 377 1002 q 486 798 486 882 l 486 745 q 461 644 486 690 q 391 570 437 598 q 277 543 345 543 q 164 570 211 543 q 92 644 117 598 q 68 745 68 690 m 181 798 l 181 745 q 205 672 181 704 q 277 640 229 640 q 349 672 326 640 q 372 745 372 704 l 372 798 q 348 872 372 840 q 276 905 325 905 q 205 872 229 905 q 181 798 181 840 m 793 846 l 311 75 l 228 123 l 710 895 l 793 846 m 544 189 l 544 242 q 569 344 544 298 q 640 418 593 390 q 753 446 687 446 q 908 386 854 446 q 962 242 962 326 l 962 189 q 908 46 962 106 q 754 -14 854 -14 q 640 14 687 -14 q 569 87 593 41 q 544 189 544 134 m 658 242 l 658 189 q 683 115 658 148 q 754 83 708 83 q 828 115 806 83 q 849 189 849 148 l 849 242 q 825 316 849 284 q 753 349 802 349 q 682 316 705 349 q 658 242 658 284 z "},".":{"ha":397,"x_min":94,"x_max":304,"o":"m 94 103 q 124 176 94 146 q 199 206 155 206 q 273 176 243 206 q 304 103 304 146 q 273 30 304 60 q 199 0 242 0 q 124 30 155 0 q 94 103 94 59 z "},"·":{"ha":393,"x_min":98,"x_max":289,"o":"m 98 484 q 123 548 98 522 q 193 574 149 574 q 263 548 238 574 q 289 484 289 522 q 263 420 289 446 q 193 395 238 395 q 123 420 149 395 q 98 484 98 446 z "},"‰":{"ha":1333,"x_min":54,"x_max":1282,"o":"m 54 745 l 54 798 q 79 900 54 854 q 149 974 103 946 q 257 1002 195 1002 q 370 974 323 1002 q 441 900 416 946 q 467 798 467 854 l 467 745 q 442 644 467 690 q 370 570 417 598 q 258 543 323 543 q 150 570 195 543 q 79 644 104 598 q 54 745 54 690 m 162 798 l 162 745 q 186 672 162 704 q 258 640 210 640 q 330 672 307 640 q 353 745 353 704 l 353 798 q 330 872 353 840 q 257 905 306 905 q 186 872 210 905 q 162 798 162 840 m 789 846 l 307 75 l 223 123 l 705 895 l 789 846 m 555 189 l 555 242 q 580 344 555 298 q 652 418 606 390 q 764 446 699 446 q 855 425 816 446 q 919 370 895 404 q 983 425 943 404 q 1074 446 1022 446 q 1186 418 1139 446 q 1258 344 1233 390 q 1282 242 1282 298 l 1282 189 q 1258 87 1282 134 q 1186 14 1233 41 q 1075 -14 1140 -14 q 983 6 1023 -14 q 919 62 943 27 q 856 6 895 27 q 765 -14 817 -14 q 653 14 700 -14 q 580 87 606 41 q 555 189 555 134 m 669 242 l 669 189 q 693 115 669 148 q 765 83 718 83 q 838 115 817 83 q 859 189 859 148 l 859 242 q 836 316 859 284 q 764 349 812 349 q 692 316 715 349 q 669 242 669 284 m 979 242 l 979 189 q 1004 115 979 148 q 1075 83 1029 83 q 1148 115 1126 83 q 1169 189 1169 148 l 1169 242 q 1145 316 1169 284 q 1074 349 1122 349 q 1002 316 1025 349 q 979 242 979 284 z "},"₧":{"ha":1171,"x_min":104,"x_max":1086,"o":"m 371 367 l 273 367 l 273 0 l 104 0 l 104 987 l 371 987 q 609 916 527 987 q 707 734 691 845 l 785 734 l 785 913 l 949 913 l 949 734 l 1080 734 l 1080 614 l 949 614 l 949 203 q 970 136 949 151 q 1027 121 991 121 q 1060 123 1044 121 q 1085 127 1076 125 l 1086 2 q 1039 -9 1065 -4 q 977 -14 1012 -14 q 839 33 893 -14 q 785 193 785 79 l 785 614 l 705 614 q 605 436 687 505 q 371 367 523 367 m 371 851 l 273 851 l 273 503 l 371 503 q 475 529 439 503 q 526 594 512 554 q 541 679 541 634 q 526 762 541 723 q 475 826 512 802 q 371 851 439 851 z "},"+":{"ha":755,"x_min":87,"x_max":667,"o":"m 441 289 l 441 37 l 313 37 l 313 289 l 87 289 l 87 416 l 313 416 l 313 650 l 441 650 l 441 416 l 667 416 l 667 289 l 441 289 z "},"±":{"ha":745,"x_min":62,"x_max":684,"o":"m 684 610 l 684 477 l 450 477 l 450 212 l 306 212 l 306 477 l 62 477 l 62 610 l 306 610 l 306 866 l 450 866 l 450 610 l 684 610 m 661 132 l 661 1 l 83 1 l 83 132 l 661 132 z "},"∏":{"ha":962,"x_min":113,"x_max":852,"o":"m 852 987 l 852 -159 l 688 -159 l 688 859 l 277 859 l 277 -159 l 113 -159 l 113 987 l 852 987 z "},"q":{"ha":786,"x_min":54,"x_max":696,"o":"m 54 359 l 54 374 q 88 570 54 486 q 187 701 122 654 q 344 747 252 747 q 457 724 408 747 q 540 658 505 701 l 550 734 l 696 734 l 696 -282 l 531 -282 l 531 66 q 450 7 496 28 q 342 -14 403 -14 q 187 35 252 -14 q 88 168 122 83 q 54 359 54 252 m 218 374 l 218 359 q 235 238 218 293 q 288 150 252 182 q 383 117 325 117 q 474 140 438 117 q 531 202 510 163 l 531 534 q 474 594 510 572 q 385 617 438 617 q 289 584 326 617 q 235 496 252 551 q 218 374 218 441 z "},"?":{"ha":675,"x_min":40,"x_max":623,"o":"m 390 291 l 239 291 q 250 397 239 354 q 283 475 260 440 q 348 550 307 511 q 427 634 395 595 q 459 733 459 674 q 428 832 459 798 q 335 867 396 867 q 244 837 284 867 q 203 741 205 807 l 40 741 q 81 884 41 827 q 186 971 120 942 q 335 1001 253 1001 q 547 932 471 1001 q 623 739 623 863 q 600 631 623 680 q 538 541 576 583 q 456 458 500 499 q 404 383 418 423 q 390 291 391 342 m 225 79 q 250 142 225 117 q 319 167 275 167 q 388 142 363 167 q 412 79 412 117 q 388 17 412 43 q 319 -8 363 -8 q 250 17 275 -8 q 225 79 225 43 z "},"¿":{"ha":676,"x_min":47,"x_max":634,"o":"m 444 661 q 419 598 444 623 q 351 573 395 573 q 282 598 307 573 q 257 661 257 623 q 282 722 257 697 q 351 747 307 747 q 419 722 395 747 q 444 661 444 697 m 277 449 l 428 449 q 418 344 428 386 q 385 267 408 302 q 322 192 362 233 q 244 106 277 147 q 212 3 212 66 q 245 -95 212 -62 q 338 -127 278 -127 q 430 -96 391 -127 q 471 1 470 -65 l 634 1 q 594 -143 633 -85 q 489 -232 555 -202 q 340 -262 422 -262 q 124 -193 201 -262 q 47 0 47 -125 q 72 111 47 61 q 135 203 96 160 q 216 286 173 245 q 265 359 254 321 q 277 449 276 397 z "},"\"":{"ha":444,"x_min":65,"x_max":387,"o":"m 183 1042 l 183 949 l 159 689 l 65 689 l 65 1042 l 183 1042 m 387 1042 l 387 949 l 363 689 l 269 689 l 269 1042 l 387 1042 z "},"„":{"ha":521,"x_min":36,"x_max":456,"o":"m 239 172 l 239 50 q 206 -91 239 -18 q 121 -212 174 -164 l 36 -161 q 80 -65 64 -115 q 96 48 96 -15 l 96 172 l 239 172 m 456 172 l 456 50 q 422 -91 456 -18 q 336 -212 388 -164 l 250 -161 q 296 -65 279 -115 q 313 48 313 -15 l 313 172 l 456 172 z "},"“":{"ha":528,"x_min":74,"x_max":498,"o":"m 74 720 l 74 812 q 107 946 74 876 q 195 1060 141 1015 l 276 1009 q 232 919 249 966 q 214 813 214 872 l 214 720 l 74 720 m 296 720 l 296 812 q 330 946 296 876 q 417 1060 363 1015 l 498 1009 q 454 919 471 966 q 437 813 437 872 l 437 720 l 296 720 z "},"”":{"ha":534,"x_min":46,"x_max":470,"o":"m 248 1042 l 248 946 q 215 813 248 882 q 128 698 181 743 l 46 749 q 91 839 74 791 q 109 945 109 886 l 109 1042 l 248 1042 m 470 1042 l 470 946 q 436 813 470 882 q 350 698 403 743 l 268 749 q 313 839 296 791 q 330 945 330 886 l 330 1042 l 470 1042 z "},"‘":{"ha":303,"x_min":68,"x_max":271,"o":"m 68 720 l 68 812 q 102 946 68 876 q 189 1060 136 1015 l 271 1009 q 226 919 243 966 q 209 813 209 872 l 209 720 l 68 720 z "},"‛":{"ha":284,"x_min":51,"x_max":254,"o":"m 51 1042 l 191 1042 l 191 945 q 209 839 191 886 q 254 749 226 791 l 172 698 q 85 813 119 743 q 51 946 51 882 l 51 1042 z "},"’":{"ha":300,"x_min":37,"x_max":239,"o":"m 239 1042 l 239 946 q 206 813 239 882 q 119 698 172 743 l 37 749 q 82 839 65 791 q 100 945 100 886 l 100 1042 l 239 1042 z "},"‚":{"ha":313,"x_min":36,"x_max":239,"o":"m 239 140 l 239 50 q 205 -84 239 -14 q 119 -199 171 -153 l 36 -148 q 80 -58 64 -105 q 96 48 96 -11 l 96 140 l 239 140 z "},"'":{"ha":233,"x_min":56,"x_max":180,"o":"m 180 1042 l 180 954 l 162 693 l 56 693 l 56 943 l 56 1042 l 180 1042 z "},"r":{"ha":491,"x_min":85,"x_max":473,"o":"m 473 739 l 471 587 q 405 592 439 592 q 305 568 344 592 q 248 500 267 543 l 248 0 l 85 0 l 85 734 l 241 734 l 245 647 q 315 721 273 694 q 414 747 357 747 q 447 745 429 747 q 473 739 464 742 z "},"ŕ":{"ha":491,"x_min":85,"x_max":513,"o":"m 473 739 l 471 587 q 405 592 439 592 q 305 568 344 592 q 248 500 267 543 l 248 0 l 85 0 l 85 734 l 241 734 l 245 647 q 315 721 273 694 q 414 747 357 747 q 447 745 429 747 q 473 739 464 742 m 196 838 l 328 1042 l 513 1042 l 328 838 l 196 838 z "},"√":{"ha":801,"x_min":40,"x_max":779,"o":"m 40 391 l 40 522 l 279 522 l 388 194 l 636 987 l 779 987 l 458 -1 l 323 -1 l 179 391 l 40 391 z "},"ř":{"ha":491,"x_min":37,"x_max":519,"o":"m 473 739 l 471 587 q 405 592 439 592 q 305 568 344 592 q 248 500 267 543 l 248 0 l 85 0 l 85 734 l 241 734 l 245 647 q 315 721 273 694 q 414 747 357 747 q 447 745 429 747 q 473 739 464 742 m 176 1042 l 277 935 l 378 1042 l 519 1042 l 519 1034 l 329 846 l 226 846 l 37 1035 l 37 1042 l 176 1042 z "},"ŗ":{"ha":491,"x_min":56,"x_max":473,"o":"m 473 739 l 471 587 q 405 592 439 592 q 305 568 344 592 q 248 500 267 543 l 248 0 l 85 0 l 85 734 l 241 734 l 245 647 q 315 721 273 694 q 414 747 357 747 q 447 745 429 747 q 473 739 464 742 m 238 -63 l 238 -114 q 212 -237 238 -173 q 140 -342 186 -300 l 56 -292 q 93 -213 79 -254 q 106 -120 106 -172 l 106 -63 l 238 -63 z "},"®":{"ha":1092,"x_min":60,"x_max":1023,"o":"m 60 494 q 98 694 60 602 q 201 856 135 787 q 355 963 268 924 q 542 1001 442 1001 q 729 963 642 1001 q 882 856 816 924 q 986 694 948 787 q 1023 494 1023 602 q 986 294 1023 387 q 882 133 948 202 q 729 24 816 63 q 542 -14 642 -14 q 355 24 442 -14 q 201 133 268 63 q 98 294 135 202 q 60 494 60 387 m 140 494 q 172 327 140 404 q 258 191 203 249 q 386 101 313 133 q 542 68 458 68 q 697 101 625 68 q 825 191 770 133 q 911 327 880 249 q 943 494 943 404 q 911 662 943 585 q 825 797 880 739 q 697 887 770 854 q 542 919 625 919 q 386 887 458 919 q 258 797 313 854 q 172 662 203 739 q 140 494 140 585 m 552 444 l 443 444 l 443 215 l 345 215 l 345 790 l 533 790 q 693 746 634 790 q 752 615 752 702 q 671 492 752 535 q 732 434 714 472 q 749 349 749 397 l 749 312 q 752 264 749 287 q 761 226 754 241 l 761 215 l 660 215 q 652 265 653 233 q 651 313 651 298 l 651 348 q 629 420 651 397 q 552 444 606 444 m 533 703 l 443 703 l 443 532 l 542 532 q 621 553 587 533 q 654 613 654 574 q 628 683 654 663 q 533 703 602 703 z "},"˚":{"ha":463,"x_min":81,"x_max":378,"o":"m 81 927 q 124 1026 81 985 q 230 1067 166 1067 q 335 1026 293 1067 q 378 927 378 985 q 335 829 378 869 q 230 790 293 790 q 124 829 166 790 q 81 927 81 869 m 154 927 q 175 874 154 897 q 230 852 196 852 q 284 874 264 852 q 305 927 305 897 q 284 981 305 958 q 230 1004 264 1004 q 175 981 196 1004 q 154 927 154 958 z "},"₨":{"ha":1490,"x_min":100,"x_max":1430,"o":"m 664 0 l 465 381 l 271 381 l 271 0 l 100 0 l 100 987 l 450 987 q 712 911 618 987 q 806 690 806 836 q 757 523 806 590 q 623 420 708 455 l 846 9 l 846 0 l 664 0 m 450 852 l 271 852 l 271 516 l 452 516 q 590 563 544 516 q 636 682 636 610 q 591 806 636 760 q 450 852 545 852 m 1270 199 q 1258 243 1270 223 q 1212 279 1246 262 q 1111 309 1177 296 q 921 384 994 334 q 848 526 848 434 q 883 636 848 586 q 980 717 917 686 q 1131 747 1044 747 q 1289 716 1223 747 q 1391 633 1355 686 q 1426 515 1426 581 l 1263 515 q 1230 593 1263 559 q 1131 627 1197 627 q 1038 598 1069 627 q 1008 533 1008 570 q 1039 474 1008 496 q 1160 432 1070 452 q 1358 356 1286 405 q 1430 208 1430 307 q 1394 93 1430 143 q 1290 15 1357 43 q 1133 -14 1223 -14 q 964 22 1033 -14 q 860 114 895 58 q 824 230 824 170 l 982 230 q 1007 158 985 184 q 1064 119 1030 131 q 1135 107 1099 107 q 1236 133 1201 107 q 1270 199 1270 159 z "},"s":{"ha":715,"x_min":50,"x_max":656,"o":"m 496 199 q 484 243 496 223 q 437 279 471 262 q 336 309 403 296 q 146 384 219 334 q 74 526 74 434 q 108 636 74 586 q 206 717 142 686 q 357 747 269 747 q 515 716 449 747 q 616 633 581 686 q 652 515 652 581 l 488 515 q 455 593 488 559 q 357 627 422 627 q 264 598 294 627 q 233 533 233 570 q 264 474 233 496 q 385 432 296 452 q 584 356 511 405 q 656 208 656 307 q 619 93 656 143 q 516 15 583 43 q 359 -14 449 -14 q 190 22 258 -14 q 85 114 121 58 q 50 230 50 170 l 208 230 q 233 158 210 184 q 290 119 256 131 q 361 107 324 107 q 461 133 427 107 q 496 199 496 159 z "},"ś":{"ha":715,"x_min":50,"x_max":656,"o":"m 496 199 q 484 243 496 223 q 437 279 471 262 q 336 309 403 296 q 146 384 219 334 q 74 526 74 434 q 108 636 74 586 q 206 717 142 686 q 357 747 269 747 q 515 716 449 747 q 616 633 581 686 q 652 515 652 581 l 488 515 q 455 593 488 559 q 357 627 422 627 q 264 598 294 627 q 233 533 233 570 q 264 474 233 496 q 385 432 296 452 q 584 356 511 405 q 656 208 656 307 q 619 93 656 143 q 516 15 583 43 q 359 -14 449 -14 q 190 22 258 -14 q 85 114 121 58 q 50 230 50 170 l 208 230 q 233 158 210 184 q 290 119 256 131 q 361 107 324 107 q 461 133 427 107 q 496 199 496 159 m 286 838 l 418 1042 l 602 1042 l 418 838 l 286 838 z "},"š":{"ha":715,"x_min":50,"x_max":656,"o":"m 496 199 q 484 243 496 223 q 437 279 471 262 q 336 309 403 296 q 146 384 219 334 q 74 526 74 434 q 108 636 74 586 q 206 717 142 686 q 357 747 269 747 q 515 716 449 747 q 616 633 581 686 q 652 515 652 581 l 488 515 q 455 593 488 559 q 357 627 422 627 q 264 598 294 627 q 233 533 233 570 q 264 474 233 496 q 385 432 296 452 q 584 356 511 405 q 656 208 656 307 q 619 93 656 143 q 516 15 583 43 q 359 -14 449 -14 q 190 22 258 -14 q 85 114 121 58 q 50 230 50 170 l 208 230 q 233 158 210 184 q 290 119 256 131 q 361 107 324 107 q 461 133 427 107 q 496 199 496 159 m 266 1042 l 368 935 l 469 1042 l 609 1042 l 609 1034 l 419 846 l 316 846 l 127 1035 l 127 1042 l 266 1042 z "},"ş":{"ha":715,"x_min":50,"x_max":656,"o":"m 496 199 q 484 243 496 223 q 437 279 471 262 q 336 309 403 296 q 146 384 219 334 q 74 526 74 434 q 108 636 74 586 q 206 717 142 686 q 357 747 269 747 q 515 716 449 747 q 616 633 581 686 q 652 515 652 581 l 488 515 q 455 593 488 559 q 357 627 422 627 q 264 598 294 627 q 233 533 233 570 q 264 474 233 496 q 385 432 296 452 q 584 356 511 405 q 656 208 656 307 q 619 93 656 143 q 516 15 583 43 q 359 -14 449 -14 q 190 22 258 -14 q 85 114 121 58 q 50 230 50 170 l 208 230 q 233 158 210 184 q 290 119 256 131 q 361 107 324 107 q 461 133 427 107 q 496 199 496 159 m 310 -4 l 431 -4 l 423 -42 q 494 -75 462 -49 q 526 -159 526 -101 q 470 -269 526 -227 q 303 -311 413 -311 l 298 -219 q 365 -205 338 -219 q 392 -157 392 -191 q 368 -114 392 -126 q 289 -98 343 -102 l 310 -4 z "},"ə":{"ha":733,"x_min":59,"x_max":688,"o":"m 347 749 q 529 701 452 749 q 646 572 605 654 q 688 386 688 490 l 688 357 q 646 166 688 250 q 532 35 604 83 q 366 -13 459 -14 q 137 78 214 -13 q 59 316 59 169 l 59 412 l 524 412 q 470 558 517 498 q 336 618 423 618 q 215 600 262 618 q 129 555 168 582 l 77 661 q 183 721 115 693 q 347 749 250 749 m 366 117 q 469 167 429 117 q 519 294 508 218 l 220 294 l 220 277 q 255 164 220 211 q 366 117 290 117 z "},"ŝ":{"ha":715,"x_min":50,"x_max":656,"o":"m 496 199 q 484 243 496 223 q 437 279 471 262 q 336 309 403 296 q 146 384 219 334 q 74 526 74 434 q 108 636 74 586 q 206 717 142 686 q 357 747 269 747 q 515 716 449 747 q 616 633 581 686 q 652 515 652 581 l 488 515 q 455 593 488 559 q 357 627 422 627 q 264 598 294 627 q 233 533 233 570 q 264 474 233 496 q 385 432 296 452 q 584 356 511 405 q 656 208 656 307 q 619 93 656 143 q 516 15 583 43 q 359 -14 449 -14 q 190 22 258 -14 q 85 114 121 58 q 50 230 50 170 l 208 230 q 233 158 210 184 q 290 119 256 131 q 361 107 324 107 q 461 133 427 107 q 496 199 496 159 m 416 1042 l 604 854 l 604 847 l 472 847 l 368 954 l 264 847 l 135 847 l 135 856 l 320 1042 l 416 1042 z "},"″":{"ha":444,"x_min":65,"x_max":387,"o":"m 183 1042 l 183 949 l 159 689 l 65 689 l 65 1042 l 183 1042 m 387 1042 l 387 949 l 363 689 l 269 689 l 269 1042 l 387 1042 z "},"§":{"ha":863,"x_min":62,"x_max":789,"o":"m 766 -71 q 672 -256 766 -191 q 425 -321 579 -321 q 293 -307 357 -321 q 176 -259 229 -292 q 93 -171 124 -227 q 62 -34 62 -116 l 226 -33 q 256 -129 226 -94 q 332 -177 286 -163 q 425 -191 378 -191 q 556 -157 510 -191 q 602 -72 602 -123 q 583 -11 602 -36 q 517 36 564 14 q 387 81 470 57 q 214 143 286 109 q 104 232 142 178 q 65 368 65 286 q 96 478 65 431 q 182 553 127 525 q 113 633 137 587 q 89 748 89 680 q 131 882 89 825 q 250 970 174 939 q 431 1002 327 1002 q 683 926 591 1002 q 774 711 774 851 l 611 711 q 565 824 611 777 q 431 871 519 871 q 295 836 338 871 q 252 749 252 800 q 270 685 252 711 q 333 640 287 660 q 467 596 380 620 q 642 534 570 569 q 751 446 713 499 q 789 309 789 392 q 759 200 789 246 q 672 125 728 153 q 742 45 718 92 q 766 -71 766 -2 m 446 218 q 499 203 473 211 q 548 186 525 195 q 627 298 627 218 q 608 362 627 336 q 540 411 588 389 q 408 459 492 434 q 353 475 379 467 q 303 492 327 483 q 247 448 264 477 q 229 379 229 418 q 246 312 229 338 q 311 264 264 286 q 446 218 357 243 z "},";":{"ha":333,"x_min":35,"x_max":287,"o":"m 77 681 q 107 754 77 724 q 182 784 138 784 q 256 754 226 784 q 287 681 287 724 q 256 608 287 637 q 182 578 225 578 q 107 607 138 578 q 77 681 77 637 m 249 157 l 248 41 q 214 -101 248 -28 q 122 -222 180 -174 l 35 -172 q 83 -77 62 -125 q 104 35 104 -29 l 104 157 l 249 157 z "},"⅞":{"ha":1158,"x_min":62,"x_max":1060,"o":"m 490 979 l 490 910 l 258 444 l 128 444 l 359 880 l 62 880 l 62 979 l 490 979 m 806 846 l 324 75 l 240 123 l 722 895 l 806 846 m 1060 147 q 1002 31 1060 70 q 854 -7 943 -7 q 708 31 767 -7 q 648 147 648 70 q 673 224 648 192 q 739 276 697 257 q 682 323 703 294 q 661 392 661 353 q 715 504 661 466 q 854 543 770 543 q 993 504 939 543 q 1047 392 1047 466 q 1026 323 1047 353 q 969 275 1006 294 q 1036 224 1011 257 q 1060 147 1060 192 m 923 384 q 905 428 923 412 q 854 444 887 444 q 785 384 785 444 q 803 340 785 357 q 854 323 821 323 q 905 340 888 323 q 923 384 923 357 m 937 158 q 914 207 937 190 q 854 224 890 224 q 795 207 817 224 q 772 158 772 190 q 795 109 772 127 q 854 92 817 92 q 914 109 891 92 q 937 158 937 127 z "},"/":{"ha":541,"x_min":1,"x_max":513,"o":"m 128 -85 l 1 -85 l 385 987 l 513 987 l 128 -85 z "}," ":{"ha":361,"x_min":0,"x_max":0,"o":""},"£":{"ha":817,"x_min":64,"x_max":777,"o":"m 556 407 l 347 407 l 352 284 q 342 202 353 240 q 307 135 331 164 l 777 135 l 777 0 l 67 0 l 67 135 l 126 135 q 160 164 149 140 q 177 219 172 188 q 181 278 181 250 l 177 407 l 64 407 l 64 539 l 172 539 l 167 705 q 205 864 167 798 q 313 966 244 930 q 471 1001 382 1001 q 689 925 612 1001 q 766 728 766 850 l 602 728 q 561 835 602 804 q 466 866 520 866 q 373 825 410 866 q 336 705 336 783 l 342 539 l 556 539 l 556 407 z "},"∑":{"ha":845,"x_min":43,"x_max":827,"o":"m 613 413 l 613 393 l 257 -53 l 827 -53 l 827 -182 l 43 -182 l 43 -84 l 440 404 l 43 888 l 43 987 l 791 987 l 791 858 l 258 858 l 613 413 z "},"t":{"ha":463,"x_min":7,"x_max":427,"o":"m 420 734 l 420 614 l 290 614 l 290 203 q 311 136 290 151 q 368 121 333 121 q 401 123 385 121 q 426 127 416 125 l 427 2 q 379 -9 406 -4 q 318 -14 353 -14 q 180 33 233 -14 q 126 193 126 79 l 126 614 l 7 614 l 7 734 l 126 734 l 126 913 l 290 913 l 290 734 l 420 734 z "},"ŧ":{"ha":463,"x_min":-14,"x_max":441,"o":"m 441 497 l 441 385 l 290 385 l 290 203 q 311 136 290 151 q 368 121 333 121 q 401 123 385 121 q 426 127 416 125 l 427 2 q 379 -9 406 -4 q 318 -14 353 -14 q 180 33 233 -14 q 126 193 126 79 l 126 385 l -14 385 l -14 497 l 126 497 l 126 614 l 7 614 l 7 734 l 126 734 l 126 913 l 290 913 l 290 734 l 420 734 l 420 614 l 290 614 l 290 497 l 441 497 z "},"ť":{"ha":490,"x_min":7,"x_max":544,"o":"m 420 734 l 420 614 l 290 614 l 290 203 q 311 136 290 151 q 368 121 333 121 q 401 123 385 121 q 426 127 416 125 l 427 2 q 379 -9 406 -4 q 318 -14 353 -14 q 180 33 233 -14 q 126 193 126 79 l 126 614 l 7 614 l 7 734 l 126 734 l 126 913 l 290 913 l 290 734 l 420 734 m 544 1127 l 544 1076 q 518 954 544 1017 q 446 848 492 890 l 361 899 q 399 977 385 937 q 412 1070 412 1018 l 412 1127 l 544 1127 z "},"þ":{"ha":793,"x_min":87,"x_max":730,"o":"m 730 374 l 730 359 q 697 169 730 253 q 600 35 664 84 q 445 -14 536 -14 q 334 8 382 -14 q 252 68 286 29 l 252 -282 l 87 -282 l 87 1042 l 252 1042 l 252 665 q 334 726 286 704 q 443 747 381 747 q 600 701 536 747 q 697 570 664 654 q 730 374 730 486 m 566 359 l 566 374 q 549 496 566 441 q 495 583 532 551 q 399 616 458 616 q 308 592 343 616 q 252 528 272 568 l 252 204 q 308 141 272 165 q 401 117 344 117 q 496 150 460 117 q 549 238 532 183 q 566 359 566 294 z "},"⅜":{"ha":1192,"x_min":58,"x_max":1114,"o":"m 204 678 l 204 763 l 263 763 q 329 782 307 763 q 350 830 350 800 q 331 873 350 854 q 269 892 313 892 q 213 878 236 892 q 191 839 191 863 l 67 839 q 94 921 67 887 q 167 972 121 955 q 266 990 212 990 q 416 951 358 990 q 473 838 473 912 q 449 769 473 799 q 382 722 425 739 q 483 597 483 694 q 421 481 483 522 q 267 440 359 440 q 168 457 216 440 q 89 509 120 473 q 58 604 58 545 l 182 604 q 207 558 182 577 q 273 539 231 539 q 338 558 317 539 q 359 607 359 578 q 333 662 359 646 q 263 678 307 678 l 204 678 m 883 846 l 401 75 l 317 123 l 799 895 l 883 846 m 1114 147 q 1055 31 1114 70 q 908 -7 997 -7 q 761 31 821 -7 q 702 147 702 70 q 726 224 702 192 q 793 276 751 257 q 735 323 756 294 q 715 392 715 353 q 769 504 715 466 q 907 543 823 543 q 1046 504 992 543 q 1101 392 1101 466 q 1080 323 1101 353 q 1023 275 1059 294 q 1089 224 1065 257 q 1114 147 1114 192 m 977 384 q 959 428 977 412 q 907 444 941 444 q 838 384 838 444 q 857 340 838 357 q 908 323 875 323 q 959 340 941 323 q 977 384 977 357 m 991 158 q 967 207 991 190 q 907 224 944 224 q 848 207 871 224 q 826 158 826 190 q 848 109 826 127 q 908 92 871 92 q 968 109 945 92 q 991 158 991 127 z "},"¾":{"ha":1104,"x_min":69,"x_max":1042,"o":"m 888 852 l 406 80 l 321 128 l 804 900 l 888 852 m 1042 212 l 1042 112 l 975 112 l 975 0 l 852 0 l 852 112 l 608 112 l 602 192 l 850 535 l 975 535 l 975 212 l 1042 212 m 722 212 l 852 212 l 852 382 l 841 366 l 722 212 m 215 683 l 215 768 l 274 768 q 339 786 318 768 q 361 835 361 805 q 342 878 361 859 q 280 897 323 897 q 224 882 247 897 q 201 844 201 868 l 78 844 q 105 926 78 892 q 178 977 132 960 q 277 995 223 995 q 427 956 369 995 q 484 842 484 917 q 460 773 484 804 q 393 727 435 743 q 494 602 494 699 q 432 486 494 527 q 277 445 370 445 q 179 461 227 445 q 100 514 131 478 q 69 608 69 550 l 193 608 q 218 563 193 582 q 283 544 242 544 q 349 563 328 544 q 370 612 370 583 q 344 667 370 650 q 274 683 318 683 l 215 683 z "},"³":{"ha":513,"x_min":37,"x_max":462,"o":"m 183 683 l 183 768 l 242 768 q 308 786 286 768 q 329 835 329 805 q 310 878 329 859 q 248 897 292 897 q 192 882 215 897 q 170 844 170 868 l 46 844 q 73 926 46 892 q 146 977 100 960 q 245 995 191 995 q 395 956 337 995 q 452 842 452 917 q 428 773 452 804 q 361 727 404 743 q 462 602 462 699 q 400 486 462 527 q 245 445 338 445 q 147 461 195 445 q 68 514 99 478 q 37 608 37 550 l 161 608 q 186 563 161 582 q 252 544 210 544 q 317 563 296 544 q 338 612 338 583 q 312 667 338 650 q 242 683 286 683 l 183 683 z "},"˜":{"ha":661,"x_min":81,"x_max":577,"o":"m 477 1033 l 577 1025 q 534 902 577 951 q 427 853 492 853 q 355 869 382 853 q 304 900 328 884 q 243 915 279 915 q 199 896 217 915 q 181 845 181 877 l 81 850 q 123 974 81 924 q 231 1024 166 1024 q 296 1009 268 1024 q 353 978 325 994 q 415 962 380 962 q 459 982 441 962 q 477 1033 477 1002 z "},"̃":{"ha":0,"x_min":-616,"x_max":-119,"o":"m -219 1033 l -119 1025 q -162 902 -119 951 q -269 853 -205 853 q -341 869 -314 853 q -393 900 -368 884 q -454 915 -417 915 q -497 896 -479 915 q -515 845 -515 877 l -616 850 q -573 974 -616 924 q -466 1024 -530 1024 q -400 1009 -429 1024 q -344 978 -372 994 q -281 962 -316 962 q -237 982 -256 962 q -219 1033 -219 1002 z "},"™":{"ha":873,"x_min":75,"x_max":758,"o":"m 682 622 l 682 875 l 599 622 l 555 622 l 471 876 l 471 622 l 396 622 l 396 987 l 489 987 l 577 728 l 668 987 l 758 987 l 758 622 l 682 622 m 345 987 l 345 924 l 252 924 l 252 623 l 171 623 l 171 924 l 75 924 l 75 987 l 345 987 z "},"²":{"ha":513,"x_min":41,"x_max":467,"o":"m 467 551 l 467 452 l 54 452 l 54 535 l 248 715 q 308 782 290 753 q 325 830 325 811 q 306 878 325 860 q 251 897 287 897 q 186 872 208 897 q 165 814 165 848 l 41 814 q 96 942 41 888 q 246 995 151 995 q 396 951 342 995 q 449 831 449 908 q 413 730 449 774 q 309 631 377 687 l 214 551 l 467 551 z "},"u":{"ha":772,"x_min":81,"x_max":690,"o":"m 535 0 l 531 75 q 446 10 497 33 q 323 -14 394 -14 q 148 50 215 -14 q 81 260 81 114 l 81 734 l 244 734 l 244 258 q 279 149 244 178 q 363 119 315 119 q 467 143 428 119 q 526 207 506 167 l 526 734 l 690 734 l 690 0 l 535 0 z "},"ú":{"ha":772,"x_min":81,"x_max":690,"o":"m 535 0 l 531 75 q 446 10 497 33 q 323 -14 394 -14 q 148 50 215 -14 q 81 260 81 114 l 81 734 l 244 734 l 244 258 q 279 149 244 178 q 363 119 315 119 q 467 143 428 119 q 526 207 506 167 l 526 734 l 690 734 l 690 0 l 535 0 m 304 838 l 437 1042 l 621 1042 l 437 838 l 304 838 z "},"ŭ":{"ha":772,"x_min":81,"x_max":690,"o":"m 535 0 l 531 75 q 446 10 497 33 q 323 -14 394 -14 q 148 50 215 -14 q 81 260 81 114 l 81 734 l 244 734 l 244 258 q 279 149 244 178 q 363 119 315 119 q 467 143 428 119 q 526 207 506 167 l 526 734 l 690 734 l 690 0 l 535 0 m 486 1025 l 607 1025 q 548 887 607 941 q 387 833 488 833 q 225 887 285 833 q 166 1025 166 941 l 288 1025 q 310 958 288 987 q 387 929 332 929 q 463 958 440 929 q 486 1025 486 987 z "},"û":{"ha":772,"x_min":81,"x_max":690,"o":"m 535 0 l 531 75 q 446 10 497 33 q 323 -14 394 -14 q 148 50 215 -14 q 81 260 81 114 l 81 734 l 244 734 l 244 258 q 279 149 244 178 q 363 119 315 119 q 467 143 428 119 q 526 207 506 167 l 526 734 l 690 734 l 690 0 l 535 0 m 435 1042 l 623 854 l 623 847 l 491 847 l 387 954 l 283 847 l 154 847 l 154 856 l 339 1042 l 435 1042 z "},"ü":{"ha":772,"x_min":81,"x_max":690,"o":"m 535 0 l 531 75 q 446 10 497 33 q 323 -14 394 -14 q 148 50 215 -14 q 81 260 81 114 l 81 734 l 244 734 l 244 258 q 279 149 244 178 q 363 119 315 119 q 467 143 428 119 q 526 207 506 167 l 526 734 l 690 734 l 690 0 l 535 0 m 146 928 q 169 984 146 962 q 230 1007 192 1007 q 292 984 269 1007 q 315 928 315 962 q 292 873 315 896 q 230 850 269 850 q 169 873 192 850 q 146 928 146 896 m 460 928 q 483 984 460 961 q 545 1006 506 1006 q 606 984 583 1006 q 629 928 629 961 q 606 872 629 895 q 545 850 583 850 q 483 872 506 850 q 460 928 460 895 z "},"ù":{"ha":772,"x_min":81,"x_max":690,"o":"m 535 0 l 531 75 q 446 10 497 33 q 323 -14 394 -14 q 148 50 215 -14 q 81 260 81 114 l 81 734 l 244 734 l 244 258 q 279 149 244 178 q 363 119 315 119 q 467 143 428 119 q 526 207 506 167 l 526 734 l 690 734 l 690 0 l 535 0 m 340 1042 l 472 838 l 336 838 l 155 1042 l 340 1042 z "},"ư":{"ha":850,"x_min":81,"x_max":892,"o":"m 785 795 l 892 795 q 849 626 892 686 q 690 557 806 566 l 690 0 l 535 0 l 531 75 q 446 10 497 33 q 323 -14 394 -14 q 148 50 215 -14 q 81 260 81 114 l 81 734 l 244 734 l 244 258 q 279 149 244 178 q 363 119 315 119 q 467 143 428 119 q 526 207 506 167 l 526 734 l 690 734 l 690 642 q 771 688 756 650 q 785 795 785 726 z "},"ű":{"ha":772,"x_min":81,"x_max":727,"o":"m 535 0 l 531 75 q 446 10 497 33 q 323 -14 394 -14 q 148 50 215 -14 q 81 260 81 114 l 81 734 l 244 734 l 244 258 q 279 149 244 178 q 363 119 315 119 q 467 143 428 119 q 526 207 506 167 l 526 734 l 690 734 l 690 0 l 535 0 m 414 836 l 569 1041 l 727 1041 l 546 836 l 414 836 m 197 836 l 319 1041 l 474 1041 l 321 836 l 197 836 z "},"ū":{"ha":772,"x_min":81,"x_max":690,"o":"m 535 0 l 531 75 q 446 10 497 33 q 323 -14 394 -14 q 148 50 215 -14 q 81 260 81 114 l 81 734 l 244 734 l 244 258 q 279 149 244 178 q 363 119 315 119 q 467 143 428 119 q 526 207 506 167 l 526 734 l 690 734 l 690 0 l 535 0 m 619 985 l 619 881 l 159 881 l 159 985 l 619 985 z "},"_":{"ha":622,"x_min":1,"x_max":620,"o":"m 620 0 l 620 -127 l 1 -127 l 1 0 l 620 0 z "},"‗":{"ha":625,"x_min":5,"x_max":623,"o":"m 623 0 l 623 -103 l 5 -103 l 5 0 l 623 0 m 623 -175 l 623 -278 l 5 -278 l 5 -175 l 623 -175 z "},"­":{"ha":472,"x_min":87,"x_max":570,"o":"m 570 288 l 87 288 l 87 415 l 570 415 l 570 288 z "},"Ċ":{"ha":907,"x_min":69,"x_max":854,"o":"m 684 321 l 853 321 q 799 149 845 224 q 670 30 753 73 q 467 -14 587 -14 q 255 44 345 -14 q 118 206 166 101 q 69 452 69 311 l 69 534 q 119 782 69 677 q 259 944 168 886 q 473 1001 349 1001 q 672 958 591 1001 q 799 838 753 914 q 854 662 844 761 l 684 662 q 627 811 674 758 q 473 865 580 865 q 299 779 357 865 q 240 536 240 693 l 240 452 q 294 213 240 303 q 467 122 348 122 q 624 174 576 122 q 684 321 672 225 m 376 1160 q 399 1219 376 1196 q 464 1242 422 1242 q 529 1219 505 1242 q 553 1160 553 1196 q 529 1102 553 1125 q 464 1079 505 1079 q 399 1102 422 1079 q 376 1160 376 1125 z "},"ċ":{"ha":725,"x_min":53,"x_max":684,"o":"m 384 117 q 486 152 444 117 q 530 243 528 186 l 684 243 q 642 113 682 171 q 534 21 602 55 q 386 -14 467 -14 q 200 36 274 -14 q 90 170 126 86 q 53 355 53 254 l 53 378 q 90 564 53 480 q 200 697 126 648 q 385 747 274 747 q 540 712 473 747 q 644 615 606 677 q 684 471 682 553 l 530 471 q 489 574 528 532 q 383 617 450 617 q 281 583 317 617 q 231 493 245 548 q 216 378 216 439 l 216 355 q 230 240 216 294 q 281 151 244 185 q 384 117 317 117 m 274 936 q 297 995 274 971 q 362 1018 321 1018 q 427 995 404 1018 q 451 936 451 971 q 427 878 451 901 q 362 854 404 854 q 297 878 321 854 q 274 936 274 901 z "},"Ġ":{"ha":946,"x_min":73,"x_max":859,"o":"m 859 505 l 859 127 q 793 67 838 100 q 676 10 749 34 q 493 -14 602 -14 q 274 42 369 -14 q 126 204 180 98 q 73 460 73 310 l 73 528 q 122 784 73 678 q 262 945 171 889 q 479 1001 354 1001 q 681 961 601 1001 q 804 849 761 920 q 859 686 847 778 l 692 686 q 632 815 679 764 q 482 866 585 866 q 304 778 363 866 q 245 530 245 690 l 245 460 q 312 209 245 297 q 500 121 380 121 q 629 142 587 121 q 689 182 671 163 l 689 378 l 484 378 l 484 505 l 859 505 m 377 1160 q 400 1219 377 1196 q 465 1242 424 1242 q 530 1219 507 1242 q 554 1160 554 1196 q 530 1102 554 1125 q 465 1079 507 1079 q 400 1102 424 1079 q 377 1160 377 1125 z "},"ġ":{"ha":787,"x_min":56,"x_max":703,"o":"m 56 359 l 56 373 q 91 569 56 485 q 193 700 127 653 q 349 747 258 747 q 465 724 416 747 q 547 659 513 701 l 554 734 l 703 734 l 703 20 q 661 -148 703 -79 q 543 -253 618 -217 q 369 -290 468 -290 q 276 -277 327 -290 q 177 -238 224 -265 q 97 -168 129 -212 l 174 -72 q 260 -140 213 -119 q 360 -162 308 -162 q 491 -116 444 -162 q 539 17 539 -70 l 539 69 q 457 8 505 30 q 348 -14 410 -14 q 193 35 258 -14 q 91 168 127 83 q 56 359 56 252 m 219 373 l 219 359 q 237 238 219 292 q 292 151 255 183 q 389 119 330 119 q 482 143 446 119 q 539 207 518 167 l 539 530 q 482 592 518 569 q 390 616 446 616 q 293 583 331 616 q 237 495 256 550 q 219 373 219 440 m 288 936 q 312 995 288 971 q 376 1018 335 1018 q 441 995 418 1018 q 465 936 465 971 q 441 878 465 901 q 376 854 418 854 q 312 878 335 854 q 288 936 288 901 z "},"Ţ":{"ha":846,"x_min":31,"x_max":817,"o":"m 817 987 l 817 852 l 507 852 l 507 0 l 338 0 l 338 852 l 31 852 l 31 987 l 817 987 m 364 5 l 486 5 l 477 -33 q 548 -65 516 -39 q 581 -150 581 -92 q 524 -260 581 -218 q 357 -302 467 -302 l 353 -210 q 419 -195 392 -210 q 446 -148 446 -181 q 422 -105 446 -117 q 343 -89 397 -93 l 364 5 z "},"ţ":{"ha":463,"x_min":7,"x_max":458,"o":"m 420 734 l 420 614 l 290 614 l 290 203 q 311 136 290 151 q 368 121 333 121 q 401 123 385 121 q 426 127 416 125 l 427 2 q 379 -9 406 -4 q 318 -14 353 -14 q 180 33 233 -14 q 126 193 126 79 l 126 614 l 7 614 l 7 734 l 126 734 l 126 913 l 290 913 l 290 734 l 420 734 m 241 3 l 363 3 l 355 -35 q 426 -68 393 -42 q 458 -153 458 -94 q 401 -262 458 -220 q 235 -304 345 -304 l 230 -212 q 296 -198 269 -212 q 323 -151 323 -184 q 299 -107 323 -119 q 220 -92 275 -96 l 241 3 z "},"ǰ":{"ha":372,"x_min":-58,"x_max":424,"o":"m 109 734 l 273 734 l 273 -42 q 209 -231 273 -165 q 33 -296 145 -296 q -12 -294 9 -296 q -56 -285 -33 -292 l -46 -158 q -14 -164 -33 -162 q 20 -166 6 -166 q 86 -134 62 -166 q 109 -42 109 -102 l 109 734 m 81 1019 l 182 912 l 283 1019 l 424 1019 l 424 1011 l 234 823 l 131 823 l -58 1012 l -58 1019 l 81 1019 z "},"Ș":{"ha":841,"x_min":51,"x_max":791,"o":"m 620 254 q 603 324 620 295 q 539 378 585 353 q 408 429 494 402 q 240 496 314 457 q 124 592 167 535 q 81 729 81 648 q 126 870 81 809 q 250 966 170 931 q 433 1001 329 1001 q 623 960 544 1001 q 746 851 703 920 q 789 700 789 783 l 620 700 q 573 820 620 772 q 431 867 526 867 q 296 827 340 867 q 252 729 252 787 q 304 636 252 673 q 465 568 356 600 q 710 447 629 519 q 791 256 791 374 q 747 112 791 172 q 624 19 703 52 q 439 -14 545 -14 q 299 6 368 -14 q 174 64 230 25 q 84 161 117 102 q 51 298 51 220 l 221 298 q 250 195 221 235 q 329 138 279 156 q 439 119 378 119 q 574 157 528 119 q 620 254 620 194 m 500 -71 l 500 -122 q 474 -245 500 -181 q 403 -351 448 -309 l 318 -300 q 355 -221 342 -262 q 369 -128 369 -180 l 369 -71 l 500 -71 z "},"ș":{"ha":715,"x_min":50,"x_max":656,"o":"m 496 199 q 484 243 496 223 q 437 279 471 262 q 336 309 403 296 q 146 384 219 334 q 74 526 74 434 q 108 636 74 586 q 206 717 142 686 q 357 747 269 747 q 515 716 449 747 q 616 633 581 686 q 652 515 652 581 l 488 515 q 455 593 488 559 q 357 627 422 627 q 264 598 294 627 q 233 533 233 570 q 264 474 233 496 q 385 432 296 452 q 584 356 511 405 q 656 208 656 307 q 619 93 656 143 q 516 15 583 43 q 359 -14 449 -14 q 190 22 258 -14 q 85 114 121 58 q 50 230 50 170 l 208 230 q 233 158 210 184 q 290 119 256 131 q 361 107 324 107 q 461 133 427 107 q 496 199 496 159 m 433 -77 l 433 -128 q 407 -251 433 -187 q 336 -357 381 -315 l 251 -306 q 288 -227 275 -268 q 302 -134 302 -186 l 302 -77 l 433 -77 z "},"Ț":{"ha":846,"x_min":31,"x_max":817,"o":"m 817 987 l 817 852 l 507 852 l 507 0 l 338 0 l 338 852 l 31 852 l 31 987 l 817 987 m 488 -68 l 488 -119 q 462 -241 488 -178 q 391 -347 436 -305 l 306 -296 q 343 -218 330 -258 q 357 -125 357 -177 l 357 -68 l 488 -68 z "},"ț":{"ha":463,"x_min":7,"x_max":427,"o":"m 420 734 l 420 614 l 290 614 l 290 203 q 311 136 290 151 q 368 121 333 121 q 401 123 385 121 q 426 127 416 125 l 427 2 q 379 -9 406 -4 q 318 -14 353 -14 q 180 33 233 -14 q 126 193 126 79 l 126 614 l 7 614 l 7 734 l 126 734 l 126 913 l 290 913 l 290 734 l 420 734 m 365 -71 l 365 -121 q 339 -244 365 -180 q 267 -350 313 -308 l 182 -299 q 220 -220 206 -261 q 233 -127 233 -180 l 233 -71 l 365 -71 z "},"ȷ":{"ha":372,"x_min":-56,"x_max":273,"o":"m 109 734 l 273 734 l 273 -42 q 209 -231 273 -165 q 33 -296 145 -296 q -12 -294 9 -296 q -56 -285 -33 -292 l -46 -158 q -14 -164 -33 -162 q 20 -166 6 -166 q 86 -134 62 -166 q 109 -42 109 -102 l 109 734 z "},"ʼ":{"ha":300,"x_min":37,"x_max":239,"o":"m 239 1042 l 239 946 q 206 813 239 882 q 119 698 172 743 l 37 749 q 82 839 65 791 q 100 945 100 886 l 100 1042 l 239 1042 z "},"ˉ":{"ha":669,"x_min":106,"x_max":567,"o":"m 567 983 l 567 879 l 106 879 l 106 983 l 567 983 z "},"˳":{"ha":425,"x_min":93,"x_max":336,"o":"m 93 -160 q 129 -78 93 -111 q 216 -45 165 -45 q 301 -78 267 -45 q 336 -160 336 -111 q 301 -241 336 -210 q 216 -273 267 -273 q 129 -241 165 -273 q 93 -160 93 -210 m 161 -160 q 177 -198 161 -183 q 216 -214 193 -214 q 253 -198 238 -214 q 268 -160 268 -183 q 253 -121 268 -136 q 216 -105 238 -105 q 177 -121 193 -105 q 161 -160 161 -136 z "},"̏":{"ha":0,"x_min":-689,"x_max":-141,"o":"m -347 849 l -488 849 l -689 1029 l -515 1029 l -347 849 m -141 849 l -273 849 l -440 1029 l -273 1029 l -141 849 z "},"،":{"ha":397,"x_min":88,"x_max":318,"o":"m 318 378 q 247 297 274 338 q 216 198 220 256 q 281 170 262 195 q 301 101 301 145 q 276 27 301 54 q 202 0 250 0 q 116 33 143 0 q 88 121 88 66 q 133 297 88 220 q 252 431 178 374 l 318 378 z "},"؍":{"ha":584,"x_min":87,"x_max":480,"o":"m 477 1013 l 480 1010 l 91 -129 l 87 -126 l 477 1013 z "},"ؐ":{"ha":0,"x_min":80,"x_max":569,"o":"m 91 819 q 112 911 112 855 q 80 1042 112 975 l 144 1063 l 167 993 q 197 953 179 956 q 435 1153 316 1153 q 531 1115 493 1153 q 569 1023 569 1078 q 316 874 568 874 l 298 874 q 174 893 216 874 q 146 784 172 829 l 91 819 m 315 942 q 502 1021 502 942 q 484 1066 502 1048 q 437 1084 467 1084 q 268 942 359 1084 l 315 942 z "},"ؑ":{"ha":0,"x_min":80,"x_max":519,"o":"m 177 873 q 168 824 176 848 q 146 778 159 800 l 91 812 q 112 905 112 849 q 80 1034 112 968 l 144 1057 l 164 991 q 199 946 179 949 l 259 946 q 233 987 244 966 q 222 1042 222 1009 q 264 1154 222 1107 q 378 1202 306 1202 q 508 1149 455 1202 l 481 1089 q 390 1128 434 1127 q 319 1102 347 1128 q 291 1039 291 1076 q 300 1004 291 1029 q 345 962 309 979 q 357 960 353 958 l 519 1001 l 519 928 q 353 887 431 901 q 200 873 275 873 l 177 873 z "},"ؒ":{"ha":0,"x_min":58,"x_max":638,"o":"m 370 686 q 316 684 345 684 q 130 732 201 684 q 58 882 58 780 q 129 1045 58 973 q 336 1147 199 1116 q 323 1152 330 1149 q 302 1161 317 1154 q 239 1185 264 1177 q 201 1194 214 1194 q 159 1182 179 1194 q 125 1152 138 1169 l 115 1138 l 58 1166 l 63 1176 q 123 1238 87 1215 q 201 1261 159 1261 q 254 1251 225 1261 q 315 1225 282 1241 q 413 1183 374 1197 q 484 1168 452 1170 l 479 1105 q 297 1067 378 1097 q 168 991 216 1037 q 121 888 121 945 q 321 749 121 749 q 340 749 331 749 q 359 750 350 749 l 370 686 m 604 1104 q 629 1026 620 1066 q 638 948 638 987 q 589 796 638 865 q 431 701 541 726 l 404 757 q 535 829 496 779 q 575 941 575 878 q 567 1010 575 975 q 543 1082 558 1045 l 604 1104 z "},"ؕ":{"ha":0,"x_min":86,"x_max":524,"o":"m 162 937 q 175 958 168 947 q 187 977 181 968 l 187 1304 l 245 1304 l 245 1060 q 393 1147 315 1147 q 488 1111 452 1147 q 524 1021 524 1075 q 276 876 522 876 l 86 876 l 86 937 l 162 937 m 275 938 q 463 1018 463 938 q 445 1065 463 1046 q 396 1084 426 1084 q 313 1046 357 1084 q 224 937 270 1008 l 275 938 z "},"؛":{"ha":397,"x_min":88,"x_max":318,"o":"m 318 692 q 247 611 274 652 q 216 512 220 570 q 281 484 262 509 q 301 415 301 459 q 276 341 301 368 q 202 314 250 314 q 116 347 143 314 q 88 435 88 380 q 133 611 88 534 q 252 745 178 688 l 318 692 m 94 103 q 124 176 94 146 q 199 206 155 206 q 273 176 243 206 q 304 103 304 146 q 273 30 304 60 q 199 0 242 0 q 124 30 155 0 q 94 103 94 59 z "},"؟":{"ha":599,"x_min":58,"x_max":545,"o":"m 58 691 q 95 821 58 765 q 195 908 133 877 q 328 939 256 939 q 439 918 382 939 q 545 851 496 897 l 479 728 q 406 772 444 758 q 334 785 368 785 q 242 759 280 785 q 204 689 204 732 q 224 634 204 659 q 274 585 244 610 q 332 527 303 559 q 381 447 361 494 q 401 334 401 401 l 401 312 l 258 312 l 258 334 q 237 429 258 393 q 188 490 217 465 q 128 538 158 514 q 78 598 98 563 q 58 691 58 633 m 224 104 q 255 177 224 147 q 329 207 286 207 q 404 177 373 207 q 434 104 434 147 q 404 31 434 60 q 329 1 373 1 q 254 30 285 1 q 224 104 224 60 z "},"ء":{"ha":582,"x_min":56,"x_max":520,"o":"m 227 308 q 250 251 227 282 q 312 197 272 220 q 392 221 359 212 q 454 237 425 231 q 520 250 484 244 l 520 109 q 319 49 429 89 q 79 -60 209 9 l 56 80 q 113 109 87 96 q 176 138 139 121 q 118 218 136 176 q 100 304 100 259 q 130 418 100 366 q 210 500 159 469 q 323 531 260 531 q 420 516 379 531 q 504 470 462 501 l 460 357 q 394 384 425 374 q 332 393 363 393 q 259 368 291 393 q 227 308 227 342 z "},"آ":{"ha":342,"x_min":-110,"x_max":425,"o":"m 237 1035 q 255 1030 246 1030 q 283 1040 269 1030 q 319 1070 297 1050 l 355 1104 l 425 1041 l 385 1002 q 322 952 349 969 q 265 935 294 935 q 203 951 239 935 l 115 991 q 83 1000 96 1000 q 1 945 56 1000 l -40 904 l -110 967 l -68 1011 q 71 1097 16 1097 q 108 1091 89 1097 q 150 1074 127 1085 l 237 1035 m 243 852 l 243 1 l 99 1 l 99 852 l 243 852 z "},"أ":{"ha":342,"x_min":29,"x_max":303,"o":"m 102 989 q 64 1030 79 1008 q 50 1091 50 1053 q 91 1188 50 1150 q 184 1227 132 1227 q 230 1221 210 1227 q 269 1204 250 1215 l 270 1131 q 230 1145 249 1142 q 194 1149 212 1149 q 142 1132 166 1149 q 118 1082 118 1115 q 137 1044 119 1063 q 193 1031 156 1026 q 196 1032 195 1031 q 199 1034 198 1033 l 293 1067 l 303 995 l 39 890 l 29 961 l 102 989 m 243 852 l 243 1 l 99 1 l 99 852 l 243 852 z "},"ؤ":{"ha":632,"x_min":62,"x_max":570,"o":"m 239 686 q 201 727 216 705 q 186 788 186 749 q 228 885 186 847 q 321 924 269 924 q 367 918 347 924 q 406 901 387 912 l 407 828 q 367 842 386 839 q 331 846 349 846 q 279 829 303 846 q 255 779 255 812 q 274 741 256 760 q 330 728 293 723 q 333 729 332 728 q 336 730 335 730 l 430 764 l 440 692 l 176 587 l 166 658 l 239 686 m 570 131 q 452 -204 570 -83 q 117 -366 334 -324 l 64 -227 q 306 -137 213 -198 q 420 14 399 -77 q 371 2 397 7 q 322 -2 344 -2 q 130 52 197 -2 q 62 223 62 106 q 78 329 62 275 q 124 426 94 382 q 200 498 155 471 q 304 526 245 526 q 422 492 372 526 q 505 402 473 459 q 554 276 538 346 q 570 131 570 205 m 323 153 q 380 157 352 153 q 431 168 408 161 q 394 314 424 254 q 302 374 363 374 q 241 349 263 374 q 210 290 219 323 q 201 229 201 256 q 233 169 201 185 q 323 153 265 153 z "},"إ":{"ha":342,"x_min":25,"x_max":299,"o":"m 98 -309 q 60 -268 75 -290 q 45 -207 45 -245 q 86 -110 45 -148 q 180 -71 127 -71 q 226 -77 206 -71 q 265 -94 245 -83 l 266 -167 q 226 -153 245 -156 q 190 -149 208 -149 q 138 -166 162 -149 q 114 -216 114 -183 q 133 -254 115 -235 q 189 -267 152 -272 q 192 -266 191 -267 q 195 -264 194 -265 l 289 -231 l 299 -303 l 35 -408 l 25 -337 l 98 -309 m 244 941 l 244 1 l 100 1 l 100 941 l 244 941 z "},"ئ":{"ha":992,"x_min":63,"x_max":933,"o":"m 267 557 q 229 598 243 576 q 214 659 214 621 q 255 756 214 718 q 349 795 296 795 q 395 789 375 795 q 434 772 414 783 l 435 699 q 395 713 414 710 q 359 717 376 717 q 307 700 331 717 q 283 650 283 683 q 302 612 283 631 q 358 600 321 594 q 361 600 359 600 q 364 602 363 601 l 458 635 l 468 563 l 204 458 l 194 529 l 267 557 m 475 -342 q 238 -288 328 -342 q 105 -141 147 -233 q 63 64 63 -48 q 79 220 63 140 q 124 378 95 300 l 257 326 q 220 193 235 260 q 205 65 205 126 q 230 -62 205 -4 q 313 -154 254 -119 q 475 -189 372 -189 q 646 -165 574 -189 q 759 -105 719 -141 q 798 -35 798 -70 q 789 -6 798 -19 q 754 7 779 7 l 644 7 q 503 50 557 7 q 448 208 448 93 q 487 378 448 299 q 595 505 525 456 q 762 553 666 553 q 847 541 804 553 q 931 500 891 528 l 882 367 q 821 390 850 383 q 762 397 791 397 q 636 342 682 397 q 591 208 591 288 q 604 172 591 182 q 646 161 616 161 l 753 161 q 895 110 857 161 q 933 -22 933 58 q 880 -180 933 -107 q 725 -298 827 -254 q 475 -342 623 -342 z "},"ا":{"ha":342,"x_min":99,"x_max":243,"o":"m 243 941 l 243 1 l 99 1 l 99 941 l 243 941 z "},"ب":{"ha":1230,"x_min":62,"x_max":1168,"o":"m 635 -94 l 743 -202 l 635 -311 l 526 -202 l 635 -94 m 745 0 l 587 0 q 306 29 423 0 q 125 127 188 58 q 62 321 62 197 q 74 425 62 374 q 104 520 85 475 l 235 471 q 215 403 224 441 q 205 332 205 366 q 252 220 205 258 q 385 169 299 182 q 587 155 471 155 l 746 155 q 881 162 817 155 q 986 197 945 170 q 1026 283 1026 224 q 1017 378 1026 324 q 997 484 1008 433 l 1141 521 q 1161 404 1154 463 q 1168 296 1168 345 q 1135 141 1168 200 q 1045 52 1103 82 q 910 11 987 21 q 745 0 833 0 z "},"ة":{"ha":662,"x_min":62,"x_max":600,"o":"m 217 514 l 191 538 l 281 654 q 439 519 366 585 q 556 388 512 454 q 600 245 600 321 q 525 68 600 133 q 331 3 450 3 q 133 65 203 3 q 62 224 62 128 q 104 373 62 305 q 217 514 146 440 m 460 248 q 438 306 460 275 q 386 366 417 336 q 323 421 354 395 q 238 328 273 374 q 203 239 203 283 q 235 179 203 203 q 330 155 267 155 q 460 248 460 155 m 426 931 l 530 827 l 426 722 l 323 827 l 426 931 m 199 931 l 304 827 l 199 722 l 96 827 l 199 931 z "},"ت":{"ha":1230,"x_min":62,"x_max":1168,"o":"m 745 0 l 587 0 q 306 29 423 0 q 125 127 188 58 q 62 321 62 197 q 74 425 62 374 q 104 520 85 475 l 235 471 q 215 403 224 441 q 205 332 205 366 q 252 220 205 258 q 385 169 299 182 q 587 155 471 155 l 746 155 q 881 162 817 155 q 986 197 945 170 q 1026 283 1026 224 q 1017 378 1026 324 q 997 484 1008 433 l 1141 521 q 1161 404 1154 463 q 1168 296 1168 345 q 1135 141 1168 200 q 1045 52 1103 82 q 910 11 987 21 q 745 0 833 0 m 733 700 l 838 596 l 733 491 l 630 596 l 733 700 m 507 700 l 611 596 l 507 491 l 403 596 l 507 700 z "},"ث":{"ha":1230,"x_min":62,"x_max":1168,"o":"m 745 0 l 587 0 q 306 29 423 0 q 125 127 188 58 q 62 321 62 197 q 74 425 62 374 q 104 520 85 475 l 235 471 q 215 403 224 441 q 205 332 205 366 q 252 220 205 258 q 385 169 299 182 q 587 155 471 155 l 746 155 q 881 162 817 155 q 986 197 945 170 q 1026 283 1026 224 q 1017 378 1026 324 q 997 484 1008 433 l 1141 521 q 1161 404 1154 463 q 1168 296 1168 345 q 1135 141 1168 200 q 1045 52 1103 82 q 910 11 987 21 q 745 0 833 0 m 620 821 l 719 722 l 620 623 l 521 722 l 620 821 m 737 649 l 836 550 l 737 451 l 638 550 l 737 649 m 503 649 l 602 550 l 503 451 l 404 550 l 503 649 z "},"ج":{"ha":944,"x_min":50,"x_max":889,"o":"m 868 444 l 868 301 q 618 258 738 290 q 406 175 499 227 q 257 56 312 124 q 203 -97 203 -13 q 289 -263 203 -207 q 528 -319 374 -319 q 695 -302 612 -319 q 848 -256 779 -286 l 889 -400 q 714 -452 809 -435 q 525 -469 620 -469 q 290 -431 394 -469 q 124 -312 185 -393 q 63 -102 63 -231 q 123 115 63 18 q 292 282 182 212 q 551 388 401 352 q 414 444 476 419 q 330 468 351 468 q 259 446 290 468 q 201 391 227 425 l 175 358 l 50 419 l 69 450 q 182 574 118 528 q 330 620 246 620 q 414 603 366 620 q 518 559 462 585 q 634 508 574 534 q 753 463 694 481 q 868 444 813 445 m 564 73 l 673 -36 l 564 -144 l 456 -36 l 564 73 z "},"ح":{"ha":944,"x_min":50,"x_max":889,"o":"m 868 444 l 868 301 q 618 258 738 290 q 406 175 499 227 q 257 56 312 124 q 203 -97 203 -13 q 289 -263 203 -207 q 528 -319 374 -319 q 695 -302 612 -319 q 848 -256 779 -286 l 889 -400 q 714 -452 809 -435 q 525 -469 620 -469 q 290 -431 394 -469 q 124 -312 185 -393 q 63 -102 63 -231 q 123 115 63 18 q 292 282 182 212 q 551 388 401 352 q 414 444 476 419 q 330 468 351 468 q 259 446 290 468 q 201 391 227 425 l 175 358 l 50 419 l 69 450 q 182 574 118 528 q 330 620 246 620 q 414 603 366 620 q 518 559 462 585 q 634 508 574 534 q 753 463 694 481 q 868 444 813 445 z "},"خ":{"ha":944,"x_min":50,"x_max":889,"o":"m 399 928 l 508 820 l 399 711 l 291 820 l 399 928 m 868 444 l 868 301 q 618 258 738 290 q 406 175 499 227 q 257 56 312 124 q 203 -97 203 -13 q 289 -263 203 -207 q 528 -319 374 -319 q 695 -302 612 -319 q 848 -256 779 -286 l 889 -400 q 714 -452 809 -435 q 525 -469 620 -469 q 290 -431 394 -469 q 124 -312 185 -393 q 63 -102 63 -231 q 123 115 63 18 q 292 282 182 212 q 551 388 401 352 q 414 444 476 419 q 330 468 351 468 q 259 446 290 468 q 201 391 227 425 l 175 358 l 50 419 l 69 450 q 182 574 118 528 q 330 620 246 620 q 414 603 366 620 q 518 559 462 585 q 634 508 574 534 q 753 463 694 481 q 868 444 813 445 z "},"د":{"ha":680,"x_min":62,"x_max":617,"o":"m 229 153 q 408 181 340 153 q 477 273 477 209 q 401 410 477 338 q 189 554 326 483 l 256 691 q 444 574 363 637 q 571 438 526 511 q 617 278 617 364 q 520 68 617 135 q 239 1 424 1 q 146 5 190 1 q 62 18 102 9 l 62 173 q 150 159 106 164 q 229 153 193 153 z "},"ذ":{"ha":680,"x_min":62,"x_max":617,"o":"m 252 997 l 361 888 l 252 780 l 144 888 l 252 997 m 229 153 q 408 181 340 153 q 477 273 477 209 q 401 410 477 338 q 189 554 326 483 l 256 691 q 444 574 363 637 q 571 438 526 511 q 617 278 617 364 q 520 68 617 135 q 239 1 424 1 q 146 5 190 1 q 62 18 102 9 l 62 173 q 150 159 106 164 q 229 153 193 153 z "},"ر":{"ha":490,"x_min":-20,"x_max":429,"o":"m 32 -367 l -20 -227 q 212 -114 137 -193 q 288 94 288 -35 q 272 223 288 154 q 234 359 256 292 l 377 406 q 416 259 403 335 q 429 113 429 184 q 327 -202 429 -75 q 32 -367 226 -329 z "},"ز":{"ha":490,"x_min":-20,"x_max":429,"o":"m 288 738 l 396 629 l 288 521 l 179 629 l 288 738 m 32 -367 l -20 -227 q 212 -114 137 -193 q 288 94 288 -35 q 272 223 288 154 q 234 359 256 292 l 377 406 q 416 259 403 335 q 429 113 429 184 q 327 -202 429 -75 q 32 -367 226 -329 z "},"س":{"ha":1656,"x_min":63,"x_max":1594,"o":"m 1013 0 q 944 11 973 0 q 893 36 915 21 q 840 -165 887 -79 q 701 -301 792 -252 q 475 -349 610 -349 q 238 -295 328 -349 q 105 -148 147 -240 q 63 58 63 -55 q 79 213 63 133 q 124 372 95 294 l 257 319 q 220 186 235 254 q 205 58 205 119 q 230 -68 205 -11 q 313 -161 254 -126 q 475 -195 372 -195 q 641 -161 581 -195 q 725 -69 701 -126 q 749 56 749 -12 q 727 212 749 134 q 681 349 705 290 l 825 405 l 868 272 q 920 187 886 218 q 1014 155 954 155 q 1102 189 1079 155 q 1124 288 1124 222 q 1122 338 1124 304 q 1117 412 1120 371 l 1255 429 l 1267 269 q 1293 188 1271 220 q 1367 155 1316 155 q 1435 193 1416 155 q 1453 282 1453 231 q 1441 392 1453 336 q 1423 475 1430 448 l 1565 514 q 1586 409 1578 465 q 1594 300 1594 354 q 1573 153 1594 222 q 1502 43 1552 85 q 1368 0 1453 1 q 1263 26 1304 0 q 1196 96 1223 52 q 1115 25 1160 50 q 1013 0 1069 0 z "},"ش":{"ha":1656,"x_min":63,"x_max":1594,"o":"m 1158 925 l 1257 826 l 1158 727 l 1059 826 l 1158 925 m 1275 753 l 1374 654 l 1275 555 l 1176 654 l 1275 753 m 1041 753 l 1140 654 l 1041 555 l 941 654 l 1041 753 m 1013 0 q 944 11 973 0 q 893 36 915 21 q 840 -165 887 -79 q 701 -301 792 -252 q 475 -349 610 -349 q 238 -295 328 -349 q 105 -148 147 -240 q 63 58 63 -55 q 79 213 63 133 q 124 372 95 294 l 257 319 q 220 186 235 254 q 205 58 205 119 q 230 -68 205 -11 q 313 -161 254 -126 q 475 -195 372 -195 q 641 -161 581 -195 q 725 -69 701 -126 q 749 56 749 -12 q 727 212 749 134 q 681 349 705 290 l 825 405 l 868 272 q 920 187 886 218 q 1014 155 954 155 q 1102 189 1079 155 q 1124 288 1124 222 q 1122 338 1124 304 q 1117 412 1120 371 l 1255 429 l 1267 269 q 1293 188 1271 220 q 1367 155 1316 155 q 1435 193 1416 155 q 1453 282 1453 231 q 1441 392 1453 336 q 1423 475 1430 448 l 1565 514 q 1586 409 1578 465 q 1594 300 1594 354 q 1573 153 1594 222 q 1502 43 1552 85 q 1368 0 1453 1 q 1263 26 1304 0 q 1196 96 1223 52 q 1115 25 1160 50 q 1013 0 1069 0 z "},"ص":{"ha":1748,"x_min":63,"x_max":1686,"o":"m 475 -349 q 238 -295 328 -349 q 105 -148 147 -240 q 63 58 63 -55 q 79 213 63 133 q 124 372 95 294 l 257 319 q 220 186 235 254 q 205 58 205 119 q 230 -68 205 -11 q 313 -161 254 -126 q 475 -195 372 -195 q 641 -161 581 -195 q 725 -69 701 -126 q 749 56 749 -12 q 727 212 749 134 q 681 349 705 290 l 825 405 l 868 272 q 899 205 881 233 q 937 178 916 178 q 1162 469 1046 361 q 1409 576 1278 576 q 1552 542 1490 576 q 1650 447 1615 507 q 1686 309 1686 387 q 1624 130 1686 198 q 1446 31 1561 62 q 1173 0 1331 0 l 1137 0 q 996 11 1054 0 q 893 36 937 21 q 840 -165 887 -79 q 701 -301 792 -252 q 475 -349 610 -349 m 1413 423 q 1250 350 1334 423 q 1086 155 1165 277 l 1175 155 q 1442 187 1343 155 q 1541 300 1541 218 q 1505 389 1541 354 q 1413 423 1470 423 z "},"ض":{"ha":1748,"x_min":63,"x_max":1686,"o":"m 1384 910 l 1493 802 l 1384 693 l 1276 802 l 1384 910 m 475 -349 q 238 -295 328 -349 q 105 -148 147 -240 q 63 58 63 -55 q 79 213 63 133 q 124 372 95 294 l 257 319 q 220 186 235 254 q 205 58 205 119 q 230 -68 205 -11 q 313 -161 254 -126 q 475 -195 372 -195 q 641 -161 581 -195 q 725 -69 701 -126 q 749 56 749 -12 q 727 212 749 134 q 681 349 705 290 l 825 405 l 868 272 q 899 205 881 233 q 937 178 916 178 q 1162 469 1046 361 q 1409 576 1278 576 q 1552 542 1490 576 q 1650 447 1615 507 q 1686 309 1686 387 q 1624 130 1686 198 q 1446 31 1561 62 q 1173 0 1331 0 l 1137 0 q 996 11 1054 0 q 893 36 937 21 q 840 -165 887 -79 q 701 -301 792 -252 q 475 -349 610 -349 m 1413 423 q 1250 350 1334 423 q 1086 155 1165 277 l 1175 155 q 1442 187 1343 155 q 1541 300 1541 218 q 1505 389 1541 354 q 1413 423 1470 423 z "},"ط":{"ha":1043,"x_min":60,"x_max":981,"o":"m 224 155 q 248 193 235 174 q 271 229 260 211 l 271 941 l 416 941 l 416 420 q 555 536 485 496 q 703 576 625 576 q 848 542 785 576 q 946 447 911 507 q 981 309 981 387 q 919 130 981 198 q 742 31 857 62 q 468 0 627 0 l 60 0 l 60 155 l 224 155 m 709 423 q 545 350 629 423 q 382 156 460 277 l 470 155 q 738 187 639 155 q 836 300 836 218 q 801 389 836 354 q 709 423 765 423 z "},"ظ":{"ha":1043,"x_min":60,"x_max":981,"o":"m 694 910 l 802 802 l 694 693 l 585 802 l 694 910 m 224 155 q 248 193 235 174 q 271 229 260 211 l 271 941 l 416 941 l 416 420 q 555 536 485 496 q 703 576 625 576 q 848 542 785 576 q 946 447 911 507 q 981 309 981 387 q 919 130 981 198 q 742 31 857 62 q 468 0 627 0 l 60 0 l 60 155 l 224 155 m 709 423 q 545 350 629 423 q 382 156 460 277 l 470 155 q 738 187 639 155 q 836 300 836 218 q 801 389 836 354 q 709 423 765 423 z "},"ع":{"ha":874,"x_min":62,"x_max":814,"o":"m 744 313 l 735 166 q 693 168 709 168 q 662 168 677 168 q 320 100 437 168 q 202 -98 202 33 q 242 -224 202 -176 q 347 -295 282 -273 q 486 -317 412 -317 q 637 -300 564 -317 q 774 -259 711 -284 l 814 -402 q 659 -451 741 -433 q 494 -469 576 -469 q 332 -448 410 -469 q 194 -384 254 -427 q 98 -271 133 -340 q 62 -104 62 -201 q 114 96 62 5 q 280 250 165 186 q 208 439 208 333 q 248 576 208 513 q 352 676 288 638 q 492 715 417 715 q 614 691 552 715 q 739 623 675 667 l 683 497 q 590 543 634 526 q 501 560 545 560 q 398 525 444 560 q 353 430 353 490 q 378 352 353 384 q 426 300 403 321 q 543 313 492 309 q 646 317 594 317 q 692 316 672 317 q 744 313 713 315 z "},"غ":{"ha":874,"x_min":62,"x_max":814,"o":"m 473 1029 l 581 920 l 473 812 l 364 920 l 473 1029 m 744 313 l 735 166 q 693 168 709 168 q 662 168 677 168 q 320 100 437 168 q 202 -98 202 33 q 242 -224 202 -176 q 347 -295 282 -273 q 486 -317 412 -317 q 637 -300 564 -317 q 774 -259 711 -284 l 814 -402 q 659 -451 741 -433 q 494 -469 576 -469 q 332 -448 410 -469 q 194 -384 254 -427 q 98 -271 133 -340 q 62 -104 62 -201 q 114 96 62 5 q 280 250 165 186 q 208 439 208 333 q 248 576 208 513 q 352 676 288 638 q 492 715 417 715 q 614 691 552 715 q 739 623 675 667 l 683 497 q 590 543 634 526 q 501 560 545 560 q 398 525 444 560 q 353 430 353 490 q 378 352 353 384 q 426 300 403 321 q 543 313 492 309 q 646 317 594 317 q 692 316 672 317 q 744 313 713 315 z "},"ؽ":{"ha":992,"x_min":63,"x_max":933,"o":"m 444 506 l 382 475 l 299 644 l 216 475 l 155 506 l 261 723 l 337 723 l 444 506 m 475 -342 q 238 -288 328 -342 q 105 -141 147 -233 q 63 64 63 -48 q 79 220 63 140 q 124 378 95 300 l 257 326 q 220 193 235 260 q 205 65 205 126 q 230 -62 205 -4 q 313 -154 254 -119 q 475 -189 372 -189 q 646 -165 574 -189 q 759 -105 719 -141 q 798 -35 798 -70 q 789 -6 798 -19 q 754 7 779 7 l 644 7 q 503 50 557 7 q 448 208 448 93 q 487 378 448 299 q 595 505 525 456 q 762 553 666 553 q 847 541 804 553 q 931 500 891 528 l 882 367 q 821 390 850 383 q 762 397 791 397 q 636 342 682 397 q 591 208 591 288 q 604 172 591 182 q 646 161 616 161 l 753 161 q 895 110 857 161 q 933 -22 933 58 q 880 -180 933 -107 q 725 -298 827 -254 q 475 -342 623 -342 z "},"ـ":{"ha":383,"x_min":-14,"x_max":397,"o":"m -14 155 l 397 155 l 397 0 l -14 0 l -14 155 z "},"ف":{"ha":1219,"x_min":62,"x_max":1157,"o":"m 876 1061 l 984 953 l 876 844 l 767 953 l 876 1061 m 1020 267 q 960 255 991 260 q 895 251 928 251 q 714 301 777 251 q 652 454 652 351 q 680 589 652 522 q 762 701 709 656 q 890 745 816 745 q 1011 710 961 745 q 1094 615 1062 675 q 1142 480 1126 555 q 1157 328 1157 406 q 1138 160 1157 224 q 1078 60 1119 95 q 971 13 1037 26 q 812 0 906 0 l 587 0 q 304 29 421 0 q 124 127 186 58 q 62 321 62 197 q 74 425 62 374 q 104 520 85 475 l 235 471 q 215 403 224 440 q 205 332 205 366 q 253 220 205 258 q 387 169 300 182 q 587 155 473 155 l 823 155 q 937 162 893 155 q 1000 193 980 169 q 1020 267 1020 216 m 899 392 q 956 396 928 392 q 1014 408 985 401 q 995 493 1008 450 q 955 565 981 536 q 889 595 930 595 q 830 573 853 595 q 797 520 808 551 q 786 459 786 488 q 817 405 786 418 q 899 392 847 392 z "},"ق":{"ha":977,"x_min":63,"x_max":914,"o":"m 745 854 l 849 751 l 745 646 l 642 751 l 745 854 m 518 854 l 623 751 l 518 646 l 414 751 l 518 854 m 477 -300 q 239 -245 331 -300 q 105 -98 148 -191 q 63 107 63 -5 q 79 263 63 182 q 124 421 95 343 l 257 369 q 220 236 235 303 q 205 108 205 169 q 230 -19 205 39 q 315 -111 255 -77 q 477 -146 374 -146 q 703 -89 633 -146 q 777 74 772 -32 q 716 61 747 66 q 649 56 685 56 q 467 108 530 56 q 404 267 404 160 q 419 368 404 316 q 465 463 435 419 q 540 532 495 506 q 643 559 585 559 q 768 522 716 559 q 852 422 820 485 q 899 282 884 359 q 914 123 914 204 q 477 -300 914 -300 m 649 205 q 708 209 679 205 q 766 221 737 214 q 747 306 761 262 q 708 379 733 349 q 642 408 682 408 q 583 386 606 408 q 549 333 560 364 q 538 273 538 301 q 568 218 538 231 q 649 205 598 205 z "},"ك":{"ha":1241,"x_min":62,"x_max":1142,"o":"m 587 155 l 692 155 q 862 166 800 155 q 953 199 924 176 q 990 257 982 221 q 998 342 998 292 l 998 941 l 1142 941 l 1142 344 q 1122 181 1142 247 q 1053 75 1102 115 q 918 18 1004 35 q 699 0 832 0 l 587 0 q 306 28 424 0 q 125 127 189 57 q 62 321 62 197 q 74 425 62 374 q 104 520 85 475 l 235 471 q 215 403 224 440 q 205 332 205 366 q 252 220 205 258 q 384 169 298 182 q 587 155 470 155 m 482 442 q 591 431 528 431 q 662 438 631 431 q 692 463 692 446 q 673 479 692 473 q 627 491 654 485 q 571 508 599 497 q 524 539 543 519 q 505 593 505 559 q 530 667 505 636 q 592 719 554 699 q 671 748 630 739 q 747 758 713 758 l 753 668 q 687 659 726 668 q 618 633 648 649 q 587 599 587 618 q 605 584 587 589 q 648 573 622 578 q 700 557 673 567 q 745 528 727 547 q 772 466 772 505 q 746 394 772 420 q 678 358 720 368 q 588 347 636 347 q 534 350 562 347 q 482 356 507 352 l 482 442 z "},"ل":{"ha":906,"x_min":62,"x_max":808,"o":"m 808 94 q 717 -229 808 -121 q 439 -336 627 -336 q 154 -234 245 -336 q 62 42 62 -132 q 79 196 62 117 q 123 351 95 276 l 256 298 q 219 169 235 237 q 203 39 203 100 q 259 -125 203 -66 q 439 -183 315 -183 q 611 -117 559 -183 q 663 81 663 -52 l 663 941 l 808 941 l 808 94 z "},"م":{"ha":841,"x_min":60,"x_max":779,"o":"m 241 231 q 302 378 265 313 q 392 479 340 442 q 516 516 445 516 q 652 479 593 516 q 745 378 711 443 q 779 227 779 313 q 754 106 779 160 q 682 21 730 52 q 559 -11 633 -11 q 480 2 521 -11 q 400 32 439 15 q 329 61 361 48 q 277 74 297 74 q 218 12 231 74 q 204 -180 204 -50 q 208 -319 204 -258 q 215 -432 211 -381 l 68 -432 q 62 -304 64 -365 q 60 -184 60 -243 q 70 14 60 -75 q 119 159 81 102 q 241 231 157 216 m 639 227 q 606 325 639 284 q 519 366 572 366 q 456 342 482 366 q 411 282 429 319 q 380 205 393 245 q 488 160 441 178 q 562 142 535 142 q 620 166 602 142 q 639 227 639 191 z "},"ن":{"ha":955,"x_min":63,"x_max":892,"o":"m 466 604 l 574 495 l 466 387 l 357 495 l 466 604 m 475 -146 q 641 -112 581 -146 q 725 -20 701 -77 q 749 105 749 37 q 727 261 749 182 q 681 398 705 339 l 825 454 q 876 277 860 361 q 892 112 892 193 q 847 -104 892 -12 q 709 -248 802 -197 q 475 -300 616 -300 q 238 -245 328 -300 q 105 -98 147 -191 q 63 106 63 -6 q 79 263 63 182 q 124 421 95 343 l 257 369 q 220 235 235 302 q 205 108 205 168 q 230 -20 205 38 q 313 -112 254 -77 q 475 -146 372 -146 z "},"ه":{"ha":662,"x_min":62,"x_max":600,"o":"m 217 514 l 191 538 l 281 654 q 439 519 366 585 q 556 388 512 454 q 600 245 600 321 q 525 68 600 133 q 331 3 450 3 q 133 65 203 3 q 62 224 62 128 q 104 373 62 305 q 217 514 146 440 m 460 248 q 438 306 460 275 q 386 366 417 336 q 323 421 354 395 q 238 328 273 374 q 203 239 203 283 q 235 179 203 203 q 330 155 267 155 q 460 248 460 155 z "},"و":{"ha":632,"x_min":62,"x_max":570,"o":"m 570 131 q 452 -204 570 -83 q 117 -366 334 -324 l 64 -227 q 306 -137 213 -198 q 420 14 399 -77 q 371 2 397 7 q 322 -2 344 -2 q 130 52 197 -2 q 62 223 62 106 q 78 329 62 275 q 124 426 94 382 q 200 498 155 471 q 304 526 245 526 q 422 492 372 526 q 505 402 473 459 q 554 276 538 346 q 570 131 570 205 m 323 153 q 380 157 352 153 q 431 168 408 161 q 394 314 424 254 q 302 374 363 374 q 241 349 263 374 q 210 290 219 323 q 201 229 201 256 q 233 169 201 185 q 323 153 265 153 z "},"ى":{"ha":992,"x_min":63,"x_max":933,"o":"m 475 -342 q 238 -288 328 -342 q 105 -141 147 -233 q 63 64 63 -48 q 79 220 63 140 q 124 378 95 300 l 257 326 q 220 193 235 260 q 205 65 205 126 q 230 -62 205 -4 q 313 -154 254 -119 q 475 -189 372 -189 q 646 -165 574 -189 q 759 -105 719 -141 q 798 -35 798 -70 q 789 -6 798 -19 q 754 7 779 7 l 644 7 q 503 50 557 7 q 448 208 448 93 q 487 378 448 299 q 595 505 525 456 q 762 553 666 553 q 847 541 804 553 q 931 500 891 528 l 882 367 q 821 390 850 383 q 762 397 791 397 q 636 342 682 397 q 591 208 591 288 q 604 172 591 182 q 646 161 616 161 l 753 161 q 895 110 857 161 q 933 -22 933 58 q 880 -180 933 -107 q 725 -298 827 -254 q 475 -342 623 -342 z "},"ي":{"ha":992,"x_min":63,"x_max":933,"o":"m 605 -427 l 709 -530 l 605 -635 l 502 -530 l 605 -427 m 378 -427 l 483 -530 l 378 -635 l 275 -530 l 378 -427 m 475 -342 q 238 -288 328 -342 q 105 -141 147 -233 q 63 64 63 -48 q 79 220 63 140 q 124 378 95 300 l 257 326 q 220 193 235 260 q 205 65 205 126 q 230 -62 205 -4 q 313 -154 254 -119 q 475 -189 372 -189 q 646 -165 574 -189 q 759 -105 719 -141 q 798 -35 798 -70 q 789 -6 798 -19 q 754 7 779 7 l 644 7 q 503 50 557 7 q 448 208 448 93 q 487 378 448 299 q 595 505 525 456 q 762 553 666 553 q 847 541 804 553 q 931 500 891 528 l 882 367 q 821 390 850 383 q 762 397 791 397 q 636 342 682 397 q 591 208 591 288 q 604 172 591 182 q 646 161 616 161 l 753 161 q 895 110 857 161 q 933 -22 933 58 q 880 -180 933 -107 q 725 -298 827 -254 q 475 -342 623 -342 z "},"ً":{"ha":0,"x_min":37,"x_max":331,"o":"m 37 829 l 37 899 l 331 1020 l 331 949 l 37 829 m 37 690 l 37 760 l 331 881 l 331 810 l 37 690 z "},"ٌ":{"ha":0,"x_min":1,"x_max":411,"o":"m 356 711 q 253 636 321 664 q 93 606 184 608 l 69 658 q 90 743 90 715 q 58 775 90 775 q 7 765 39 775 l 1 827 q 37 837 20 833 q 70 840 55 840 q 145 745 145 840 q 136 669 145 712 q 220 686 173 674 q 295 726 267 699 q 210 759 249 730 q 170 845 170 787 q 203 925 170 891 q 285 958 236 958 q 367 927 334 958 q 399 844 399 896 q 382 762 399 806 q 395 761 388 762 q 411 759 401 760 l 405 707 q 379 709 390 708 q 356 711 369 710 m 323 774 q 335 809 330 791 q 340 844 340 827 q 325 883 340 868 q 288 898 310 898 q 247 881 262 898 q 231 842 231 863 q 258 797 231 810 q 323 774 286 783 z "},"ٍ":{"ha":0,"x_min":37,"x_max":332,"o":"m 37 -297 l 37 -227 l 332 -107 l 332 -177 l 37 -297 m 37 -436 l 37 -366 l 332 -246 l 332 -316 l 37 -436 z "},"َ":{"ha":0,"x_min":41,"x_max":336,"o":"m 41 770 l 41 840 l 336 960 l 336 890 l 41 770 z "},"ُ":{"ha":0,"x_min":10,"x_max":319,"o":"m 313 721 q 289 723 300 722 q 264 725 279 724 q 20 621 195 630 l 10 677 q 128 699 77 684 q 204 739 179 715 q 119 771 158 743 q 79 858 79 800 q 112 938 79 904 q 194 972 144 972 q 276 940 243 972 q 309 857 309 909 q 304 817 309 838 q 292 775 299 796 q 319 772 304 773 l 313 721 m 231 788 q 244 823 239 804 q 249 857 249 842 q 234 896 249 881 q 197 911 218 911 q 156 893 172 911 q 140 855 140 876 q 168 810 140 823 q 231 788 195 797 z "},"ِ":{"ha":0,"x_min":37,"x_max":331,"o":"m 37 -347 l 37 -276 l 331 -156 l 331 -227 l 37 -347 z "},"ّ":{"ha":0,"x_min":14,"x_max":393,"o":"m 236 888 q 240 832 237 861 q 253 782 242 802 q 290 762 264 762 q 319 779 311 762 q 326 820 326 795 q 322 866 326 842 q 314 909 317 890 l 380 922 q 393 831 393 876 q 369 732 393 770 q 291 694 345 694 q 251 701 273 694 q 214 730 230 707 q 173 677 203 691 q 111 663 142 663 q 37 700 60 663 q 14 787 14 736 q 23 860 14 822 l 83 850 q 78 823 81 838 q 76 795 76 809 q 85 753 76 771 q 119 736 94 736 q 169 766 161 736 q 176 859 176 795 l 176 882 l 236 888 z "},"ْ":{"ha":0,"x_min":26,"x_max":269,"o":"m 26 788 q 62 874 26 838 q 147 910 98 910 q 233 874 197 910 q 269 788 269 838 q 233 703 269 739 q 147 667 197 667 q 62 703 98 667 q 26 788 26 739 m 85 788 q 103 745 85 762 q 147 727 121 727 q 191 745 173 727 q 208 788 208 762 q 191 832 208 814 q 147 850 173 850 q 103 832 121 850 q 85 788 85 814 z "},"ٓ":{"ha":0,"x_min":-14,"x_max":452,"o":"m 154 817 q 118 801 141 817 q 74 764 96 784 q 41 732 52 743 l -14 783 q 34 829 4 802 q 95 878 63 857 q 151 899 127 899 q 196 884 169 899 q 251 853 223 869 q 300 838 279 838 q 331 851 312 838 q 368 880 349 864 q 397 907 387 897 l 452 857 q 409 816 435 840 q 354 774 382 792 q 303 757 326 757 q 257 772 286 757 q 199 802 228 787 q 154 817 171 817 z "},"ٔ":{"ha":0,"x_min":21,"x_max":295,"o":"m 94 725 q 56 766 71 743 q 41 827 41 788 q 82 924 41 886 q 176 962 123 962 q 222 957 202 962 q 261 939 241 951 l 262 867 q 222 881 241 878 q 186 884 203 884 q 134 867 158 884 q 110 818 110 850 q 129 780 111 798 q 185 767 148 762 q 188 768 186 767 q 191 769 190 768 l 285 802 l 295 730 l 31 626 l 21 696 l 94 725 z "},"ٕ":{"ha":0,"x_min":7,"x_max":281,"o":"m 79 -277 q 42 -237 56 -259 q 27 -176 27 -214 q 68 -78 27 -117 q 162 -40 109 -40 q 208 -46 188 -40 q 247 -63 227 -52 l 248 -136 q 208 -121 227 -125 q 172 -118 189 -118 q 120 -135 144 -118 q 96 -184 96 -152 q 115 -222 96 -204 q 171 -235 134 -241 q 174 -235 172 -235 q 177 -233 176 -234 l 271 -200 l 281 -272 l 17 -376 l 7 -306 l 79 -277 z "},"ٖ":{"ha":0,"x_min":41,"x_max":106,"o":"m 41 -268 l 41 -16 l 106 -16 l 106 -268 l 41 -268 z "},"ٗ":{"ha":0,"x_min":58,"x_max":367,"o":"m 64 928 q 88 927 77 928 q 113 924 98 926 q 357 1029 182 1019 l 367 972 q 250 950 301 966 q 173 911 198 935 q 258 878 219 906 q 298 791 298 850 q 265 711 298 745 q 183 677 233 677 q 101 709 134 677 q 68 792 68 741 q 73 832 68 812 q 86 874 78 853 q 58 877 73 876 l 64 928 m 146 861 q 134 827 139 845 q 128 793 128 808 q 143 753 128 768 q 180 739 159 739 q 222 756 206 739 q 237 794 237 773 q 210 840 237 827 q 146 861 182 852 z "},"٘":{"ha":0,"x_min":41,"x_max":384,"o":"m 384 879 q 335 746 377 801 q 212 690 293 690 q 90 746 131 690 q 41 879 48 802 l 115 879 q 142 797 121 829 q 212 766 163 766 q 282 798 261 766 q 309 879 302 829 l 384 879 z "},"ٚ":{"ha":0,"x_min":250,"x_max":538,"o":"m 356 994 l 250 1211 l 311 1241 l 394 1073 l 477 1241 l 538 1211 l 432 994 l 356 994 z "},"ٛ":{"ha":0,"x_min":250,"x_max":538,"o":"m 538 997 l 477 966 l 394 1135 l 311 966 l 250 997 l 356 1214 l 432 1214 l 538 997 z "},"٠":{"ha":526,"x_min":105,"x_max":420,"o":"m 263 167 l 105 325 l 262 481 l 420 324 l 263 167 z "},"١":{"ha":416,"x_min":54,"x_max":319,"o":"m 319 0 l 172 0 l 172 146 q 147 554 172 380 q 54 869 121 729 l 190 918 q 292 566 264 755 q 319 144 319 377 l 319 0 z "},"٢":{"ha":742,"x_min":54,"x_max":680,"o":"m 673 906 q 678 850 676 879 q 680 795 680 822 q 656 632 680 703 q 577 521 633 562 q 426 480 522 480 q 369 483 403 480 q 302 495 336 486 q 316 313 313 399 q 319 144 319 226 l 319 0 l 172 0 l 172 146 q 147 554 172 380 q 54 869 121 729 l 189 918 q 221 838 207 872 q 252 759 235 804 q 314 660 279 687 q 422 633 349 633 q 517 675 491 633 q 543 772 543 717 q 539 835 543 805 q 531 893 536 865 l 673 906 z "},"٣":{"ha":930,"x_min":54,"x_max":868,"o":"m 662 480 q 574 497 616 480 q 508 551 532 515 q 445 498 485 516 q 371 480 404 480 q 338 481 354 480 q 303 488 321 482 q 313 362 310 418 q 318 254 317 306 q 319 144 319 202 l 319 0 l 172 0 l 172 146 q 147 554 172 380 q 54 869 121 729 l 189 918 q 227 820 212 862 q 264 726 241 779 q 300 661 279 688 q 363 633 320 634 q 426 664 408 633 q 445 772 444 694 l 446 865 l 572 871 l 576 785 q 598 664 579 694 q 658 633 617 633 q 704 654 688 633 q 726 707 720 675 q 732 774 732 740 q 728 838 732 806 q 720 893 724 869 l 862 906 q 868 795 868 851 q 849 640 868 712 q 786 524 831 568 q 662 480 741 480 z "},"٤":{"ha":659,"x_min":66,"x_max":600,"o":"m 252 474 q 151 537 188 492 q 114 652 114 582 q 156 787 114 732 q 270 868 198 841 q 432 896 342 896 q 515 890 476 896 l 509 747 q 437 751 473 751 q 312 726 366 751 q 258 651 258 701 q 286 596 258 614 q 361 573 313 578 q 469 566 410 567 l 484 431 q 276 332 342 390 q 210 223 210 274 q 260 170 210 187 q 385 153 310 153 q 482 160 433 153 q 583 180 531 166 l 600 23 q 493 6 547 12 q 389 0 439 0 q 222 22 295 0 q 107 92 149 43 q 66 220 66 140 q 115 360 66 296 q 252 474 164 423 z "},"٥":{"ha":750,"x_min":66,"x_max":684,"o":"m 375 0 q 141 84 216 0 q 66 309 66 168 q 77 421 66 360 q 111 544 88 483 q 170 654 134 604 q 257 735 206 705 q 375 766 308 766 q 492 735 441 766 q 579 654 543 705 q 639 544 616 604 q 673 421 662 483 q 684 309 684 360 q 609 84 684 168 q 375 0 534 0 m 375 618 q 297 583 329 618 q 246 496 265 548 q 218 393 227 445 q 209 309 209 342 q 247 197 209 241 q 375 153 284 153 q 504 197 466 153 q 541 309 541 241 q 533 393 541 341 q 505 496 524 444 q 454 583 486 548 q 375 618 422 618 z "},"٦":{"ha":695,"x_min":60,"x_max":594,"o":"m 277 698 q 169 709 219 698 q 60 740 119 720 l 60 892 q 179 863 119 874 q 304 852 239 852 q 429 863 371 852 q 547 889 488 873 l 578 867 q 562 659 568 762 q 556 456 556 557 q 565 228 556 338 q 594 0 574 118 l 437 0 q 417 201 423 111 q 411 389 411 291 q 414 547 411 465 q 422 716 417 629 q 346 702 373 705 q 277 698 318 698 z "},"٧":{"ha":833,"x_min":41,"x_max":791,"o":"m 345 0 q 266 341 318 179 q 154 632 214 503 q 41 846 94 762 l 175 919 q 260 747 214 848 q 349 529 307 646 q 416 293 391 412 q 483 524 441 407 q 572 745 525 642 q 658 919 618 848 l 791 846 q 680 632 740 762 q 567 341 619 503 q 488 0 515 179 l 345 0 z "},"٨":{"ha":833,"x_min":41,"x_max":791,"o":"m 345 886 l 488 886 q 567 546 515 707 q 680 254 619 384 q 791 40 740 124 l 658 -32 q 572 142 618 39 q 483 363 525 245 q 416 593 441 480 q 349 358 391 475 q 260 140 307 241 q 175 -32 214 39 l 41 40 q 154 254 94 124 q 266 546 214 385 q 345 886 318 708 z "},"٩":{"ha":682,"x_min":58,"x_max":582,"o":"m 323 397 q 184 416 243 397 q 91 483 124 435 q 58 620 58 532 q 74 720 58 668 q 121 815 90 771 q 197 886 152 859 q 301 913 242 913 q 459 859 402 913 q 542 705 517 804 q 570 475 566 606 q 572 375 571 434 q 574 249 573 315 q 578 117 576 182 q 582 0 580 52 l 435 0 q 432 145 434 68 q 430 293 431 223 q 427 409 429 363 q 376 400 404 404 q 323 397 347 397 m 318 545 q 375 549 344 545 q 423 559 406 553 q 408 660 420 613 q 370 736 396 707 q 300 766 345 766 q 238 740 261 766 q 205 680 215 714 q 195 620 195 646 q 222 562 195 578 q 318 545 248 545 z "},"٪":{"ha":707,"x_min":89,"x_max":620,"o":"m 501 912 l 620 858 l 208 -12 l 89 41 l 501 912 m 93 770 q 124 846 93 814 q 199 878 156 878 q 275 846 243 878 q 306 770 306 814 q 275 695 306 727 q 199 664 243 664 q 124 694 156 664 q 93 770 93 725 m 407 136 q 438 212 407 180 q 513 243 469 243 q 588 212 557 243 q 619 136 619 180 q 588 61 619 93 q 513 30 557 30 q 438 60 469 30 q 407 136 407 91 z "},"٫":{"ha":602,"x_min":38,"x_max":529,"o":"m 420 500 l 529 447 l 149 -321 l 38 -267 l 420 500 z "},"٬":{"ha":372,"x_min":41,"x_max":254,"o":"m 119 17 l 119 145 l 254 145 l 254 32 q 232 -80 254 -28 q 177 -175 210 -133 q 111 -244 144 -216 l 41 -189 q 97 -94 74 -144 q 119 17 119 -44 z "},"٭":{"ha":901,"x_min":242,"x_max":669,"o":"m 367 645 l 307 797 l 446 580 l 570 475 l 531 446 l 669 231 l 506 428 l 465 400 l 405 551 l 242 749 l 367 645 z "},"ٮ":{"ha":1230,"x_min":62,"x_max":1168,"o":"m 745 0 l 587 0 q 306 29 423 0 q 125 127 188 58 q 62 321 62 197 q 74 425 62 374 q 104 520 85 475 l 235 471 q 215 403 224 441 q 205 332 205 366 q 252 220 205 258 q 385 169 299 182 q 587 155 471 155 l 746 155 q 881 162 817 155 q 986 197 945 170 q 1026 283 1026 224 q 1017 378 1026 324 q 997 484 1008 433 l 1141 521 q 1161 404 1154 463 q 1168 296 1168 345 q 1135 141 1168 200 q 1045 52 1103 82 q 910 11 987 21 q 745 0 833 0 z "},"ٯ":{"ha":977,"x_min":63,"x_max":914,"o":"m 477 -300 q 239 -245 331 -300 q 105 -98 148 -191 q 63 107 63 -5 q 79 263 63 182 q 124 421 95 343 l 257 369 q 220 236 235 303 q 205 108 205 169 q 230 -19 205 39 q 315 -111 255 -77 q 477 -146 374 -146 q 703 -89 633 -146 q 777 74 772 -32 q 716 61 747 66 q 649 56 685 56 q 467 108 530 56 q 404 267 404 160 q 419 368 404 316 q 465 463 435 419 q 540 532 495 506 q 643 559 585 559 q 768 522 716 559 q 852 422 820 485 q 899 282 884 359 q 914 123 914 204 q 477 -300 914 -300 m 649 205 q 708 209 679 205 q 766 221 737 214 q 747 306 761 262 q 708 379 733 349 q 642 408 682 408 q 583 386 606 408 q 549 333 560 364 q 538 273 538 301 q 568 218 538 231 q 649 205 598 205 z "},"ٰ":{"ha":0,"x_min":41,"x_max":106,"o":"m 41 750 l 41 1002 l 106 1002 l 106 750 l 41 750 z "},"ٱ":{"ha":342,"x_min":-31,"x_max":358,"o":"m 243 852 l 243 1 l 99 1 l 99 852 l 243 852 m -31 966 l -17 1025 q 7 1006 -7 1017 q 34 991 21 996 q 133 1123 88 1082 q 232 1164 178 1164 q 323 1129 288 1164 q 358 1042 358 1095 q 309 945 358 972 q 144 918 260 918 l 127 918 q 25 929 65 918 q -31 966 -15 941 m 142 981 q 263 993 231 981 q 296 1040 296 1004 q 279 1082 296 1065 q 235 1099 263 1099 q 171 1072 200 1099 q 100 981 142 1046 l 142 981 z "},"ٴ":{"ha":378,"x_min":66,"x_max":340,"o":"m 139 849 q 101 890 116 867 q 87 951 87 912 q 128 1048 87 1010 q 222 1086 169 1086 q 267 1081 248 1086 q 307 1063 287 1075 l 307 991 q 268 1005 286 1002 q 231 1008 249 1008 q 179 991 203 1008 q 155 942 155 975 q 175 904 156 922 q 231 891 193 886 q 234 892 232 891 q 237 893 235 892 l 330 926 l 340 854 l 77 750 l 66 821 l 139 849 z "},"ٹ":{"ha":1230,"x_min":62,"x_max":1168,"o":"m 497 562 q 507 577 503 569 q 515 591 511 585 l 515 891 l 585 891 l 585 686 q 644 732 613 715 q 709 749 674 749 q 800 714 765 749 q 836 627 836 680 q 775 522 835 556 q 604 488 716 488 l 424 488 l 424 562 l 497 562 m 604 562 q 726 579 688 562 q 763 625 763 596 q 749 662 763 648 q 712 675 736 675 q 646 645 681 675 q 573 562 610 614 l 604 562 m 745 0 l 587 0 q 306 29 423 0 q 125 127 188 58 q 62 321 62 197 q 74 425 62 374 q 104 520 85 475 l 235 471 q 215 403 224 441 q 205 332 205 366 q 252 220 205 258 q 385 169 299 182 q 587 155 471 155 l 746 155 q 881 162 817 155 q 986 197 945 170 q 1026 283 1026 224 q 1017 378 1026 324 q 997 484 1008 433 l 1141 521 q 1161 404 1154 463 q 1168 296 1168 345 q 1135 141 1168 200 q 1045 52 1103 82 q 910 11 987 21 q 745 0 833 0 z "},"ټ":{"ha":1230,"x_min":62,"x_max":1168,"o":"m 745 0 l 587 0 q 306 29 423 0 q 125 127 188 58 q 62 321 62 197 q 74 425 62 374 q 104 520 85 475 l 235 471 q 215 403 224 441 q 205 332 205 366 q 252 220 205 258 q 385 169 299 182 q 587 155 471 155 l 746 155 q 881 162 817 155 q 986 197 945 170 q 1026 283 1026 224 q 1017 378 1026 324 q 997 484 1008 433 l 1141 521 q 1161 404 1154 463 q 1168 296 1168 345 q 1135 141 1168 200 q 1045 52 1103 82 q 910 11 987 21 q 745 0 833 0 m 733 700 l 838 596 l 733 491 l 630 596 l 733 700 m 507 700 l 611 596 l 507 491 l 403 596 l 507 700 m 494 -64 q 532 25 494 -12 q 623 63 570 63 q 712 25 675 63 q 750 -64 750 -12 q 712 -155 750 -117 q 623 -193 675 -193 q 532 -155 570 -193 q 494 -64 494 -117 m 561 -64 q 579 -108 561 -90 q 623 -125 597 -125 q 666 -108 648 -125 q 684 -64 684 -90 q 666 -21 684 -39 q 623 -3 648 -3 q 579 -21 597 -3 q 561 -64 561 -39 z "},"پ":{"ha":1230,"x_min":62,"x_max":1168,"o":"m 752 -77 l 851 -177 l 752 -276 l 653 -177 l 752 -77 m 518 -77 l 617 -177 l 518 -276 l 418 -177 l 518 -77 m 635 -250 l 734 -349 l 635 -448 l 536 -349 l 635 -250 m 745 0 l 587 0 q 306 29 423 0 q 125 127 188 58 q 62 321 62 197 q 74 425 62 374 q 104 520 85 475 l 235 471 q 215 403 224 441 q 205 332 205 366 q 252 220 205 258 q 385 169 299 182 q 587 155 471 155 l 746 155 q 881 162 817 155 q 986 197 945 170 q 1026 283 1026 224 q 1017 378 1026 324 q 997 484 1008 433 l 1141 521 q 1161 404 1154 463 q 1168 296 1168 345 q 1135 141 1168 200 q 1045 52 1103 82 q 910 11 987 21 q 745 0 833 0 z "}}}
